<?xml version="1.0" encoding="UTF-8" standalone="no"?>
<!-- This is a Stata 19.5 generated SVG file (http://www.stata.com) -->

<svg version="1.1" width="7.500in" height="4.500in" viewBox="0 0 5400 3240" xmlns="http://www.w3.org/2000/svg" xmlns:xlink="http://www.w3.org/1999/xlink">
	<desc>Stata Graph - Graph</desc>
	<rect x="0" y="0" width="5400" height="3240" style="fill:#FFFFFF;stroke:none"/>
	<rect x="0.00" y="0.00" width="5400.00" height="3240.00" style="fill:#FFFFFF"/>
	<rect x="3.24" y="3.24" width="5393.52" height="3233.52" style="fill:none;stroke:#FFFFFF;stroke-width:6.48"/>
	<rect x="428.46" y="113.40" width="4858.14" height="2698.14" style="fill:#FFFFFF"/>
	<rect x="431.70" y="116.64" width="4851.66" height="2691.66" style="fill:none;stroke:#FFFFFF;stroke-width:6.48"/>
	<line x1="428.46" y1="2101.44" x2="493.26" y2="2101.44" style="stroke:#F0F0F0;stroke-width:9.72"/>
	<line x1="525.66" y1="2101.44" x2="590.46" y2="2101.44" style="stroke:#F0F0F0;stroke-width:9.72"/>
	<line x1="622.86" y1="2101.44" x2="687.66" y2="2101.44" style="stroke:#F0F0F0;stroke-width:9.72"/>
	<line x1="720.06" y1="2101.44" x2="784.86" y2="2101.44" style="stroke:#F0F0F0;stroke-width:9.72"/>
	<line x1="817.26" y1="2101.44" x2="882.06" y2="2101.44" style="stroke:#F0F0F0;stroke-width:9.72"/>
	<line x1="914.46" y1="2101.44" x2="979.26" y2="2101.44" style="stroke:#F0F0F0;stroke-width:9.72"/>
	<line x1="1011.66" y1="2101.44" x2="1076.46" y2="2101.44" style="stroke:#F0F0F0;stroke-width:9.72"/>
	<line x1="1108.86" y1="2101.44" x2="1173.66" y2="2101.44" style="stroke:#F0F0F0;stroke-width:9.72"/>
	<line x1="1206.06" y1="2101.44" x2="1270.86" y2="2101.44" style="stroke:#F0F0F0;stroke-width:9.72"/>
	<line x1="1303.26" y1="2101.44" x2="1368.06" y2="2101.44" style="stroke:#F0F0F0;stroke-width:9.72"/>
	<line x1="1400.46" y1="2101.44" x2="1465.26" y2="2101.44" style="stroke:#F0F0F0;stroke-width:9.72"/>
	<line x1="1497.66" y1="2101.44" x2="1562.46" y2="2101.44" style="stroke:#F0F0F0;stroke-width:9.72"/>
	<line x1="1594.86" y1="2101.44" x2="1659.66" y2="2101.44" style="stroke:#F0F0F0;stroke-width:9.72"/>
	<line x1="1692.06" y1="2101.44" x2="1756.86" y2="2101.44" style="stroke:#F0F0F0;stroke-width:9.72"/>
	<line x1="1789.26" y1="2101.44" x2="1854.06" y2="2101.44" style="stroke:#F0F0F0;stroke-width:9.72"/>
	<line x1="1886.46" y1="2101.44" x2="1951.26" y2="2101.44" style="stroke:#F0F0F0;stroke-width:9.72"/>
	<line x1="1983.66" y1="2101.44" x2="2048.46" y2="2101.44" style="stroke:#F0F0F0;stroke-width:9.72"/>
	<line x1="2080.86" y1="2101.44" x2="2145.66" y2="2101.44" style="stroke:#F0F0F0;stroke-width:9.72"/>
	<line x1="2178.06" y1="2101.44" x2="2242.86" y2="2101.44" style="stroke:#F0F0F0;stroke-width:9.72"/>
	<line x1="2275.26" y1="2101.44" x2="2340.06" y2="2101.44" style="stroke:#F0F0F0;stroke-width:9.72"/>
	<line x1="2372.46" y1="2101.44" x2="2437.26" y2="2101.44" style="stroke:#F0F0F0;stroke-width:9.72"/>
	<line x1="2469.66" y1="2101.44" x2="2534.46" y2="2101.44" style="stroke:#F0F0F0;stroke-width:9.72"/>
	<line x1="2566.86" y1="2101.44" x2="2631.66" y2="2101.44" style="stroke:#F0F0F0;stroke-width:9.72"/>
	<line x1="2664.06" y1="2101.44" x2="2728.86" y2="2101.44" style="stroke:#F0F0F0;stroke-width:9.72"/>
	<line x1="2761.26" y1="2101.44" x2="2826.06" y2="2101.44" style="stroke:#F0F0F0;stroke-width:9.72"/>
	<line x1="2858.46" y1="2101.44" x2="2923.26" y2="2101.44" style="stroke:#F0F0F0;stroke-width:9.72"/>
	<line x1="2955.66" y1="2101.44" x2="3020.46" y2="2101.44" style="stroke:#F0F0F0;stroke-width:9.72"/>
	<line x1="3052.86" y1="2101.44" x2="3117.66" y2="2101.44" style="stroke:#F0F0F0;stroke-width:9.72"/>
	<line x1="3150.06" y1="2101.44" x2="3214.86" y2="2101.44" style="stroke:#F0F0F0;stroke-width:9.72"/>
	<line x1="3247.26" y1="2101.44" x2="3312.06" y2="2101.44" style="stroke:#F0F0F0;stroke-width:9.72"/>
	<line x1="3344.46" y1="2101.44" x2="3409.26" y2="2101.44" style="stroke:#F0F0F0;stroke-width:9.72"/>
	<line x1="3441.66" y1="2101.44" x2="3506.46" y2="2101.44" style="stroke:#F0F0F0;stroke-width:9.72"/>
	<line x1="3538.86" y1="2101.44" x2="3603.66" y2="2101.44" style="stroke:#F0F0F0;stroke-width:9.72"/>
	<line x1="3636.06" y1="2101.44" x2="3700.86" y2="2101.44" style="stroke:#F0F0F0;stroke-width:9.72"/>
	<line x1="3733.26" y1="2101.44" x2="3798.06" y2="2101.44" style="stroke:#F0F0F0;stroke-width:9.72"/>
	<line x1="3830.46" y1="2101.44" x2="3895.26" y2="2101.44" style="stroke:#F0F0F0;stroke-width:9.72"/>
	<line x1="3927.66" y1="2101.44" x2="3992.46" y2="2101.44" style="stroke:#F0F0F0;stroke-width:9.72"/>
	<line x1="4024.86" y1="2101.44" x2="4089.66" y2="2101.44" style="stroke:#F0F0F0;stroke-width:9.72"/>
	<line x1="4122.06" y1="2101.44" x2="4186.86" y2="2101.44" style="stroke:#F0F0F0;stroke-width:9.72"/>
	<line x1="4219.26" y1="2101.44" x2="4284.06" y2="2101.44" style="stroke:#F0F0F0;stroke-width:9.72"/>
	<line x1="4316.46" y1="2101.44" x2="4381.26" y2="2101.44" style="stroke:#F0F0F0;stroke-width:9.72"/>
	<line x1="4413.66" y1="2101.44" x2="4478.46" y2="2101.44" style="stroke:#F0F0F0;stroke-width:9.72"/>
	<line x1="4510.86" y1="2101.44" x2="4575.66" y2="2101.44" style="stroke:#F0F0F0;stroke-width:9.72"/>
	<line x1="4608.06" y1="2101.44" x2="4672.86" y2="2101.44" style="stroke:#F0F0F0;stroke-width:9.72"/>
	<line x1="4705.26" y1="2101.44" x2="4770.06" y2="2101.44" style="stroke:#F0F0F0;stroke-width:9.72"/>
	<line x1="4802.46" y1="2101.44" x2="4867.26" y2="2101.44" style="stroke:#F0F0F0;stroke-width:9.72"/>
	<line x1="4899.66" y1="2101.44" x2="4964.46" y2="2101.44" style="stroke:#F0F0F0;stroke-width:9.72"/>
	<line x1="4996.86" y1="2101.44" x2="5061.66" y2="2101.44" style="stroke:#F0F0F0;stroke-width:9.72"/>
	<line x1="5094.06" y1="2101.44" x2="5158.86" y2="2101.44" style="stroke:#F0F0F0;stroke-width:9.72"/>
	<line x1="5191.26" y1="2101.44" x2="5256.06" y2="2101.44" style="stroke:#F0F0F0;stroke-width:9.72"/>
	<line x1="428.46" y1="823.67" x2="493.26" y2="823.67" style="stroke:#F0F0F0;stroke-width:9.72"/>
	<line x1="525.66" y1="823.67" x2="590.46" y2="823.67" style="stroke:#F0F0F0;stroke-width:9.72"/>
	<line x1="622.86" y1="823.67" x2="687.66" y2="823.67" style="stroke:#F0F0F0;stroke-width:9.72"/>
	<line x1="720.06" y1="823.67" x2="784.86" y2="823.67" style="stroke:#F0F0F0;stroke-width:9.72"/>
	<line x1="817.26" y1="823.67" x2="882.06" y2="823.67" style="stroke:#F0F0F0;stroke-width:9.72"/>
	<line x1="914.46" y1="823.67" x2="979.26" y2="823.67" style="stroke:#F0F0F0;stroke-width:9.72"/>
	<line x1="1011.66" y1="823.67" x2="1076.46" y2="823.67" style="stroke:#F0F0F0;stroke-width:9.72"/>
	<line x1="1108.86" y1="823.67" x2="1173.66" y2="823.67" style="stroke:#F0F0F0;stroke-width:9.72"/>
	<line x1="1206.06" y1="823.67" x2="1270.86" y2="823.67" style="stroke:#F0F0F0;stroke-width:9.72"/>
	<line x1="1303.26" y1="823.67" x2="1368.06" y2="823.67" style="stroke:#F0F0F0;stroke-width:9.72"/>
	<line x1="1400.46" y1="823.67" x2="1465.26" y2="823.67" style="stroke:#F0F0F0;stroke-width:9.72"/>
	<line x1="1497.66" y1="823.67" x2="1562.46" y2="823.67" style="stroke:#F0F0F0;stroke-width:9.72"/>
	<line x1="1594.86" y1="823.67" x2="1659.66" y2="823.67" style="stroke:#F0F0F0;stroke-width:9.72"/>
	<line x1="1692.06" y1="823.67" x2="1756.86" y2="823.67" style="stroke:#F0F0F0;stroke-width:9.72"/>
	<line x1="1789.26" y1="823.67" x2="1854.06" y2="823.67" style="stroke:#F0F0F0;stroke-width:9.72"/>
	<line x1="1886.46" y1="823.67" x2="1951.26" y2="823.67" style="stroke:#F0F0F0;stroke-width:9.72"/>
	<line x1="1983.66" y1="823.67" x2="2048.46" y2="823.67" style="stroke:#F0F0F0;stroke-width:9.72"/>
	<line x1="2080.86" y1="823.67" x2="2145.66" y2="823.67" style="stroke:#F0F0F0;stroke-width:9.72"/>
	<line x1="2178.06" y1="823.67" x2="2242.86" y2="823.67" style="stroke:#F0F0F0;stroke-width:9.72"/>
	<line x1="2275.26" y1="823.67" x2="2340.06" y2="823.67" style="stroke:#F0F0F0;stroke-width:9.72"/>
	<line x1="2372.46" y1="823.67" x2="2437.26" y2="823.67" style="stroke:#F0F0F0;stroke-width:9.72"/>
	<line x1="2469.66" y1="823.67" x2="2534.46" y2="823.67" style="stroke:#F0F0F0;stroke-width:9.72"/>
	<line x1="2566.86" y1="823.67" x2="2631.66" y2="823.67" style="stroke:#F0F0F0;stroke-width:9.72"/>
	<line x1="2664.06" y1="823.67" x2="2728.86" y2="823.67" style="stroke:#F0F0F0;stroke-width:9.72"/>
	<line x1="2761.26" y1="823.67" x2="2826.06" y2="823.67" style="stroke:#F0F0F0;stroke-width:9.72"/>
	<line x1="2858.46" y1="823.67" x2="2923.26" y2="823.67" style="stroke:#F0F0F0;stroke-width:9.72"/>
	<line x1="2955.66" y1="823.67" x2="3020.46" y2="823.67" style="stroke:#F0F0F0;stroke-width:9.72"/>
	<line x1="3052.86" y1="823.67" x2="3117.66" y2="823.67" style="stroke:#F0F0F0;stroke-width:9.72"/>
	<line x1="3150.06" y1="823.67" x2="3214.86" y2="823.67" style="stroke:#F0F0F0;stroke-width:9.72"/>
	<line x1="3247.26" y1="823.67" x2="3312.06" y2="823.67" style="stroke:#F0F0F0;stroke-width:9.72"/>
	<line x1="3344.46" y1="823.67" x2="3409.26" y2="823.67" style="stroke:#F0F0F0;stroke-width:9.72"/>
	<line x1="3441.66" y1="823.67" x2="3506.46" y2="823.67" style="stroke:#F0F0F0;stroke-width:9.72"/>
	<line x1="3538.86" y1="823.67" x2="3603.66" y2="823.67" style="stroke:#F0F0F0;stroke-width:9.72"/>
	<line x1="3636.06" y1="823.67" x2="3700.86" y2="823.67" style="stroke:#F0F0F0;stroke-width:9.72"/>
	<line x1="3733.26" y1="823.67" x2="3798.06" y2="823.67" style="stroke:#F0F0F0;stroke-width:9.72"/>
	<line x1="3830.46" y1="823.67" x2="3895.26" y2="823.67" style="stroke:#F0F0F0;stroke-width:9.72"/>
	<line x1="3927.66" y1="823.67" x2="3992.46" y2="823.67" style="stroke:#F0F0F0;stroke-width:9.72"/>
	<line x1="4024.86" y1="823.67" x2="4089.66" y2="823.67" style="stroke:#F0F0F0;stroke-width:9.72"/>
	<line x1="4122.06" y1="823.67" x2="4186.86" y2="823.67" style="stroke:#F0F0F0;stroke-width:9.72"/>
	<line x1="4219.26" y1="823.67" x2="4284.06" y2="823.67" style="stroke:#F0F0F0;stroke-width:9.72"/>
	<line x1="4316.46" y1="823.67" x2="4381.26" y2="823.67" style="stroke:#F0F0F0;stroke-width:9.72"/>
	<line x1="4413.66" y1="823.67" x2="4478.46" y2="823.67" style="stroke:#F0F0F0;stroke-width:9.72"/>
	<line x1="4510.86" y1="823.67" x2="4575.66" y2="823.67" style="stroke:#F0F0F0;stroke-width:9.72"/>
	<line x1="4608.06" y1="823.67" x2="4672.86" y2="823.67" style="stroke:#F0F0F0;stroke-width:9.72"/>
	<line x1="4705.26" y1="823.67" x2="4770.06" y2="823.67" style="stroke:#F0F0F0;stroke-width:9.72"/>
	<line x1="4802.46" y1="823.67" x2="4867.26" y2="823.67" style="stroke:#F0F0F0;stroke-width:9.72"/>
	<line x1="4899.66" y1="823.67" x2="4964.46" y2="823.67" style="stroke:#F0F0F0;stroke-width:9.72"/>
	<line x1="4996.86" y1="823.67" x2="5061.66" y2="823.67" style="stroke:#F0F0F0;stroke-width:9.72"/>
	<line x1="5094.06" y1="823.67" x2="5158.86" y2="823.67" style="stroke:#F0F0F0;stroke-width:9.72"/>
	<line x1="5191.26" y1="823.67" x2="5256.06" y2="823.67" style="stroke:#F0F0F0;stroke-width:9.72"/>
	<line x1="1678.56" y1="2811.54" x2="1678.56" y2="2746.74" style="stroke:#F0F0F0;stroke-width:9.72"/>
	<line x1="1678.56" y1="2714.34" x2="1678.56" y2="2649.54" style="stroke:#F0F0F0;stroke-width:9.72"/>
	<line x1="1678.56" y1="2617.14" x2="1678.56" y2="2552.34" style="stroke:#F0F0F0;stroke-width:9.72"/>
	<line x1="1678.56" y1="2519.94" x2="1678.56" y2="2455.14" style="stroke:#F0F0F0;stroke-width:9.72"/>
	<line x1="1678.56" y1="2422.74" x2="1678.56" y2="2357.94" style="stroke:#F0F0F0;stroke-width:9.72"/>
	<line x1="1678.56" y1="2325.54" x2="1678.56" y2="2260.74" style="stroke:#F0F0F0;stroke-width:9.72"/>
	<line x1="1678.56" y1="2228.34" x2="1678.56" y2="2163.54" style="stroke:#F0F0F0;stroke-width:9.72"/>
	<line x1="1678.56" y1="2131.14" x2="1678.56" y2="2066.34" style="stroke:#F0F0F0;stroke-width:9.72"/>
	<line x1="1678.56" y1="2033.94" x2="1678.56" y2="1969.14" style="stroke:#F0F0F0;stroke-width:9.72"/>
	<line x1="1678.56" y1="1936.74" x2="1678.56" y2="1871.94" style="stroke:#F0F0F0;stroke-width:9.72"/>
	<line x1="1678.56" y1="1839.54" x2="1678.56" y2="1774.74" style="stroke:#F0F0F0;stroke-width:9.72"/>
	<line x1="1678.56" y1="1742.34" x2="1678.56" y2="1677.54" style="stroke:#F0F0F0;stroke-width:9.72"/>
	<line x1="1678.56" y1="1645.14" x2="1678.56" y2="1580.34" style="stroke:#F0F0F0;stroke-width:9.72"/>
	<line x1="1678.56" y1="1547.94" x2="1678.56" y2="1483.14" style="stroke:#F0F0F0;stroke-width:9.72"/>
	<line x1="1678.56" y1="1450.74" x2="1678.56" y2="1385.94" style="stroke:#F0F0F0;stroke-width:9.72"/>
	<line x1="1678.56" y1="1353.54" x2="1678.56" y2="1288.74" style="stroke:#F0F0F0;stroke-width:9.72"/>
	<line x1="1678.56" y1="1256.34" x2="1678.56" y2="1191.54" style="stroke:#F0F0F0;stroke-width:9.72"/>
	<line x1="1678.56" y1="1159.14" x2="1678.56" y2="1094.34" style="stroke:#F0F0F0;stroke-width:9.72"/>
	<line x1="1678.56" y1="1061.94" x2="1678.56" y2="997.14" style="stroke:#F0F0F0;stroke-width:9.72"/>
	<line x1="1678.56" y1="964.74" x2="1678.56" y2="899.94" style="stroke:#F0F0F0;stroke-width:9.72"/>
	<line x1="1678.56" y1="867.54" x2="1678.56" y2="802.74" style="stroke:#F0F0F0;stroke-width:9.72"/>
	<line x1="1678.56" y1="770.34" x2="1678.56" y2="705.54" style="stroke:#F0F0F0;stroke-width:9.72"/>
	<line x1="1678.56" y1="673.14" x2="1678.56" y2="608.34" style="stroke:#F0F0F0;stroke-width:9.72"/>
	<line x1="1678.56" y1="575.94" x2="1678.56" y2="511.14" style="stroke:#F0F0F0;stroke-width:9.72"/>
	<line x1="1678.56" y1="478.74" x2="1678.56" y2="413.94" style="stroke:#F0F0F0;stroke-width:9.72"/>
	<line x1="1678.56" y1="381.54" x2="1678.56" y2="316.74" style="stroke:#F0F0F0;stroke-width:9.72"/>
	<line x1="1678.56" y1="284.34" x2="1678.56" y2="219.54" style="stroke:#F0F0F0;stroke-width:9.72"/>
	<line x1="1678.56" y1="187.14" x2="1678.56" y2="122.34" style="stroke:#F0F0F0;stroke-width:9.72"/>
	<line x1="4036.33" y1="2811.54" x2="4036.33" y2="2746.74" style="stroke:#F0F0F0;stroke-width:9.72"/>
	<line x1="4036.33" y1="2714.34" x2="4036.33" y2="2649.54" style="stroke:#F0F0F0;stroke-width:9.72"/>
	<line x1="4036.33" y1="2617.14" x2="4036.33" y2="2552.34" style="stroke:#F0F0F0;stroke-width:9.72"/>
	<line x1="4036.33" y1="2519.94" x2="4036.33" y2="2455.14" style="stroke:#F0F0F0;stroke-width:9.72"/>
	<line x1="4036.33" y1="2422.74" x2="4036.33" y2="2357.94" style="stroke:#F0F0F0;stroke-width:9.72"/>
	<line x1="4036.33" y1="2325.54" x2="4036.33" y2="2260.74" style="stroke:#F0F0F0;stroke-width:9.72"/>
	<line x1="4036.33" y1="2228.34" x2="4036.33" y2="2163.54" style="stroke:#F0F0F0;stroke-width:9.72"/>
	<line x1="4036.33" y1="2131.14" x2="4036.33" y2="2066.34" style="stroke:#F0F0F0;stroke-width:9.72"/>
	<line x1="4036.33" y1="2033.94" x2="4036.33" y2="1969.14" style="stroke:#F0F0F0;stroke-width:9.72"/>
	<line x1="4036.33" y1="1936.74" x2="4036.33" y2="1871.94" style="stroke:#F0F0F0;stroke-width:9.72"/>
	<line x1="4036.33" y1="1839.54" x2="4036.33" y2="1774.74" style="stroke:#F0F0F0;stroke-width:9.72"/>
	<line x1="4036.33" y1="1742.34" x2="4036.33" y2="1677.54" style="stroke:#F0F0F0;stroke-width:9.72"/>
	<line x1="4036.33" y1="1645.14" x2="4036.33" y2="1580.34" style="stroke:#F0F0F0;stroke-width:9.72"/>
	<line x1="4036.33" y1="1547.94" x2="4036.33" y2="1483.14" style="stroke:#F0F0F0;stroke-width:9.72"/>
	<line x1="4036.33" y1="1450.74" x2="4036.33" y2="1385.94" style="stroke:#F0F0F0;stroke-width:9.72"/>
	<line x1="4036.33" y1="1353.54" x2="4036.33" y2="1288.74" style="stroke:#F0F0F0;stroke-width:9.72"/>
	<line x1="4036.33" y1="1256.34" x2="4036.33" y2="1191.54" style="stroke:#F0F0F0;stroke-width:9.72"/>
	<line x1="4036.33" y1="1159.14" x2="4036.33" y2="1094.34" style="stroke:#F0F0F0;stroke-width:9.72"/>
	<line x1="4036.33" y1="1061.94" x2="4036.33" y2="997.14" style="stroke:#F0F0F0;stroke-width:9.72"/>
	<line x1="4036.33" y1="964.74" x2="4036.33" y2="899.94" style="stroke:#F0F0F0;stroke-width:9.72"/>
	<line x1="4036.33" y1="867.54" x2="4036.33" y2="802.74" style="stroke:#F0F0F0;stroke-width:9.72"/>
	<line x1="4036.33" y1="770.34" x2="4036.33" y2="705.54" style="stroke:#F0F0F0;stroke-width:9.72"/>
	<line x1="4036.33" y1="673.14" x2="4036.33" y2="608.34" style="stroke:#F0F0F0;stroke-width:9.72"/>
	<line x1="4036.33" y1="575.94" x2="4036.33" y2="511.14" style="stroke:#F0F0F0;stroke-width:9.72"/>
	<line x1="4036.33" y1="478.74" x2="4036.33" y2="413.94" style="stroke:#F0F0F0;stroke-width:9.72"/>
	<line x1="4036.33" y1="381.54" x2="4036.33" y2="316.74" style="stroke:#F0F0F0;stroke-width:9.72"/>
	<line x1="4036.33" y1="284.34" x2="4036.33" y2="219.54" style="stroke:#F0F0F0;stroke-width:9.72"/>
	<line x1="4036.33" y1="187.14" x2="4036.33" y2="122.34" style="stroke:#F0F0F0;stroke-width:9.72"/>
	<line x1="2857.44" y1="2811.54" x2="2857.44" y2="2746.74" style="stroke:#000000;stroke-width:9.72"/>
	<line x1="2857.44" y1="2714.34" x2="2857.44" y2="2649.54" style="stroke:#000000;stroke-width:9.72"/>
	<line x1="2857.44" y1="2617.14" x2="2857.44" y2="2552.34" style="stroke:#000000;stroke-width:9.72"/>
	<line x1="2857.44" y1="2519.94" x2="2857.44" y2="2455.14" style="stroke:#000000;stroke-width:9.72"/>
	<line x1="2857.44" y1="2422.74" x2="2857.44" y2="2357.94" style="stroke:#000000;stroke-width:9.72"/>
	<line x1="2857.44" y1="2325.54" x2="2857.44" y2="2260.74" style="stroke:#000000;stroke-width:9.72"/>
	<line x1="2857.44" y1="2228.34" x2="2857.44" y2="2163.54" style="stroke:#000000;stroke-width:9.72"/>
	<line x1="2857.44" y1="2131.14" x2="2857.44" y2="2066.34" style="stroke:#000000;stroke-width:9.72"/>
	<line x1="2857.44" y1="2033.94" x2="2857.44" y2="1969.14" style="stroke:#000000;stroke-width:9.72"/>
	<line x1="2857.44" y1="1936.74" x2="2857.44" y2="1871.94" style="stroke:#000000;stroke-width:9.72"/>
	<line x1="2857.44" y1="1839.54" x2="2857.44" y2="1774.74" style="stroke:#000000;stroke-width:9.72"/>
	<line x1="2857.44" y1="1742.34" x2="2857.44" y2="1677.54" style="stroke:#000000;stroke-width:9.72"/>
	<line x1="2857.44" y1="1645.14" x2="2857.44" y2="1580.34" style="stroke:#000000;stroke-width:9.72"/>
	<line x1="2857.44" y1="1547.94" x2="2857.44" y2="1483.14" style="stroke:#000000;stroke-width:9.72"/>
	<line x1="2857.44" y1="1450.74" x2="2857.44" y2="1385.94" style="stroke:#000000;stroke-width:9.72"/>
	<line x1="2857.44" y1="1353.54" x2="2857.44" y2="1288.74" style="stroke:#000000;stroke-width:9.72"/>
	<line x1="2857.44" y1="1256.34" x2="2857.44" y2="1191.54" style="stroke:#000000;stroke-width:9.72"/>
	<line x1="2857.44" y1="1159.14" x2="2857.44" y2="1094.34" style="stroke:#000000;stroke-width:9.72"/>
	<line x1="2857.44" y1="1061.94" x2="2857.44" y2="997.14" style="stroke:#000000;stroke-width:9.72"/>
	<line x1="2857.44" y1="964.74" x2="2857.44" y2="899.94" style="stroke:#000000;stroke-width:9.72"/>
	<line x1="2857.44" y1="867.54" x2="2857.44" y2="802.74" style="stroke:#000000;stroke-width:9.72"/>
	<line x1="2857.44" y1="770.34" x2="2857.44" y2="705.54" style="stroke:#000000;stroke-width:9.72"/>
	<line x1="2857.44" y1="673.14" x2="2857.44" y2="608.34" style="stroke:#000000;stroke-width:9.72"/>
	<line x1="2857.44" y1="575.94" x2="2857.44" y2="511.14" style="stroke:#000000;stroke-width:9.72"/>
	<line x1="2857.44" y1="478.74" x2="2857.44" y2="413.94" style="stroke:#000000;stroke-width:9.72"/>
	<line x1="2857.44" y1="381.54" x2="2857.44" y2="316.74" style="stroke:#000000;stroke-width:9.72"/>
	<line x1="2857.44" y1="284.34" x2="2857.44" y2="219.54" style="stroke:#000000;stroke-width:9.72"/>
	<line x1="2857.44" y1="187.14" x2="2857.44" y2="122.34" style="stroke:#000000;stroke-width:9.72"/>
	<line x1="428.46" y1="1462.56" x2="493.26" y2="1462.56" style="stroke:#000000;stroke-width:9.72"/>
	<line x1="525.66" y1="1462.56" x2="590.46" y2="1462.56" style="stroke:#000000;stroke-width:9.72"/>
	<line x1="622.86" y1="1462.56" x2="687.66" y2="1462.56" style="stroke:#000000;stroke-width:9.72"/>
	<line x1="720.06" y1="1462.56" x2="784.86" y2="1462.56" style="stroke:#000000;stroke-width:9.72"/>
	<line x1="817.26" y1="1462.56" x2="882.06" y2="1462.56" style="stroke:#000000;stroke-width:9.72"/>
	<line x1="914.46" y1="1462.56" x2="979.26" y2="1462.56" style="stroke:#000000;stroke-width:9.72"/>
	<line x1="1011.66" y1="1462.56" x2="1076.46" y2="1462.56" style="stroke:#000000;stroke-width:9.72"/>
	<line x1="1108.86" y1="1462.56" x2="1173.66" y2="1462.56" style="stroke:#000000;stroke-width:9.72"/>
	<line x1="1206.06" y1="1462.56" x2="1270.86" y2="1462.56" style="stroke:#000000;stroke-width:9.72"/>
	<line x1="1303.26" y1="1462.56" x2="1368.06" y2="1462.56" style="stroke:#000000;stroke-width:9.72"/>
	<line x1="1400.46" y1="1462.56" x2="1465.26" y2="1462.56" style="stroke:#000000;stroke-width:9.72"/>
	<line x1="1497.66" y1="1462.56" x2="1562.46" y2="1462.56" style="stroke:#000000;stroke-width:9.72"/>
	<line x1="1594.86" y1="1462.56" x2="1659.66" y2="1462.56" style="stroke:#000000;stroke-width:9.72"/>
	<line x1="1692.06" y1="1462.56" x2="1756.86" y2="1462.56" style="stroke:#000000;stroke-width:9.72"/>
	<line x1="1789.26" y1="1462.56" x2="1854.06" y2="1462.56" style="stroke:#000000;stroke-width:9.72"/>
	<line x1="1886.46" y1="1462.56" x2="1951.26" y2="1462.56" style="stroke:#000000;stroke-width:9.72"/>
	<line x1="1983.66" y1="1462.56" x2="2048.46" y2="1462.56" style="stroke:#000000;stroke-width:9.72"/>
	<line x1="2080.86" y1="1462.56" x2="2145.66" y2="1462.56" style="stroke:#000000;stroke-width:9.72"/>
	<line x1="2178.06" y1="1462.56" x2="2242.86" y2="1462.56" style="stroke:#000000;stroke-width:9.72"/>
	<line x1="2275.26" y1="1462.56" x2="2340.06" y2="1462.56" style="stroke:#000000;stroke-width:9.72"/>
	<line x1="2372.46" y1="1462.56" x2="2437.26" y2="1462.56" style="stroke:#000000;stroke-width:9.72"/>
	<line x1="2469.66" y1="1462.56" x2="2534.46" y2="1462.56" style="stroke:#000000;stroke-width:9.72"/>
	<line x1="2566.86" y1="1462.56" x2="2631.66" y2="1462.56" style="stroke:#000000;stroke-width:9.72"/>
	<line x1="2664.06" y1="1462.56" x2="2728.86" y2="1462.56" style="stroke:#000000;stroke-width:9.72"/>
	<line x1="2761.26" y1="1462.56" x2="2826.06" y2="1462.56" style="stroke:#000000;stroke-width:9.72"/>
	<line x1="2858.46" y1="1462.56" x2="2923.26" y2="1462.56" style="stroke:#000000;stroke-width:9.72"/>
	<line x1="2955.66" y1="1462.56" x2="3020.46" y2="1462.56" style="stroke:#000000;stroke-width:9.72"/>
	<line x1="3052.86" y1="1462.56" x2="3117.66" y2="1462.56" style="stroke:#000000;stroke-width:9.72"/>
	<line x1="3150.06" y1="1462.56" x2="3214.86" y2="1462.56" style="stroke:#000000;stroke-width:9.72"/>
	<line x1="3247.26" y1="1462.56" x2="3312.06" y2="1462.56" style="stroke:#000000;stroke-width:9.72"/>
	<line x1="3344.46" y1="1462.56" x2="3409.26" y2="1462.56" style="stroke:#000000;stroke-width:9.72"/>
	<line x1="3441.66" y1="1462.56" x2="3506.46" y2="1462.56" style="stroke:#000000;stroke-width:9.72"/>
	<line x1="3538.86" y1="1462.56" x2="3603.66" y2="1462.56" style="stroke:#000000;stroke-width:9.72"/>
	<line x1="3636.06" y1="1462.56" x2="3700.86" y2="1462.56" style="stroke:#000000;stroke-width:9.72"/>
	<line x1="3733.26" y1="1462.56" x2="3798.06" y2="1462.56" style="stroke:#000000;stroke-width:9.72"/>
	<line x1="3830.46" y1="1462.56" x2="3895.26" y2="1462.56" style="stroke:#000000;stroke-width:9.72"/>
	<line x1="3927.66" y1="1462.56" x2="3992.46" y2="1462.56" style="stroke:#000000;stroke-width:9.72"/>
	<line x1="4024.86" y1="1462.56" x2="4089.66" y2="1462.56" style="stroke:#000000;stroke-width:9.72"/>
	<line x1="4122.06" y1="1462.56" x2="4186.86" y2="1462.56" style="stroke:#000000;stroke-width:9.72"/>
	<line x1="4219.26" y1="1462.56" x2="4284.06" y2="1462.56" style="stroke:#000000;stroke-width:9.72"/>
	<line x1="4316.46" y1="1462.56" x2="4381.26" y2="1462.56" style="stroke:#000000;stroke-width:9.72"/>
	<line x1="4413.66" y1="1462.56" x2="4478.46" y2="1462.56" style="stroke:#000000;stroke-width:9.72"/>
	<line x1="4510.86" y1="1462.56" x2="4575.66" y2="1462.56" style="stroke:#000000;stroke-width:9.72"/>
	<line x1="4608.06" y1="1462.56" x2="4672.86" y2="1462.56" style="stroke:#000000;stroke-width:9.72"/>
	<line x1="4705.26" y1="1462.56" x2="4770.06" y2="1462.56" style="stroke:#000000;stroke-width:9.72"/>
	<line x1="4802.46" y1="1462.56" x2="4867.26" y2="1462.56" style="stroke:#000000;stroke-width:9.72"/>
	<line x1="4899.66" y1="1462.56" x2="4964.46" y2="1462.56" style="stroke:#000000;stroke-width:9.72"/>
	<line x1="4996.86" y1="1462.56" x2="5061.66" y2="1462.56" style="stroke:#000000;stroke-width:9.72"/>
	<line x1="5094.06" y1="1462.56" x2="5158.86" y2="1462.56" style="stroke:#000000;stroke-width:9.72"/>
	<line x1="5191.26" y1="1462.56" x2="5256.06" y2="1462.56" style="stroke:#000000;stroke-width:9.72"/>
	<path d="" stroke-linejoin="round" style="fill:none;stroke:#000000;stroke-opacity:0.00;stroke-width:0.00"/>
	<text x="1678.56" y="687.96" style="font-family:'Helvetica';font-weight:bold;font-size:123.69px;fill:#000000" text-anchor="middle">Involuntary immobility</text>
	<text x="1678.56" y="819.92" style="font-family:'Helvetica';font-size:123.69px;fill:#000000" text-anchor="middle">Employment: 7.08%</text>
	<text x="1678.56" y="943.62" style="font-family:'Helvetica';font-size:123.69px;fill:#000000" text-anchor="middle">Secondary: 4.61%</text>
	<text x="1678.56" y="1067.31" style="font-family:'Helvetica';font-size:123.69px;fill:#000000" text-anchor="middle">College: 14.24%</text>
	<text x="4036.33" y="687.96" style="font-family:'Helvetica';font-weight:bold;font-size:123.69px;fill:#000000" text-anchor="middle">Mobility</text>
	<text x="4036.33" y="819.92" style="font-family:'Helvetica';font-size:123.69px;fill:#000000" text-anchor="middle">Employment: 10.02%</text>
	<text x="4036.33" y="943.62" style="font-family:'Helvetica';font-size:123.69px;fill:#000000" text-anchor="middle">Secondary: 12.51%</text>
	<text x="4036.33" y="1067.31" style="font-family:'Helvetica';font-size:123.69px;fill:#000000" text-anchor="middle">College: 2.86%</text>
	<text x="1678.56" y="1965.90" style="font-family:'Helvetica';font-weight:bold;font-size:123.69px;fill:#000000" text-anchor="middle">Acquiescent immobility</text>
	<text x="1678.56" y="2097.70" style="font-family:'Helvetica';font-size:123.69px;fill:#000000" text-anchor="middle">Employment: 38.56%</text>
	<text x="1678.56" y="2221.39" style="font-family:'Helvetica';font-size:123.69px;fill:#000000" text-anchor="middle">Secondary: 45.68%</text>
	<text x="1678.56" y="2345.09" style="font-family:'Helvetica';font-size:123.69px;fill:#000000" text-anchor="middle">College: 77.21%</text>
	<text x="4036.33" y="1965.90" style="font-family:'Helvetica';font-weight:bold;font-size:123.69px;fill:#000000" text-anchor="middle">Voluntary immobility</text>
	<text x="4036.33" y="2097.70" style="font-family:'Helvetica';font-size:123.69px;fill:#000000" text-anchor="middle">Employment: 44.34%</text>
	<text x="4036.33" y="2221.39" style="font-family:'Helvetica';font-size:123.69px;fill:#000000" text-anchor="middle">Secondary: 37.20%</text>
	<text x="4036.33" y="2345.09" style="font-family:'Helvetica';font-size:123.69px;fill:#000000" text-anchor="middle">College: 5.69%</text>
	<line x1="428.46" y1="2811.54" x2="428.46" y2="113.40" style="stroke:#000000;stroke-width:6.48"/>
	<text x="371.99" y="2101.44" style="font-family:'Helvetica';font-size:112.56px;fill:#000000" transform="rotate(-90 371.99,2101.44)" text-anchor="middle">Low aspiration</text>
	<text x="371.99" y="823.67" style="font-family:'Helvetica';font-size:112.56px;fill:#000000" transform="rotate(-90 371.99,823.67)" text-anchor="middle">High aspiration</text>
	<text x="214.55" y="1462.56" style="font-family:'Helvetica';font-size:112.56px;fill:#000000" transform="rotate(-90 214.55,1462.56)" text-anchor="middle">Migration aspirations</text>
	<line x1="428.46" y1="2811.54" x2="5286.60" y2="2811.54" style="stroke:#000000;stroke-width:6.48"/>
	<text x="1678.56" y="2912.86" style="font-family:'Helvetica';font-size:112.56px;fill:#000000" text-anchor="middle">Low capability</text>
	<text x="4036.33" y="2912.86" style="font-family:'Helvetica';font-size:112.56px;fill:#000000" text-anchor="middle">High capability</text>
	<text x="2857.44" y="3070.31" style="font-family:'Helvetica';font-size:112.56px;fill:#000000" text-anchor="middle">Mobility capability (employment versus education proxies)</text>
</svg>
