<?xml version="1.0" encoding="UTF-8" standalone="no"?>
<!-- This is a Stata 19.5 generated SVG file (http://www.stata.com) -->

<svg version="1.1" width="7.500in" height="4.500in" viewBox="0 0 5400 3240" xmlns="http://www.w3.org/2000/svg" xmlns:xlink="http://www.w3.org/1999/xlink">
	<desc>Stata Graph - Graph</desc>
	<rect x="0" y="0" width="5400" height="3240" style="fill:#FFFFFF;stroke:none"/>
	<rect x="0.00" y="0.00" width="5400.00" height="3240.00" style="fill:#FFFFFF"/>
	<rect x="3.24" y="3.24" width="5393.52" height="3233.52" style="fill:none;stroke:#FFFFFF;stroke-width:6.48"/>
	<rect x="1034.44" y="113.40" width="4252.16" height="2698.14" style="fill:#FFFFFF"/>
	<rect x="1037.68" y="116.64" width="4245.68" height="2691.66" style="fill:none;stroke:#FFFFFF;stroke-width:6.48"/>
	<line x1="1034.44" y1="2101.44" x2="1099.24" y2="2101.44" style="stroke:#F0F0F0;stroke-width:9.72"/>
	<line x1="1131.64" y1="2101.44" x2="1196.44" y2="2101.44" style="stroke:#F0F0F0;stroke-width:9.72"/>
	<line x1="1228.84" y1="2101.44" x2="1293.64" y2="2101.44" style="stroke:#F0F0F0;stroke-width:9.72"/>
	<line x1="1326.04" y1="2101.44" x2="1390.84" y2="2101.44" style="stroke:#F0F0F0;stroke-width:9.72"/>
	<line x1="1423.24" y1="2101.44" x2="1488.04" y2="2101.44" style="stroke:#F0F0F0;stroke-width:9.72"/>
	<line x1="1520.44" y1="2101.44" x2="1585.24" y2="2101.44" style="stroke:#F0F0F0;stroke-width:9.72"/>
	<line x1="1617.64" y1="2101.44" x2="1682.44" y2="2101.44" style="stroke:#F0F0F0;stroke-width:9.72"/>
	<line x1="1714.84" y1="2101.44" x2="1779.64" y2="2101.44" style="stroke:#F0F0F0;stroke-width:9.72"/>
	<line x1="1812.04" y1="2101.44" x2="1876.84" y2="2101.44" style="stroke:#F0F0F0;stroke-width:9.72"/>
	<line x1="1909.24" y1="2101.44" x2="1974.04" y2="2101.44" style="stroke:#F0F0F0;stroke-width:9.72"/>
	<line x1="2006.44" y1="2101.44" x2="2071.24" y2="2101.44" style="stroke:#F0F0F0;stroke-width:9.72"/>
	<line x1="2103.64" y1="2101.44" x2="2168.44" y2="2101.44" style="stroke:#F0F0F0;stroke-width:9.72"/>
	<line x1="2200.84" y1="2101.44" x2="2265.64" y2="2101.44" style="stroke:#F0F0F0;stroke-width:9.72"/>
	<line x1="2298.04" y1="2101.44" x2="2362.84" y2="2101.44" style="stroke:#F0F0F0;stroke-width:9.72"/>
	<line x1="2395.24" y1="2101.44" x2="2460.04" y2="2101.44" style="stroke:#F0F0F0;stroke-width:9.72"/>
	<line x1="2492.44" y1="2101.44" x2="2557.24" y2="2101.44" style="stroke:#F0F0F0;stroke-width:9.72"/>
	<line x1="2589.64" y1="2101.44" x2="2654.44" y2="2101.44" style="stroke:#F0F0F0;stroke-width:9.72"/>
	<line x1="2686.84" y1="2101.44" x2="2751.64" y2="2101.44" style="stroke:#F0F0F0;stroke-width:9.72"/>
	<line x1="2784.04" y1="2101.44" x2="2848.84" y2="2101.44" style="stroke:#F0F0F0;stroke-width:9.72"/>
	<line x1="2881.24" y1="2101.44" x2="2946.04" y2="2101.44" style="stroke:#F0F0F0;stroke-width:9.72"/>
	<line x1="2978.44" y1="2101.44" x2="3043.24" y2="2101.44" style="stroke:#F0F0F0;stroke-width:9.72"/>
	<line x1="3075.64" y1="2101.44" x2="3140.44" y2="2101.44" style="stroke:#F0F0F0;stroke-width:9.72"/>
	<line x1="3172.84" y1="2101.44" x2="3237.64" y2="2101.44" style="stroke:#F0F0F0;stroke-width:9.72"/>
	<line x1="3270.04" y1="2101.44" x2="3334.84" y2="2101.44" style="stroke:#F0F0F0;stroke-width:9.72"/>
	<line x1="3367.24" y1="2101.44" x2="3432.04" y2="2101.44" style="stroke:#F0F0F0;stroke-width:9.72"/>
	<line x1="3464.44" y1="2101.44" x2="3529.24" y2="2101.44" style="stroke:#F0F0F0;stroke-width:9.72"/>
	<line x1="3561.64" y1="2101.44" x2="3626.44" y2="2101.44" style="stroke:#F0F0F0;stroke-width:9.72"/>
	<line x1="3658.84" y1="2101.44" x2="3723.64" y2="2101.44" style="stroke:#F0F0F0;stroke-width:9.72"/>
	<line x1="3756.04" y1="2101.44" x2="3820.84" y2="2101.44" style="stroke:#F0F0F0;stroke-width:9.72"/>
	<line x1="3853.24" y1="2101.44" x2="3918.04" y2="2101.44" style="stroke:#F0F0F0;stroke-width:9.72"/>
	<line x1="3950.44" y1="2101.44" x2="4015.24" y2="2101.44" style="stroke:#F0F0F0;stroke-width:9.72"/>
	<line x1="4047.64" y1="2101.44" x2="4112.44" y2="2101.44" style="stroke:#F0F0F0;stroke-width:9.72"/>
	<line x1="4144.84" y1="2101.44" x2="4209.64" y2="2101.44" style="stroke:#F0F0F0;stroke-width:9.72"/>
	<line x1="4242.04" y1="2101.44" x2="4306.84" y2="2101.44" style="stroke:#F0F0F0;stroke-width:9.72"/>
	<line x1="4339.24" y1="2101.44" x2="4404.04" y2="2101.44" style="stroke:#F0F0F0;stroke-width:9.72"/>
	<line x1="4436.44" y1="2101.44" x2="4501.24" y2="2101.44" style="stroke:#F0F0F0;stroke-width:9.72"/>
	<line x1="4533.64" y1="2101.44" x2="4598.44" y2="2101.44" style="stroke:#F0F0F0;stroke-width:9.72"/>
	<line x1="4630.84" y1="2101.44" x2="4695.64" y2="2101.44" style="stroke:#F0F0F0;stroke-width:9.72"/>
	<line x1="4728.04" y1="2101.44" x2="4792.84" y2="2101.44" style="stroke:#F0F0F0;stroke-width:9.72"/>
	<line x1="4825.24" y1="2101.44" x2="4890.04" y2="2101.44" style="stroke:#F0F0F0;stroke-width:9.72"/>
	<line x1="4922.44" y1="2101.44" x2="4987.24" y2="2101.44" style="stroke:#F0F0F0;stroke-width:9.72"/>
	<line x1="5019.64" y1="2101.44" x2="5084.44" y2="2101.44" style="stroke:#F0F0F0;stroke-width:9.72"/>
	<line x1="5116.84" y1="2101.44" x2="5181.64" y2="2101.44" style="stroke:#F0F0F0;stroke-width:9.72"/>
	<line x1="5214.04" y1="2101.44" x2="5278.84" y2="2101.44" style="stroke:#F0F0F0;stroke-width:9.72"/>
	<line x1="1034.44" y1="823.67" x2="1099.24" y2="823.67" style="stroke:#F0F0F0;stroke-width:9.72"/>
	<line x1="1131.64" y1="823.67" x2="1196.44" y2="823.67" style="stroke:#F0F0F0;stroke-width:9.72"/>
	<line x1="1228.84" y1="823.67" x2="1293.64" y2="823.67" style="stroke:#F0F0F0;stroke-width:9.72"/>
	<line x1="1326.04" y1="823.67" x2="1390.84" y2="823.67" style="stroke:#F0F0F0;stroke-width:9.72"/>
	<line x1="1423.24" y1="823.67" x2="1488.04" y2="823.67" style="stroke:#F0F0F0;stroke-width:9.72"/>
	<line x1="1520.44" y1="823.67" x2="1585.24" y2="823.67" style="stroke:#F0F0F0;stroke-width:9.72"/>
	<line x1="1617.64" y1="823.67" x2="1682.44" y2="823.67" style="stroke:#F0F0F0;stroke-width:9.72"/>
	<line x1="1714.84" y1="823.67" x2="1779.64" y2="823.67" style="stroke:#F0F0F0;stroke-width:9.72"/>
	<line x1="1812.04" y1="823.67" x2="1876.84" y2="823.67" style="stroke:#F0F0F0;stroke-width:9.72"/>
	<line x1="1909.24" y1="823.67" x2="1974.04" y2="823.67" style="stroke:#F0F0F0;stroke-width:9.72"/>
	<line x1="2006.44" y1="823.67" x2="2071.24" y2="823.67" style="stroke:#F0F0F0;stroke-width:9.72"/>
	<line x1="2103.64" y1="823.67" x2="2168.44" y2="823.67" style="stroke:#F0F0F0;stroke-width:9.72"/>
	<line x1="2200.84" y1="823.67" x2="2265.64" y2="823.67" style="stroke:#F0F0F0;stroke-width:9.72"/>
	<line x1="2298.04" y1="823.67" x2="2362.84" y2="823.67" style="stroke:#F0F0F0;stroke-width:9.72"/>
	<line x1="2395.24" y1="823.67" x2="2460.04" y2="823.67" style="stroke:#F0F0F0;stroke-width:9.72"/>
	<line x1="2492.44" y1="823.67" x2="2557.24" y2="823.67" style="stroke:#F0F0F0;stroke-width:9.72"/>
	<line x1="2589.64" y1="823.67" x2="2654.44" y2="823.67" style="stroke:#F0F0F0;stroke-width:9.72"/>
	<line x1="2686.84" y1="823.67" x2="2751.64" y2="823.67" style="stroke:#F0F0F0;stroke-width:9.72"/>
	<line x1="2784.04" y1="823.67" x2="2848.84" y2="823.67" style="stroke:#F0F0F0;stroke-width:9.72"/>
	<line x1="2881.24" y1="823.67" x2="2946.04" y2="823.67" style="stroke:#F0F0F0;stroke-width:9.72"/>
	<line x1="2978.44" y1="823.67" x2="3043.24" y2="823.67" style="stroke:#F0F0F0;stroke-width:9.72"/>
	<line x1="3075.64" y1="823.67" x2="3140.44" y2="823.67" style="stroke:#F0F0F0;stroke-width:9.72"/>
	<line x1="3172.84" y1="823.67" x2="3237.64" y2="823.67" style="stroke:#F0F0F0;stroke-width:9.72"/>
	<line x1="3270.04" y1="823.67" x2="3334.84" y2="823.67" style="stroke:#F0F0F0;stroke-width:9.72"/>
	<line x1="3367.24" y1="823.67" x2="3432.04" y2="823.67" style="stroke:#F0F0F0;stroke-width:9.72"/>
	<line x1="3464.44" y1="823.67" x2="3529.24" y2="823.67" style="stroke:#F0F0F0;stroke-width:9.72"/>
	<line x1="3561.64" y1="823.67" x2="3626.44" y2="823.67" style="stroke:#F0F0F0;stroke-width:9.72"/>
	<line x1="3658.84" y1="823.67" x2="3723.64" y2="823.67" style="stroke:#F0F0F0;stroke-width:9.72"/>
	<line x1="3756.04" y1="823.67" x2="3820.84" y2="823.67" style="stroke:#F0F0F0;stroke-width:9.72"/>
	<line x1="3853.24" y1="823.67" x2="3918.04" y2="823.67" style="stroke:#F0F0F0;stroke-width:9.72"/>
	<line x1="3950.44" y1="823.67" x2="4015.24" y2="823.67" style="stroke:#F0F0F0;stroke-width:9.72"/>
	<line x1="4047.64" y1="823.67" x2="4112.44" y2="823.67" style="stroke:#F0F0F0;stroke-width:9.72"/>
	<line x1="4144.84" y1="823.67" x2="4209.64" y2="823.67" style="stroke:#F0F0F0;stroke-width:9.72"/>
	<line x1="4242.04" y1="823.67" x2="4306.84" y2="823.67" style="stroke:#F0F0F0;stroke-width:9.72"/>
	<line x1="4339.24" y1="823.67" x2="4404.04" y2="823.67" style="stroke:#F0F0F0;stroke-width:9.72"/>
	<line x1="4436.44" y1="823.67" x2="4501.24" y2="823.67" style="stroke:#F0F0F0;stroke-width:9.72"/>
	<line x1="4533.64" y1="823.67" x2="4598.44" y2="823.67" style="stroke:#F0F0F0;stroke-width:9.72"/>
	<line x1="4630.84" y1="823.67" x2="4695.64" y2="823.67" style="stroke:#F0F0F0;stroke-width:9.72"/>
	<line x1="4728.04" y1="823.67" x2="4792.84" y2="823.67" style="stroke:#F0F0F0;stroke-width:9.72"/>
	<line x1="4825.24" y1="823.67" x2="4890.04" y2="823.67" style="stroke:#F0F0F0;stroke-width:9.72"/>
	<line x1="4922.44" y1="823.67" x2="4987.24" y2="823.67" style="stroke:#F0F0F0;stroke-width:9.72"/>
	<line x1="5019.64" y1="823.67" x2="5084.44" y2="823.67" style="stroke:#F0F0F0;stroke-width:9.72"/>
	<line x1="5116.84" y1="823.67" x2="5181.64" y2="823.67" style="stroke:#F0F0F0;stroke-width:9.72"/>
	<line x1="5214.04" y1="823.67" x2="5278.84" y2="823.67" style="stroke:#F0F0F0;stroke-width:9.72"/>
	<line x1="2133.17" y1="2811.54" x2="2133.17" y2="2746.74" style="stroke:#F0F0F0;stroke-width:9.72"/>
	<line x1="2133.17" y1="2714.34" x2="2133.17" y2="2649.54" style="stroke:#F0F0F0;stroke-width:9.72"/>
	<line x1="2133.17" y1="2617.14" x2="2133.17" y2="2552.34" style="stroke:#F0F0F0;stroke-width:9.72"/>
	<line x1="2133.17" y1="2519.94" x2="2133.17" y2="2455.14" style="stroke:#F0F0F0;stroke-width:9.72"/>
	<line x1="2133.17" y1="2422.74" x2="2133.17" y2="2357.94" style="stroke:#F0F0F0;stroke-width:9.72"/>
	<line x1="2133.17" y1="2325.54" x2="2133.17" y2="2260.74" style="stroke:#F0F0F0;stroke-width:9.72"/>
	<line x1="2133.17" y1="2228.34" x2="2133.17" y2="2163.54" style="stroke:#F0F0F0;stroke-width:9.72"/>
	<line x1="2133.17" y1="2131.14" x2="2133.17" y2="2066.34" style="stroke:#F0F0F0;stroke-width:9.72"/>
	<line x1="2133.17" y1="2033.94" x2="2133.17" y2="1969.14" style="stroke:#F0F0F0;stroke-width:9.72"/>
	<line x1="2133.17" y1="1936.74" x2="2133.17" y2="1871.94" style="stroke:#F0F0F0;stroke-width:9.72"/>
	<line x1="2133.17" y1="1839.54" x2="2133.17" y2="1774.74" style="stroke:#F0F0F0;stroke-width:9.72"/>
	<line x1="2133.17" y1="1742.34" x2="2133.17" y2="1677.54" style="stroke:#F0F0F0;stroke-width:9.72"/>
	<line x1="2133.17" y1="1645.14" x2="2133.17" y2="1580.34" style="stroke:#F0F0F0;stroke-width:9.72"/>
	<line x1="2133.17" y1="1547.94" x2="2133.17" y2="1483.14" style="stroke:#F0F0F0;stroke-width:9.72"/>
	<line x1="2133.17" y1="1450.74" x2="2133.17" y2="1385.94" style="stroke:#F0F0F0;stroke-width:9.72"/>
	<line x1="2133.17" y1="1353.54" x2="2133.17" y2="1288.74" style="stroke:#F0F0F0;stroke-width:9.72"/>
	<line x1="2133.17" y1="1256.34" x2="2133.17" y2="1191.54" style="stroke:#F0F0F0;stroke-width:9.72"/>
	<line x1="2133.17" y1="1159.14" x2="2133.17" y2="1094.34" style="stroke:#F0F0F0;stroke-width:9.72"/>
	<line x1="2133.17" y1="1061.94" x2="2133.17" y2="997.14" style="stroke:#F0F0F0;stroke-width:9.72"/>
	<line x1="2133.17" y1="964.74" x2="2133.17" y2="899.94" style="stroke:#F0F0F0;stroke-width:9.72"/>
	<line x1="2133.17" y1="867.54" x2="2133.17" y2="802.74" style="stroke:#F0F0F0;stroke-width:9.72"/>
	<line x1="2133.17" y1="770.34" x2="2133.17" y2="705.54" style="stroke:#F0F0F0;stroke-width:9.72"/>
	<line x1="2133.17" y1="673.14" x2="2133.17" y2="608.34" style="stroke:#F0F0F0;stroke-width:9.72"/>
	<line x1="2133.17" y1="575.94" x2="2133.17" y2="511.14" style="stroke:#F0F0F0;stroke-width:9.72"/>
	<line x1="2133.17" y1="478.74" x2="2133.17" y2="413.94" style="stroke:#F0F0F0;stroke-width:9.72"/>
	<line x1="2133.17" y1="381.54" x2="2133.17" y2="316.74" style="stroke:#F0F0F0;stroke-width:9.72"/>
	<line x1="2133.17" y1="284.34" x2="2133.17" y2="219.54" style="stroke:#F0F0F0;stroke-width:9.72"/>
	<line x1="2133.17" y1="187.14" x2="2133.17" y2="122.34" style="stroke:#F0F0F0;stroke-width:9.72"/>
	<line x1="4187.87" y1="2811.54" x2="4187.87" y2="2746.74" style="stroke:#F0F0F0;stroke-width:9.72"/>
	<line x1="4187.87" y1="2714.34" x2="4187.87" y2="2649.54" style="stroke:#F0F0F0;stroke-width:9.72"/>
	<line x1="4187.87" y1="2617.14" x2="4187.87" y2="2552.34" style="stroke:#F0F0F0;stroke-width:9.72"/>
	<line x1="4187.87" y1="2519.94" x2="4187.87" y2="2455.14" style="stroke:#F0F0F0;stroke-width:9.72"/>
	<line x1="4187.87" y1="2422.74" x2="4187.87" y2="2357.94" style="stroke:#F0F0F0;stroke-width:9.72"/>
	<line x1="4187.87" y1="2325.54" x2="4187.87" y2="2260.74" style="stroke:#F0F0F0;stroke-width:9.72"/>
	<line x1="4187.87" y1="2228.34" x2="4187.87" y2="2163.54" style="stroke:#F0F0F0;stroke-width:9.72"/>
	<line x1="4187.87" y1="2131.14" x2="4187.87" y2="2066.34" style="stroke:#F0F0F0;stroke-width:9.72"/>
	<line x1="4187.87" y1="2033.94" x2="4187.87" y2="1969.14" style="stroke:#F0F0F0;stroke-width:9.72"/>
	<line x1="4187.87" y1="1936.74" x2="4187.87" y2="1871.94" style="stroke:#F0F0F0;stroke-width:9.72"/>
	<line x1="4187.87" y1="1839.54" x2="4187.87" y2="1774.74" style="stroke:#F0F0F0;stroke-width:9.72"/>
	<line x1="4187.87" y1="1742.34" x2="4187.87" y2="1677.54" style="stroke:#F0F0F0;stroke-width:9.72"/>
	<line x1="4187.87" y1="1645.14" x2="4187.87" y2="1580.34" style="stroke:#F0F0F0;stroke-width:9.72"/>
	<line x1="4187.87" y1="1547.94" x2="4187.87" y2="1483.14" style="stroke:#F0F0F0;stroke-width:9.72"/>
	<line x1="4187.87" y1="1450.74" x2="4187.87" y2="1385.94" style="stroke:#F0F0F0;stroke-width:9.72"/>
	<line x1="4187.87" y1="1353.54" x2="4187.87" y2="1288.74" style="stroke:#F0F0F0;stroke-width:9.72"/>
	<line x1="4187.87" y1="1256.34" x2="4187.87" y2="1191.54" style="stroke:#F0F0F0;stroke-width:9.72"/>
	<line x1="4187.87" y1="1159.14" x2="4187.87" y2="1094.34" style="stroke:#F0F0F0;stroke-width:9.72"/>
	<line x1="4187.87" y1="1061.94" x2="4187.87" y2="997.14" style="stroke:#F0F0F0;stroke-width:9.72"/>
	<line x1="4187.87" y1="964.74" x2="4187.87" y2="899.94" style="stroke:#F0F0F0;stroke-width:9.72"/>
	<line x1="4187.87" y1="867.54" x2="4187.87" y2="802.74" style="stroke:#F0F0F0;stroke-width:9.72"/>
	<line x1="4187.87" y1="770.34" x2="4187.87" y2="705.54" style="stroke:#F0F0F0;stroke-width:9.72"/>
	<line x1="4187.87" y1="673.14" x2="4187.87" y2="608.34" style="stroke:#F0F0F0;stroke-width:9.72"/>
	<line x1="4187.87" y1="575.94" x2="4187.87" y2="511.14" style="stroke:#F0F0F0;stroke-width:9.72"/>
	<line x1="4187.87" y1="478.74" x2="4187.87" y2="413.94" style="stroke:#F0F0F0;stroke-width:9.72"/>
	<line x1="4187.87" y1="381.54" x2="4187.87" y2="316.74" style="stroke:#F0F0F0;stroke-width:9.72"/>
	<line x1="4187.87" y1="284.34" x2="4187.87" y2="219.54" style="stroke:#F0F0F0;stroke-width:9.72"/>
	<line x1="4187.87" y1="187.14" x2="4187.87" y2="122.34" style="stroke:#F0F0F0;stroke-width:9.72"/>
	<line x1="3160.52" y1="2811.54" x2="3160.52" y2="2746.74" style="stroke:#000000;stroke-width:9.72"/>
	<line x1="3160.52" y1="2714.34" x2="3160.52" y2="2649.54" style="stroke:#000000;stroke-width:9.72"/>
	<line x1="3160.52" y1="2617.14" x2="3160.52" y2="2552.34" style="stroke:#000000;stroke-width:9.72"/>
	<line x1="3160.52" y1="2519.94" x2="3160.52" y2="2455.14" style="stroke:#000000;stroke-width:9.72"/>
	<line x1="3160.52" y1="2422.74" x2="3160.52" y2="2357.94" style="stroke:#000000;stroke-width:9.72"/>
	<line x1="3160.52" y1="2325.54" x2="3160.52" y2="2260.74" style="stroke:#000000;stroke-width:9.72"/>
	<line x1="3160.52" y1="2228.34" x2="3160.52" y2="2163.54" style="stroke:#000000;stroke-width:9.72"/>
	<line x1="3160.52" y1="2131.14" x2="3160.52" y2="2066.34" style="stroke:#000000;stroke-width:9.72"/>
	<line x1="3160.52" y1="2033.94" x2="3160.52" y2="1969.14" style="stroke:#000000;stroke-width:9.72"/>
	<line x1="3160.52" y1="1936.74" x2="3160.52" y2="1871.94" style="stroke:#000000;stroke-width:9.72"/>
	<line x1="3160.52" y1="1839.54" x2="3160.52" y2="1774.74" style="stroke:#000000;stroke-width:9.72"/>
	<line x1="3160.52" y1="1742.34" x2="3160.52" y2="1677.54" style="stroke:#000000;stroke-width:9.72"/>
	<line x1="3160.52" y1="1645.14" x2="3160.52" y2="1580.34" style="stroke:#000000;stroke-width:9.72"/>
	<line x1="3160.52" y1="1547.94" x2="3160.52" y2="1483.14" style="stroke:#000000;stroke-width:9.72"/>
	<line x1="3160.52" y1="1450.74" x2="3160.52" y2="1385.94" style="stroke:#000000;stroke-width:9.72"/>
	<line x1="3160.52" y1="1353.54" x2="3160.52" y2="1288.74" style="stroke:#000000;stroke-width:9.72"/>
	<line x1="3160.52" y1="1256.34" x2="3160.52" y2="1191.54" style="stroke:#000000;stroke-width:9.72"/>
	<line x1="3160.52" y1="1159.14" x2="3160.52" y2="1094.34" style="stroke:#000000;stroke-width:9.72"/>
	<line x1="3160.52" y1="1061.94" x2="3160.52" y2="997.14" style="stroke:#000000;stroke-width:9.72"/>
	<line x1="3160.52" y1="964.74" x2="3160.52" y2="899.94" style="stroke:#000000;stroke-width:9.72"/>
	<line x1="3160.52" y1="867.54" x2="3160.52" y2="802.74" style="stroke:#000000;stroke-width:9.72"/>
	<line x1="3160.52" y1="770.34" x2="3160.52" y2="705.54" style="stroke:#000000;stroke-width:9.72"/>
	<line x1="3160.52" y1="673.14" x2="3160.52" y2="608.34" style="stroke:#000000;stroke-width:9.72"/>
	<line x1="3160.52" y1="575.94" x2="3160.52" y2="511.14" style="stroke:#000000;stroke-width:9.72"/>
	<line x1="3160.52" y1="478.74" x2="3160.52" y2="413.94" style="stroke:#000000;stroke-width:9.72"/>
	<line x1="3160.52" y1="381.54" x2="3160.52" y2="316.74" style="stroke:#000000;stroke-width:9.72"/>
	<line x1="3160.52" y1="284.34" x2="3160.52" y2="219.54" style="stroke:#000000;stroke-width:9.72"/>
	<line x1="3160.52" y1="187.14" x2="3160.52" y2="122.34" style="stroke:#000000;stroke-width:9.72"/>
	<line x1="1034.44" y1="1462.56" x2="1099.24" y2="1462.56" style="stroke:#000000;stroke-width:9.72"/>
	<line x1="1131.64" y1="1462.56" x2="1196.44" y2="1462.56" style="stroke:#000000;stroke-width:9.72"/>
	<line x1="1228.84" y1="1462.56" x2="1293.64" y2="1462.56" style="stroke:#000000;stroke-width:9.72"/>
	<line x1="1326.04" y1="1462.56" x2="1390.84" y2="1462.56" style="stroke:#000000;stroke-width:9.72"/>
	<line x1="1423.24" y1="1462.56" x2="1488.04" y2="1462.56" style="stroke:#000000;stroke-width:9.72"/>
	<line x1="1520.44" y1="1462.56" x2="1585.24" y2="1462.56" style="stroke:#000000;stroke-width:9.72"/>
	<line x1="1617.64" y1="1462.56" x2="1682.44" y2="1462.56" style="stroke:#000000;stroke-width:9.72"/>
	<line x1="1714.84" y1="1462.56" x2="1779.64" y2="1462.56" style="stroke:#000000;stroke-width:9.72"/>
	<line x1="1812.04" y1="1462.56" x2="1876.84" y2="1462.56" style="stroke:#000000;stroke-width:9.72"/>
	<line x1="1909.24" y1="1462.56" x2="1974.04" y2="1462.56" style="stroke:#000000;stroke-width:9.72"/>
	<line x1="2006.44" y1="1462.56" x2="2071.24" y2="1462.56" style="stroke:#000000;stroke-width:9.72"/>
	<line x1="2103.64" y1="1462.56" x2="2168.44" y2="1462.56" style="stroke:#000000;stroke-width:9.72"/>
	<line x1="2200.84" y1="1462.56" x2="2265.64" y2="1462.56" style="stroke:#000000;stroke-width:9.72"/>
	<line x1="2298.04" y1="1462.56" x2="2362.84" y2="1462.56" style="stroke:#000000;stroke-width:9.72"/>
	<line x1="2395.24" y1="1462.56" x2="2460.04" y2="1462.56" style="stroke:#000000;stroke-width:9.72"/>
	<line x1="2492.44" y1="1462.56" x2="2557.24" y2="1462.56" style="stroke:#000000;stroke-width:9.72"/>
	<line x1="2589.64" y1="1462.56" x2="2654.44" y2="1462.56" style="stroke:#000000;stroke-width:9.72"/>
	<line x1="2686.84" y1="1462.56" x2="2751.64" y2="1462.56" style="stroke:#000000;stroke-width:9.72"/>
	<line x1="2784.04" y1="1462.56" x2="2848.84" y2="1462.56" style="stroke:#000000;stroke-width:9.72"/>
	<line x1="2881.24" y1="1462.56" x2="2946.04" y2="1462.56" style="stroke:#000000;stroke-width:9.72"/>
	<line x1="2978.44" y1="1462.56" x2="3043.24" y2="1462.56" style="stroke:#000000;stroke-width:9.72"/>
	<line x1="3075.64" y1="1462.56" x2="3140.44" y2="1462.56" style="stroke:#000000;stroke-width:9.72"/>
	<line x1="3172.84" y1="1462.56" x2="3237.64" y2="1462.56" style="stroke:#000000;stroke-width:9.72"/>
	<line x1="3270.04" y1="1462.56" x2="3334.84" y2="1462.56" style="stroke:#000000;stroke-width:9.72"/>
	<line x1="3367.24" y1="1462.56" x2="3432.04" y2="1462.56" style="stroke:#000000;stroke-width:9.72"/>
	<line x1="3464.44" y1="1462.56" x2="3529.24" y2="1462.56" style="stroke:#000000;stroke-width:9.72"/>
	<line x1="3561.64" y1="1462.56" x2="3626.44" y2="1462.56" style="stroke:#000000;stroke-width:9.72"/>
	<line x1="3658.84" y1="1462.56" x2="3723.64" y2="1462.56" style="stroke:#000000;stroke-width:9.72"/>
	<line x1="3756.04" y1="1462.56" x2="3820.84" y2="1462.56" style="stroke:#000000;stroke-width:9.72"/>
	<line x1="3853.24" y1="1462.56" x2="3918.04" y2="1462.56" style="stroke:#000000;stroke-width:9.72"/>
	<line x1="3950.44" y1="1462.56" x2="4015.24" y2="1462.56" style="stroke:#000000;stroke-width:9.72"/>
	<line x1="4047.64" y1="1462.56" x2="4112.44" y2="1462.56" style="stroke:#000000;stroke-width:9.72"/>
	<line x1="4144.84" y1="1462.56" x2="4209.64" y2="1462.56" style="stroke:#000000;stroke-width:9.72"/>
	<line x1="4242.04" y1="1462.56" x2="4306.84" y2="1462.56" style="stroke:#000000;stroke-width:9.72"/>
	<line x1="4339.24" y1="1462.56" x2="4404.04" y2="1462.56" style="stroke:#000000;stroke-width:9.72"/>
	<line x1="4436.44" y1="1462.56" x2="4501.24" y2="1462.56" style="stroke:#000000;stroke-width:9.72"/>
	<line x1="4533.64" y1="1462.56" x2="4598.44" y2="1462.56" style="stroke:#000000;stroke-width:9.72"/>
	<line x1="4630.84" y1="1462.56" x2="4695.64" y2="1462.56" style="stroke:#000000;stroke-width:9.72"/>
	<line x1="4728.04" y1="1462.56" x2="4792.84" y2="1462.56" style="stroke:#000000;stroke-width:9.72"/>
	<line x1="4825.24" y1="1462.56" x2="4890.04" y2="1462.56" style="stroke:#000000;stroke-width:9.72"/>
	<line x1="4922.44" y1="1462.56" x2="4987.24" y2="1462.56" style="stroke:#000000;stroke-width:9.72"/>
	<line x1="5019.64" y1="1462.56" x2="5084.44" y2="1462.56" style="stroke:#000000;stroke-width:9.72"/>
	<line x1="5116.84" y1="1462.56" x2="5181.64" y2="1462.56" style="stroke:#000000;stroke-width:9.72"/>
	<line x1="5214.04" y1="1462.56" x2="5278.84" y2="1462.56" style="stroke:#000000;stroke-width:9.72"/>
	<path d="" stroke-linejoin="round" style="fill:none;stroke:#000000;stroke-opacity:0.00;stroke-width:0.00"/>
	<text x="2133.17" y="805.07" style="font-family:'Helvetica';font-size:123.69px;fill:#000000" text-anchor="middle">Potential involuntary immobility</text>
	<text x="2133.17" y="928.77" style="font-family:'Helvetica';font-size:123.69px;fill:#000000" text-anchor="middle">7.08%</text>
	<text x="4187.87" y="805.07" style="font-family:'Helvetica';font-size:123.69px;fill:#000000" text-anchor="middle">Potential mobility</text>
	<text x="4187.87" y="928.77" style="font-family:'Helvetica';font-size:123.69px;fill:#000000" text-anchor="middle">10.02%</text>
	<text x="2133.17" y="2082.85" style="font-family:'Helvetica';font-size:123.69px;fill:#000000" text-anchor="middle">Potential acquiescent immobility</text>
	<text x="2133.17" y="2206.54" style="font-family:'Helvetica';font-size:123.69px;fill:#000000" text-anchor="middle">38.56%</text>
	<text x="4187.87" y="2082.85" style="font-family:'Helvetica';font-size:123.69px;fill:#000000" text-anchor="middle">Potential voluntary immobility</text>
	<text x="4187.87" y="2206.54" style="font-family:'Helvetica';font-size:123.69px;fill:#000000" text-anchor="middle">44.34%</text>
	<line x1="1034.44" y1="2811.54" x2="1034.44" y2="113.40" style="stroke:#000000;stroke-width:6.48"/>
	<text x="1011.99" y="2140.88" style="font-family:'Helvetica';font-size:112.56px;fill:#000000" text-anchor="end">No aspiration</text>
	<text x="1011.99" y="863.11" style="font-family:'Helvetica';font-size:112.56px;fill:#000000" text-anchor="end">Aspiration</text>
	<text x="214.55" y="1462.56" style="font-family:'Helvetica';font-size:112.56px;fill:#000000" transform="rotate(-90 214.55,1462.56)" text-anchor="middle">Migration aspirations</text>
	<line x1="1034.44" y1="2811.54" x2="5286.60" y2="2811.54" style="stroke:#000000;stroke-width:6.48"/>
	<text x="2133.17" y="2912.86" style="font-family:'Helvetica';font-size:112.56px;fill:#000000" text-anchor="middle">Low capability</text>
	<text x="4187.87" y="2912.86" style="font-family:'Helvetica';font-size:112.56px;fill:#000000" text-anchor="middle">High capability</text>
	<text x="3160.52" y="3070.31" style="font-family:'Helvetica';font-size:112.56px;fill:#000000" text-anchor="middle">Mobility capability (employment proxy)</text>
</svg>
