<?xml version="1.0" encoding="UTF-8" standalone="no"?>
<!-- This is a Stata 19.5 generated SVG file (http://www.stata.com) -->

<svg version="1.1" width="2.000in" height="1.000in" viewBox="0 0 1440 720" xmlns="http://www.w3.org/2000/svg" xmlns:xlink="http://www.w3.org/1999/xlink">
	<desc>Stata Graph - Graph</desc>
	<rect x="0" y="0" width="1440" height="720" style="fill:#FFFFFF;stroke:none"/>
	<rect x="0.00" y="0.00" width="1440.00" height="720.00" style="fill:#FFFFFF"/>
	<rect x="1.50" y="1.50" width="1437.00" height="717.00" style="fill:none;stroke:#FFFFFF;stroke-width:3.00"/>
	<rect x="25.20" y="25.20" width="1389.60" height="669.60" style="fill:#FFFFFF"/>
	<rect x="26.70" y="26.70" width="1386.60" height="666.60" style="fill:none;stroke:#FFFFFF;stroke-width:3.00"/>
	<path d="
M93.51 439.70 L93.51 439.70 L110.03 439.70 L126.50 439.70 L142.97 439.70 L159.48 439.70 L175.95 439.70 L192.47 439.70 L208.94 439.70 L225.41 439.70 L241.92 439.70 L258.39 439.70 L274.86 439.70 L291.38 439.70 L307.85 439.65 L324.32 439.65 L340.83 439.61 L357.30 439.52 L373.77 439.38 L390.29 439.11 L406.76 438.66 L423.27 437.85 L439.74 436.37 L456.21 433.89 L472.73 429.71 L489.20 422.87 L505.67 411.89 L522.18 395.28 L538.65 371.79 L555.12 341.55 L571.64 306.95 L588.11 272.34 L604.58 242.10 L621.09 218.61 L637.56 202.01 L654.08 191.07 L670.55 184.18 L687.02 180.00 L703.53 177.52 L720.00 176.09 L736.47 175.23 L752.99 174.78 L769.46 174.51 L785.93 174.38 L802.44 174.28 L818.91 174.24 L835.43 174.24 L851.90 174.24 L868.37 174.20 L884.88 174.20 L901.35 174.20 L917.82 174.20 L934.34 174.20 L950.81 174.20 L967.28 174.20 L983.79 174.20 L1000.26 174.20 L1016.73 174.20 L1033.24 174.20 L1049.71 174.20 L1049.71 41.04 L1033.24 41.04 L1016.73 41.04 L1000.26 41.04 L983.79 41.04 L967.28 41.04 L950.81 41.04 L934.34 41.04 L917.82 41.04 L901.35 41.04 L884.88 41.04 L868.37 41.04 L851.90 41.04 L835.43 41.04 L818.91 41.09 L802.44 41.13 L785.93 41.22 L769.46 41.36 L752.99 41.63 L736.47 42.08 L720.00 42.88 L703.53 44.37 L687.02 46.85 L670.55 51.03 L654.08 57.87 L637.56 68.85 L621.09 85.46 L604.58 108.95 L588.11 139.18 L571.64 173.79 L555.12 208.40 L538.65 238.64 L522.18 262.13 L505.67 278.73 L489.20 289.67 L472.73 296.55 L456.21 300.74 L439.74 303.21 L423.27 304.65 L406.76 305.51 L390.29 305.96 L373.77 306.23 L357.30 306.36 L340.83 306.45 L324.32 306.50 L307.85 306.50 L291.38 306.50 L274.86 306.54 L258.39 306.54 L241.92 306.54 L225.41 306.54 L208.94 306.54 L192.47 306.54 L175.95 306.54 L159.48 306.54 L142.97 306.54 L126.50 306.54 L110.03 306.54 L93.51 306.54 L93.51 439.70 Z" stroke-linejoin="round" style="fill:#F8766D;fill-opacity:0.75;stroke:#000000;stroke-width:0.00"/>
	<path d="
M93.51 527.54 L93.51 527.54 L110.03 527.54 L126.50 527.54 L142.97 527.54 L159.48 527.54 L175.95 527.54 L192.47 527.54 L208.94 527.54 L225.41 527.54 L241.92 527.54 L258.39 527.54 L274.86 527.54 L291.38 527.54 L307.85 527.54 L324.32 527.54 L340.83 527.54 L357.30 527.54 L373.77 527.54 L390.29 527.54 L406.76 527.54 L423.27 527.54 L439.74 527.54 L456.21 527.54 L472.73 527.54 L489.20 527.54 L505.67 527.54 L522.18 527.54 L538.65 527.54 L555.12 527.54 L571.64 527.54 L588.11 527.54 L604.58 527.54 L621.09 527.54 L637.56 527.54 L654.08 527.54 L670.55 527.54 L687.02 527.54 L703.53 527.54 L720.00 527.54 L736.47 527.54 L752.99 527.54 L769.46 527.54 L785.93 527.54 L802.44 527.54 L818.91 527.54 L835.43 527.54 L851.90 527.54 L868.37 527.54 L884.88 527.54 L901.35 527.54 L917.82 527.54 L934.34 527.54 L950.81 527.54 L967.28 527.54 L983.79 527.54 L1000.26 527.54 L1016.73 527.54 L1033.24 527.54 L1049.71 527.54 L1049.71 439.70 L1033.24 439.70 L1016.73 439.70 L1000.26 439.70 L983.79 439.70 L967.28 439.70 L950.81 439.70 L934.34 439.70 L917.82 439.70 L901.35 439.70 L884.88 439.70 L868.37 439.70 L851.90 439.70 L835.43 439.70 L818.91 439.70 L802.44 439.70 L785.93 439.70 L769.46 439.70 L752.99 439.70 L736.47 439.70 L720.00 439.70 L703.53 439.70 L687.02 439.70 L670.55 439.70 L654.08 439.70 L637.56 439.70 L621.09 439.70 L604.58 439.70 L588.11 439.70 L571.64 439.70 L555.12 439.70 L538.65 439.70 L522.18 439.70 L505.67 439.70 L489.20 439.70 L472.73 439.70 L456.21 439.70 L439.74 439.70 L423.27 439.70 L406.76 439.70 L390.29 439.70 L373.77 439.70 L357.30 439.70 L340.83 439.70 L324.32 439.70 L307.85 439.70 L291.38 439.70 L274.86 439.70 L258.39 439.70 L241.92 439.70 L225.41 439.70 L208.94 439.70 L192.47 439.70 L175.95 439.70 L159.48 439.70 L142.97 439.70 L126.50 439.70 L110.03 439.70 L93.51 439.70 L93.51 527.54 Z" stroke-linejoin="round" style="fill:#F8766D;fill-opacity:0.75;stroke:#000000;stroke-width:0.00"/>
	<path d="
M93.51 648.59 L93.51 648.59 L110.03 648.59 L126.50 648.59 L142.97 648.59 L159.48 648.59 L175.95 648.59 L192.47 648.59 L208.94 648.59 L225.41 648.59 L241.92 648.59 L258.39 648.59 L274.86 648.59 L291.38 648.59 L307.85 648.59 L324.32 648.59 L340.83 648.59 L357.30 648.59 L373.77 648.59 L390.29 648.59 L406.76 648.59 L423.27 648.59 L439.74 648.59 L456.21 648.59 L472.73 648.59 L489.20 648.59 L505.67 648.59 L522.18 648.59 L538.65 648.59 L555.12 648.59 L571.64 648.59 L588.11 648.59 L604.58 648.59 L621.09 648.59 L637.56 648.59 L654.08 648.59 L670.55 648.59 L687.02 648.59 L703.53 648.59 L720.00 648.59 L736.47 648.59 L752.99 648.59 L769.46 648.59 L785.93 648.59 L802.44 648.59 L818.91 648.59 L835.43 648.59 L851.90 648.59 L868.37 648.59 L884.88 648.59 L901.35 648.59 L917.82 648.59 L934.34 648.59 L950.81 648.59 L967.28 648.59 L983.79 648.59 L1000.26 648.59 L1016.73 648.59 L1033.24 648.59 L1049.71 648.59 L1049.71 638.19 L1033.24 638.19 L1016.73 638.19 L1000.26 638.19 L983.79 638.19 L967.28 638.19 L950.81 638.19 L934.34 638.19 L917.82 638.19 L901.35 638.19 L884.88 638.19 L868.37 638.19 L851.90 638.19 L835.43 638.19 L818.91 638.19 L802.44 638.19 L785.93 638.19 L769.46 638.19 L752.99 638.19 L736.47 638.19 L720.00 638.19 L703.53 638.19 L687.02 638.19 L670.55 638.19 L654.08 638.19 L637.56 638.19 L621.09 638.19 L604.58 638.19 L588.11 638.19 L571.64 638.19 L555.12 638.19 L538.65 638.19 L522.18 638.19 L505.67 638.19 L489.20 638.19 L472.73 638.19 L456.21 638.19 L439.74 638.19 L423.27 638.19 L406.76 638.19 L390.29 638.19 L373.77 638.19 L357.30 638.19 L340.83 638.19 L324.32 638.19 L307.85 638.19 L291.38 638.19 L274.86 638.19 L258.39 638.19 L241.92 638.19 L225.41 638.19 L208.94 638.19 L192.47 638.19 L175.95 638.19 L159.48 638.19 L142.97 638.19 L126.50 638.19 L110.03 638.19 L93.51 638.19 L93.51 648.59 Z" stroke-linejoin="round" style="fill:#7CAE00;fill-opacity:0.75;stroke:#000000;stroke-width:0.00"/>
	<path d="
M93.51 638.19 L93.51 638.19 L110.03 638.19 L126.50 638.19 L142.97 638.19 L159.48 638.19 L175.95 638.19 L192.47 638.19 L208.94 638.19 L225.41 638.19 L241.92 638.19 L258.39 638.19 L274.86 638.19 L291.38 638.19 L307.85 638.19 L324.32 638.19 L340.83 638.19 L357.30 638.19 L373.77 638.15 L390.29 638.15 L406.76 638.10 L423.27 638.01 L439.74 637.83 L456.21 637.61 L472.73 637.16 L489.20 636.43 L505.67 635.31 L522.18 633.60 L538.65 631.17 L555.12 628.02 L571.64 624.42 L588.11 620.87 L604.58 617.72 L621.09 615.29 L637.56 613.58 L654.08 612.41 L670.55 611.73 L687.02 611.28 L703.53 611.01 L720.00 610.88 L736.47 610.79 L752.99 610.74 L769.46 610.69 L785.93 610.69 L802.44 610.69 L818.91 610.69 L835.43 610.69 L851.90 610.69 L868.37 610.69 L884.88 610.69 L901.35 610.69 L917.82 610.69 L934.34 610.69 L950.81 610.69 L967.28 610.69 L983.79 610.69 L1000.26 610.69 L1016.73 610.69 L1033.24 610.69 L1049.71 610.69 L1049.71 580.46 L1033.24 580.46 L1016.73 580.46 L1000.26 580.46 L983.79 580.46 L967.28 580.46 L950.81 580.46 L934.34 580.46 L917.82 580.46 L901.35 580.46 L884.88 580.46 L868.37 580.46 L851.90 580.46 L835.43 580.46 L818.91 580.46 L802.44 580.46 L785.93 580.46 L769.46 580.50 L752.99 580.50 L736.47 580.54 L720.00 580.64 L703.53 580.82 L687.02 581.04 L670.55 581.49 L654.08 582.21 L637.56 583.34 L621.09 585.04 L604.58 587.48 L588.11 590.63 L571.64 594.23 L555.12 597.78 L538.65 600.93 L522.18 603.36 L505.67 605.07 L489.20 606.19 L472.73 606.92 L456.21 607.37 L439.74 607.64 L423.27 607.77 L406.76 607.86 L390.29 607.91 L373.77 607.95 L357.30 607.95 L340.83 607.95 L324.32 607.95 L307.85 607.95 L291.38 607.95 L274.86 607.95 L258.39 607.95 L241.92 607.95 L225.41 607.95 L208.94 607.95 L192.47 607.95 L175.95 607.95 L159.48 607.95 L142.97 607.95 L126.50 607.95 L110.03 607.95 L93.51 607.95 L93.51 638.19 Z" stroke-linejoin="round" style="fill:#7CAE00;fill-opacity:0.75;stroke:#000000;stroke-width:0.00"/>
	<path d="
M93.51 169.65 L93.51 169.65 L110.03 169.65 L126.50 169.65 L142.97 169.65 L159.48 169.65 L175.95 169.65 L192.47 169.65 L208.94 169.65 L225.41 169.65 L241.92 169.65 L258.39 169.65 L274.86 169.65 L291.38 169.65 L307.85 169.70 L324.32 169.70 L340.83 169.70 L357.30 169.74 L373.77 169.83 L390.29 169.97 L406.76 170.19 L423.27 170.60 L439.74 171.32 L456.21 172.58 L472.73 174.65 L489.20 178.11 L505.67 183.60 L522.18 191.92 L538.65 203.72 L555.12 218.88 L571.64 236.25 L588.11 253.62 L604.58 268.79 L621.09 280.58 L637.56 288.90 L654.08 294.39 L670.55 297.86 L687.02 299.93 L703.53 301.19 L720.00 301.90 L736.47 302.31 L752.99 302.54 L769.46 302.67 L785.93 302.76 L802.44 302.81 L818.91 302.81 L835.43 302.81 L851.90 302.85 L868.37 302.85 L884.88 302.85 L901.35 302.85 L917.82 302.85 L934.34 302.85 L950.81 302.85 L967.28 302.85 L983.79 302.85 L1000.26 302.85 L1016.73 302.85 L1033.24 302.85 L1049.71 302.85 L1049.71 174.20 L1033.24 174.20 L1016.73 174.20 L1000.26 174.20 L983.79 174.20 L967.28 174.20 L950.81 174.20 L934.34 174.20 L917.82 174.20 L901.35 174.20 L884.88 174.20 L868.37 174.20 L851.90 174.20 L835.43 174.20 L818.91 174.20 L802.44 174.15 L785.93 174.15 L769.46 174.06 L752.99 173.92 L736.47 173.70 L720.00 173.29 L703.53 172.53 L687.02 171.32 L670.55 169.20 L654.08 165.78 L637.56 160.25 L621.09 151.92 L604.58 140.17 L588.11 124.97 L571.64 107.64 L555.12 90.27 L538.65 75.11 L522.18 63.32 L505.67 54.99 L489.20 49.50 L472.73 46.03 L456.21 43.97 L439.74 42.71 L423.27 41.99 L406.76 41.58 L390.29 41.31 L373.77 41.17 L357.30 41.13 L340.83 41.09 L324.32 41.04 L307.85 41.04 L291.38 41.04 L274.86 41.04 L258.39 41.04 L241.92 41.04 L225.41 41.04 L208.94 41.04 L192.47 41.04 L175.95 41.04 L159.48 41.04 L142.97 41.04 L126.50 41.04 L110.03 41.04 L93.51 41.04 L93.51 169.65 Z" stroke-linejoin="round" style="fill:#00BFC4;fill-opacity:0.75;stroke:#000000;stroke-width:0.00"/>
	<path d="
M93.51 295.07 L93.51 295.07 L110.03 295.07 L126.50 295.07 L142.97 295.07 L159.48 295.07 L175.95 295.07 L192.47 295.07 L208.94 295.07 L225.41 295.07 L241.92 295.07 L258.39 295.07 L274.86 295.07 L291.38 295.07 L307.85 295.07 L324.32 295.07 L340.83 295.11 L357.30 295.15 L373.77 295.25 L390.29 295.38 L406.76 295.61 L423.27 296.06 L439.74 296.87 L456.21 298.21 L472.73 300.51 L489.20 304.25 L505.67 310.19 L522.18 319.23 L538.65 332.06 L555.12 348.53 L571.64 367.38 L588.11 386.24 L604.58 402.71 L621.09 415.49 L637.56 424.53 L654.08 430.52 L670.55 434.25 L687.02 436.55 L703.53 437.90 L720.00 438.66 L736.47 439.11 L752.99 439.38 L769.46 439.52 L785.93 439.61 L802.44 439.65 L818.91 439.65 L835.43 439.70 L851.90 439.70 L868.37 439.70 L884.88 439.70 L901.35 439.70 L917.82 439.70 L934.34 439.70 L950.81 439.70 L967.28 439.70 L983.79 439.70 L1000.26 439.70 L1016.73 439.70 L1033.24 439.70 L1049.71 439.70 L1049.71 314.28 L1033.24 314.28 L1016.73 314.28 L1000.26 314.28 L983.79 314.28 L967.28 314.28 L950.81 314.28 L934.34 314.28 L917.82 314.28 L901.35 314.28 L884.88 314.28 L868.37 314.28 L851.90 314.28 L835.43 314.28 L818.91 314.28 L802.44 314.24 L785.93 314.19 L769.46 314.15 L752.99 314.01 L736.47 313.74 L720.00 313.29 L703.53 312.48 L687.02 311.13 L670.55 308.88 L654.08 305.10 L637.56 299.16 L621.09 290.12 L604.58 277.29 L588.11 260.82 L571.64 241.96 L555.12 223.15 L538.65 206.64 L522.18 193.86 L505.67 184.82 L489.20 178.83 L472.73 175.10 L456.21 172.80 L439.74 171.45 L423.27 170.68 L406.76 170.24 L390.29 169.97 L373.77 169.83 L357.30 169.74 L340.83 169.70 L324.32 169.70 L307.85 169.70 L291.38 169.65 L274.86 169.65 L258.39 169.65 L241.92 169.65 L225.41 169.65 L208.94 169.65 L192.47 169.65 L175.95 169.65 L159.48 169.65 L142.97 169.65 L126.50 169.65 L110.03 169.65 L93.51 169.65 L93.51 295.07 Z" stroke-linejoin="round" style="fill:#00BFC4;fill-opacity:0.75;stroke:#000000;stroke-width:0.00"/>
	<path d="
M93.51 596.48 L93.51 596.48 L110.03 596.48 L126.50 596.48 L142.97 596.48 L159.48 596.48 L175.95 596.48 L192.47 596.48 L208.94 596.48 L225.41 596.48 L241.92 596.48 L258.39 596.48 L274.86 596.48 L291.38 596.52 L307.85 596.52 L324.32 596.52 L340.83 596.52 L357.30 596.52 L373.77 596.57 L390.29 596.57 L406.76 596.66 L423.27 596.79 L439.74 597.02 L456.21 597.42 L472.73 598.05 L489.20 599.13 L505.67 600.84 L522.18 603.45 L538.65 607.14 L555.12 611.91 L571.64 617.36 L588.11 622.76 L604.58 627.53 L621.09 631.22 L637.56 633.83 L654.08 635.54 L670.55 636.62 L687.02 637.29 L703.53 637.65 L720.00 637.88 L736.47 638.01 L752.99 638.10 L769.46 638.15 L785.93 638.15 L802.44 638.19 L818.91 638.19 L835.43 638.19 L851.90 638.19 L868.37 638.19 L884.88 638.19 L901.35 638.19 L917.82 638.19 L934.34 638.19 L950.81 638.19 L967.28 638.19 L983.79 638.19 L1000.26 638.19 L1016.73 638.19 L1033.24 638.19 L1049.71 638.19 L1049.71 622.13 L1033.24 622.13 L1016.73 622.13 L1000.26 622.13 L983.79 622.13 L967.28 622.13 L950.81 622.13 L934.34 622.13 L917.82 622.13 L901.35 622.13 L884.88 622.13 L868.37 622.13 L851.90 622.13 L835.43 622.13 L818.91 622.13 L802.44 622.13 L785.93 622.13 L769.46 622.08 L752.99 622.04 L736.47 621.99 L720.00 621.86 L703.53 621.63 L687.02 621.23 L670.55 620.60 L654.08 619.52 L637.56 617.76 L621.09 615.15 L604.58 611.46 L588.11 606.74 L571.64 601.29 L555.12 595.85 L538.65 591.12 L522.18 587.43 L505.67 584.82 L489.20 583.11 L472.73 582.03 L456.21 581.36 L439.74 580.95 L423.27 580.73 L406.76 580.64 L390.29 580.54 L373.77 580.50 L357.30 580.46 L340.83 580.46 L324.32 580.46 L307.85 580.46 L291.38 580.46 L274.86 580.46 L258.39 580.46 L241.92 580.46 L225.41 580.46 L208.94 580.46 L192.47 580.46 L175.95 580.46 L159.48 580.46 L142.97 580.46 L126.50 580.46 L110.03 580.46 L93.51 580.46 L93.51 596.48 Z" stroke-linejoin="round" style="fill:#C77CFF;fill-opacity:0.75;stroke:#000000;stroke-width:0.00"/>
	<path d="
M93.51 580.46 L93.51 580.46 L110.03 580.46 L126.50 580.46 L142.97 580.46 L159.48 580.46 L175.95 580.46 L192.47 580.46 L208.94 580.46 L225.41 580.46 L241.92 580.46 L258.39 580.46 L274.86 580.46 L291.38 580.46 L307.85 580.46 L324.32 580.46 L340.83 580.46 L357.30 580.46 L373.77 580.46 L390.29 580.46 L406.76 580.46 L423.27 580.46 L439.74 580.46 L456.21 580.46 L472.73 580.46 L489.20 580.46 L505.67 580.46 L522.18 580.46 L538.65 580.46 L555.12 580.46 L571.64 580.46 L588.11 580.46 L604.58 580.46 L621.09 580.46 L637.56 580.46 L654.08 580.46 L670.55 580.46 L687.02 580.46 L703.53 580.46 L720.00 580.46 L736.47 580.46 L752.99 580.46 L769.46 580.46 L785.93 580.46 L802.44 580.46 L818.91 580.46 L835.43 580.46 L851.90 580.46 L868.37 580.46 L884.88 580.46 L901.35 580.46 L917.82 580.46 L934.34 580.46 L950.81 580.46 L967.28 580.46 L983.79 580.46 L1000.26 580.46 L1016.73 580.46 L1033.24 580.46 L1049.71 580.46 L1049.71 538.97 L1033.24 538.97 L1016.73 538.97 L1000.26 538.97 L983.79 538.97 L967.28 538.97 L950.81 538.97 L934.34 538.97 L917.82 538.97 L901.35 538.97 L884.88 538.97 L868.37 538.97 L851.90 538.97 L835.43 538.97 L818.91 538.97 L802.44 538.97 L785.93 538.97 L769.46 538.97 L752.99 538.97 L736.47 538.97 L720.00 538.97 L703.53 538.97 L687.02 538.97 L670.55 538.97 L654.08 538.97 L637.56 538.97 L621.09 538.97 L604.58 538.97 L588.11 538.97 L571.64 538.97 L555.12 538.97 L538.65 538.97 L522.18 538.97 L505.67 538.97 L489.20 538.97 L472.73 538.97 L456.21 538.97 L439.74 538.97 L423.27 538.97 L406.76 538.97 L390.29 538.97 L373.77 538.97 L357.30 538.97 L340.83 538.97 L324.32 538.97 L307.85 538.97 L291.38 538.97 L274.86 538.97 L258.39 538.97 L241.92 538.97 L225.41 538.97 L208.94 538.97 L192.47 538.97 L175.95 538.97 L159.48 538.97 L142.97 538.97 L126.50 538.97 L110.03 538.97 L93.51 538.97 L93.51 580.46 Z" stroke-linejoin="round" style="fill:#C77CFF;fill-opacity:0.75;stroke:#000000;stroke-width:0.00"/>
	<line x1="77.04" y1="306.54" x2="77.04" y2="527.54" style="stroke:#F8766D;stroke-width:23.04"/>
	<line x1="1066.23" y1="41.04" x2="1066.23" y2="302.85" style="stroke:#F8766D;stroke-width:23.04"/>
	<line x1="77.04" y1="607.95" x2="77.04" y2="648.59" style="stroke:#7CAE00;stroke-width:23.04"/>
	<line x1="1066.23" y1="622.13" x2="1066.23" y2="648.59" style="stroke:#7CAE00;stroke-width:23.04"/>
	<line x1="77.04" y1="41.04" x2="77.04" y2="295.07" style="stroke:#00BFC4;stroke-width:23.04"/>
	<line x1="1066.23" y1="314.28" x2="1066.23" y2="527.54" style="stroke:#00BFC4;stroke-width:23.04"/>
	<line x1="1066.23" y1="538.97" x2="1066.23" y2="610.69" style="stroke:#C77CFF;stroke-width:23.04"/>
	<line x1="77.04" y1="538.97" x2="77.04" y2="596.48" style="stroke:#C77CFF;stroke-width:23.04"/>
	<text x="84.38" y="424.59" style="font-family:'Helvetica';font-size:21.60px;fill:#000000">Acquiescent immobility (7,589)</text>
	<text x="84.38" y="635.86" style="font-family:'Helvetica';font-size:21.60px;fill:#000000">Involuntary immobility (1,395)</text>
	<text x="84.38" y="175.60" style="font-family:'Helvetica';font-size:21.60px;fill:#000000">Voluntary immobility (8,723)</text>
	<text x="84.38" y="575.29" style="font-family:'Helvetica';font-size:21.60px;fill:#000000">Mobility (1,975)</text>
	<text x="1073.57" y="179.52" style="font-family:'Helvetica';font-size:21.60px;fill:#000000">Acquiescent immobility (8,990)</text>
	<text x="1073.57" y="582.40" style="font-family:'Helvetica';font-size:21.60px;fill:#000000">Mobility (2,462)</text>
	<text x="1073.57" y="428.50" style="font-family:'Helvetica';font-size:21.60px;fill:#000000">Voluntary immobility (7,322)</text>
	<text x="1073.57" y="642.93" style="font-family:'Helvetica';font-size:21.60px;fill:#000000">Involuntary immobility (908)</text>
	<text x="77.04" y="685.27" style="font-family:'Helvetica';font-weight:bold;font-size:18.00px;fill:#000000" text-anchor="middle">Employment</text>
	<text x="1066.19" y="685.27" style="font-family:'Helvetica';font-weight:bold;font-size:18.00px;fill:#000000" text-anchor="middle">Education
(secondary)</text>
</svg>
