<?xml version="1.0" encoding="UTF-8" standalone="no"?>
<!-- This is a Stata 19.5 generated SVG file (http://www.stata.com) -->

<svg version="1.1" width="2.000in" height="1.000in" viewBox="0 0 1440 720" xmlns="http://www.w3.org/2000/svg" xmlns:xlink="http://www.w3.org/1999/xlink">
	<desc>Stata Graph - Graph</desc>
	<rect x="0" y="0" width="1440" height="720" style="fill:#FFFFFF;stroke:none"/>
	<rect x="0.00" y="0.00" width="1440.00" height="720.00" style="fill:#FFFFFF"/>
	<rect x="1.50" y="1.50" width="1437.00" height="717.00" style="fill:none;stroke:#FFFFFF;stroke-width:3.00"/>
	<rect x="25.20" y="25.20" width="1389.60" height="669.60" style="fill:#FFFFFF"/>
	<rect x="26.70" y="26.70" width="1386.60" height="666.60" style="fill:none;stroke:#FFFFFF;stroke-width:3.00"/>
	<path d="
M93.51 517.86 L93.51 517.86 L110.03 517.86 L126.50 517.86 L142.97 517.86 L159.48 517.86 L175.95 517.86 L192.47 517.86 L208.94 517.86 L225.41 517.86 L241.92 517.86 L258.39 517.86 L274.86 517.86 L291.38 517.86 L307.85 517.86 L324.32 517.86 L340.83 517.86 L357.30 517.86 L373.77 517.82 L390.29 517.77 L406.76 517.73 L423.27 517.64 L439.74 517.46 L456.21 517.10 L472.73 516.56 L489.20 515.70 L505.67 514.26 L522.18 512.15 L538.65 509.09 L555.12 505.17 L571.64 500.72 L588.11 496.22 L604.58 492.30 L621.09 489.29 L637.56 487.13 L654.08 485.73 L670.55 484.83 L687.02 484.29 L703.53 483.98 L720.00 483.79 L736.47 483.66 L752.99 483.62 L769.46 483.57 L785.93 483.57 L802.44 483.57 L818.91 483.57 L835.43 483.53 L851.90 483.53 L868.37 483.53 L884.88 483.53 L901.35 483.53 L917.82 483.53 L934.34 483.53 L950.81 483.53 L967.28 483.53 L983.79 483.53 L1000.26 483.53 L1016.73 483.53 L1033.24 483.53 L1049.71 483.53 L1049.71 272.30 L1033.24 272.30 L1016.73 272.30 L1000.26 272.30 L983.79 272.30 L967.28 272.30 L950.81 272.30 L934.34 272.30 L917.82 272.30 L901.35 272.30 L884.88 272.30 L868.37 272.30 L851.90 272.30 L835.43 272.30 L818.91 272.30 L802.44 272.34 L785.93 272.34 L769.46 272.34 L752.99 272.39 L736.47 272.43 L720.00 272.57 L703.53 272.75 L687.02 273.06 L670.55 273.60 L654.08 274.50 L637.56 275.90 L621.09 278.06 L604.58 281.07 L588.11 284.99 L571.64 289.49 L555.12 293.94 L538.65 297.86 L522.18 300.87 L505.67 303.03 L489.20 304.47 L472.73 305.33 L456.21 305.87 L439.74 306.18 L423.27 306.40 L406.76 306.50 L390.29 306.54 L373.77 306.58 L357.30 306.63 L340.83 306.63 L324.32 306.63 L307.85 306.63 L291.38 306.63 L274.86 306.63 L258.39 306.63 L241.92 306.63 L225.41 306.63 L208.94 306.63 L192.47 306.63 L175.95 306.63 L159.48 306.63 L142.97 306.63 L126.50 306.63 L110.03 306.63 L93.51 306.63 L93.51 517.86 Z" stroke-linejoin="round" style="fill:#F8766D;fill-opacity:0.75;stroke:#000000;stroke-width:0.00"/>
	<path d="
M93.51 527.67 L93.51 527.67 L110.03 527.67 L126.50 527.67 L142.97 527.67 L159.48 527.67 L175.95 527.67 L192.47 527.67 L208.94 527.67 L225.41 527.67 L241.92 527.67 L258.39 527.67 L274.86 527.67 L291.38 527.67 L307.85 527.67 L324.32 527.67 L340.83 527.67 L357.30 527.72 L373.77 527.76 L390.29 527.85 L406.76 528.03 L423.27 528.30 L439.74 528.79 L456.21 529.69 L472.73 531.14 L489.20 533.57 L505.67 537.39 L522.18 543.19 L538.65 551.48 L555.12 562.05 L571.64 574.20 L588.11 586.31 L604.58 596.92 L621.09 605.16 L637.56 611.01 L654.08 614.84 L670.55 617.27 L687.02 618.71 L703.53 619.56 L720.00 620.10 L736.47 620.37 L752.99 620.55 L769.46 620.64 L785.93 620.68 L802.44 620.73 L818.91 620.73 L835.43 620.73 L851.90 620.73 L868.37 620.73 L884.88 620.73 L901.35 620.73 L917.82 620.73 L934.34 620.73 L950.81 620.73 L967.28 620.73 L983.79 620.73 L1000.26 620.73 L1016.73 620.73 L1033.24 620.73 L1049.71 620.73 L1049.71 610.97 L1033.24 610.97 L1016.73 610.97 L1000.26 610.97 L983.79 610.97 L967.28 610.97 L950.81 610.97 L934.34 610.97 L917.82 610.97 L901.35 610.97 L884.88 610.97 L868.37 610.97 L851.90 610.97 L835.43 610.97 L818.91 610.92 L802.44 610.92 L785.93 610.92 L769.46 610.83 L752.99 610.74 L736.47 610.61 L720.00 610.29 L703.53 609.79 L687.02 608.94 L670.55 607.46 L654.08 605.03 L637.56 601.20 L621.09 595.40 L604.58 587.16 L588.11 576.54 L571.64 564.39 L555.12 552.29 L538.65 541.67 L522.18 533.43 L505.67 527.63 L489.20 523.76 L472.73 521.37 L456.21 519.89 L439.74 519.03 L423.27 518.54 L406.76 518.22 L390.29 518.04 L373.77 517.95 L357.30 517.91 L340.83 517.91 L324.32 517.86 L307.85 517.86 L291.38 517.86 L274.86 517.86 L258.39 517.86 L241.92 517.86 L225.41 517.86 L208.94 517.86 L192.47 517.86 L175.95 517.86 L159.48 517.86 L142.97 517.86 L126.50 517.86 L110.03 517.86 L93.51 517.86 L93.51 527.67 Z" stroke-linejoin="round" style="fill:#F8766D;fill-opacity:0.75;stroke:#000000;stroke-width:0.00"/>
	<path d="
M93.51 643.23 L93.51 643.23 L110.03 643.23 L126.50 643.23 L142.97 643.23 L159.48 643.23 L175.95 643.23 L192.47 643.23 L208.94 643.23 L225.41 643.23 L241.92 643.23 L258.39 643.23 L274.86 643.23 L291.38 643.23 L307.85 643.18 L324.32 643.18 L340.83 643.18 L357.30 643.18 L373.77 643.14 L390.29 643.05 L406.76 642.96 L423.27 642.74 L439.74 642.38 L456.21 641.75 L472.73 640.71 L489.20 639.00 L505.67 636.26 L522.18 632.07 L538.65 626.17 L555.12 618.62 L571.64 609.93 L588.11 601.25 L604.58 593.68 L621.09 587.79 L637.56 583.61 L654.08 580.86 L670.55 579.15 L687.02 578.07 L703.53 577.49 L720.00 577.13 L736.47 576.90 L752.99 576.77 L769.46 576.72 L785.93 576.67 L802.44 576.67 L818.91 576.63 L835.43 576.63 L851.90 576.63 L868.37 576.63 L884.88 576.63 L901.35 576.63 L917.82 576.63 L934.34 576.63 L950.81 576.63 L967.28 576.63 L983.79 576.63 L1000.26 576.63 L1016.73 576.63 L1033.24 576.63 L1049.71 576.63 L1049.71 541.40 L1033.24 541.40 L1016.73 541.40 L1000.26 541.40 L983.79 541.40 L967.28 541.40 L950.81 541.40 L934.34 541.40 L917.82 541.40 L901.35 541.40 L884.88 541.40 L868.37 541.40 L851.90 541.40 L835.43 541.44 L818.91 541.44 L802.44 541.44 L785.93 541.44 L769.46 541.49 L752.99 541.58 L736.47 541.67 L720.00 541.89 L703.53 542.25 L687.02 542.88 L670.55 543.92 L654.08 545.63 L637.56 548.37 L621.09 552.56 L604.58 558.45 L588.11 566.01 L571.64 574.69 L555.12 583.38 L538.65 590.94 L522.18 596.84 L505.67 601.02 L489.20 603.77 L472.73 605.48 L456.21 606.56 L439.74 607.14 L423.27 607.50 L406.76 607.73 L390.29 607.86 L373.77 607.91 L357.30 607.95 L340.83 607.95 L324.32 608.00 L307.85 608.00 L291.38 608.00 L274.86 608.00 L258.39 608.00 L241.92 608.00 L225.41 608.00 L208.94 608.00 L192.47 608.00 L175.95 608.00 L159.48 608.00 L142.97 608.00 L126.50 608.00 L110.03 608.00 L93.51 608.00 L93.51 643.23 Z" stroke-linejoin="round" style="fill:#7CAE00;fill-opacity:0.75;stroke:#000000;stroke-width:0.00"/>
	<path d="
M93.51 648.59 L93.51 648.59 L110.03 648.59 L126.50 648.59 L142.97 648.59 L159.48 648.59 L175.95 648.59 L192.47 648.59 L208.94 648.59 L225.41 648.59 L241.92 648.59 L258.39 648.59 L274.86 648.59 L291.38 648.59 L307.85 648.59 L324.32 648.59 L340.83 648.59 L357.30 648.59 L373.77 648.59 L390.29 648.59 L406.76 648.59 L423.27 648.59 L439.74 648.59 L456.21 648.59 L472.73 648.59 L489.20 648.59 L505.67 648.59 L522.18 648.59 L538.65 648.59 L555.12 648.59 L571.64 648.59 L588.11 648.59 L604.58 648.59 L621.09 648.59 L637.56 648.59 L654.08 648.59 L670.55 648.59 L687.02 648.59 L703.53 648.59 L720.00 648.59 L736.47 648.59 L752.99 648.59 L769.46 648.59 L785.93 648.59 L802.44 648.59 L818.91 648.59 L835.43 648.59 L851.90 648.59 L868.37 648.59 L884.88 648.59 L901.35 648.59 L917.82 648.59 L934.34 648.59 L950.81 648.59 L967.28 648.59 L983.79 648.59 L1000.26 648.59 L1016.73 648.59 L1033.24 648.59 L1049.71 648.59 L1049.71 643.23 L1033.24 643.23 L1016.73 643.23 L1000.26 643.23 L983.79 643.23 L967.28 643.23 L950.81 643.23 L934.34 643.23 L917.82 643.23 L901.35 643.23 L884.88 643.23 L868.37 643.23 L851.90 643.23 L835.43 643.23 L818.91 643.23 L802.44 643.23 L785.93 643.23 L769.46 643.23 L752.99 643.23 L736.47 643.23 L720.00 643.23 L703.53 643.23 L687.02 643.23 L670.55 643.23 L654.08 643.23 L637.56 643.23 L621.09 643.23 L604.58 643.23 L588.11 643.23 L571.64 643.23 L555.12 643.23 L538.65 643.23 L522.18 643.23 L505.67 643.23 L489.20 643.23 L472.73 643.23 L456.21 643.23 L439.74 643.23 L423.27 643.23 L406.76 643.23 L390.29 643.23 L373.77 643.23 L357.30 643.23 L340.83 643.23 L324.32 643.23 L307.85 643.23 L291.38 643.23 L274.86 643.23 L258.39 643.23 L241.92 643.23 L225.41 643.23 L208.94 643.23 L192.47 643.23 L175.95 643.23 L159.48 643.23 L142.97 643.23 L126.50 643.23 L110.03 643.23 L93.51 643.23 L93.51 648.59 Z" stroke-linejoin="round" style="fill:#7CAE00;fill-opacity:0.75;stroke:#000000;stroke-width:0.00"/>
	<path d="
M93.51 272.30 L93.51 272.30 L110.03 272.30 L126.50 272.30 L142.97 272.30 L159.48 272.30 L175.95 272.30 L192.47 272.30 L208.94 272.30 L225.41 272.30 L241.92 272.30 L258.39 272.30 L274.86 272.30 L291.38 272.30 L307.85 272.30 L324.32 272.30 L340.83 272.30 L357.30 272.30 L373.77 272.30 L390.29 272.30 L406.76 272.30 L423.27 272.30 L439.74 272.30 L456.21 272.30 L472.73 272.30 L489.20 272.30 L505.67 272.30 L522.18 272.30 L538.65 272.30 L555.12 272.30 L571.64 272.30 L588.11 272.30 L604.58 272.30 L621.09 272.30 L637.56 272.30 L654.08 272.30 L670.55 272.30 L687.02 272.30 L703.53 272.30 L720.00 272.30 L736.47 272.30 L752.99 272.30 L769.46 272.30 L785.93 272.30 L802.44 272.30 L818.91 272.30 L835.43 272.30 L851.90 272.30 L868.37 272.30 L884.88 272.30 L901.35 272.30 L917.82 272.30 L934.34 272.30 L950.81 272.30 L967.28 272.30 L983.79 272.30 L1000.26 272.30 L1016.73 272.30 L1033.24 272.30 L1049.71 272.30 L1049.71 41.04 L1033.24 41.04 L1016.73 41.04 L1000.26 41.04 L983.79 41.04 L967.28 41.04 L950.81 41.04 L934.34 41.04 L917.82 41.04 L901.35 41.04 L884.88 41.04 L868.37 41.04 L851.90 41.04 L835.43 41.04 L818.91 41.04 L802.44 41.04 L785.93 41.04 L769.46 41.04 L752.99 41.04 L736.47 41.04 L720.00 41.04 L703.53 41.04 L687.02 41.04 L670.55 41.04 L654.08 41.04 L637.56 41.04 L621.09 41.04 L604.58 41.04 L588.11 41.04 L571.64 41.04 L555.12 41.04 L538.65 41.04 L522.18 41.04 L505.67 41.04 L489.20 41.04 L472.73 41.04 L456.21 41.04 L439.74 41.04 L423.27 41.04 L406.76 41.04 L390.29 41.04 L373.77 41.04 L357.30 41.04 L340.83 41.04 L324.32 41.04 L307.85 41.04 L291.38 41.04 L274.86 41.04 L258.39 41.04 L241.92 41.04 L225.41 41.04 L208.94 41.04 L192.47 41.04 L175.95 41.04 L159.48 41.04 L142.97 41.04 L126.50 41.04 L110.03 41.04 L93.51 41.04 L93.51 272.30 Z" stroke-linejoin="round" style="fill:#00BFC4;fill-opacity:0.75;stroke:#000000;stroke-width:0.00"/>
	<path d="
M93.51 295.15 L93.51 295.15 L110.03 295.15 L126.50 295.15 L142.97 295.15 L159.48 295.15 L175.95 295.15 L192.47 295.15 L208.94 295.15 L225.41 295.15 L241.92 295.15 L258.39 295.15 L274.86 295.15 L291.38 295.15 L307.85 295.20 L324.32 295.20 L340.83 295.25 L357.30 295.33 L373.77 295.52 L390.29 295.83 L406.76 296.42 L423.27 297.36 L439.74 299.12 L456.21 302.04 L472.73 307.04 L489.20 315.23 L505.67 328.23 L522.18 347.99 L538.65 375.93 L555.12 411.93 L571.64 453.06 L588.11 494.19 L604.58 530.19 L621.09 558.14 L637.56 577.89 L654.08 590.90 L670.55 599.09 L687.02 604.08 L703.53 607.01 L720.00 608.76 L736.47 609.71 L752.99 610.29 L769.46 610.61 L785.93 610.79 L802.44 610.88 L818.91 610.92 L835.43 610.92 L851.90 610.97 L868.37 610.97 L884.88 610.97 L901.35 610.97 L917.82 610.97 L934.34 610.97 L950.81 610.97 L967.28 610.97 L983.79 610.97 L1000.26 610.97 L1016.73 610.97 L1033.24 610.97 L1049.71 610.97 L1049.71 588.11 L1033.24 588.11 L1016.73 588.11 L1000.26 588.11 L983.79 588.11 L967.28 588.11 L950.81 588.11 L934.34 588.11 L917.82 588.11 L901.35 588.11 L884.88 588.11 L868.37 588.11 L851.90 588.11 L835.43 588.06 L818.91 588.06 L802.44 588.02 L785.93 587.92 L769.46 587.75 L752.99 587.43 L736.47 586.89 L720.00 585.90 L703.53 584.15 L687.02 581.22 L670.55 576.23 L654.08 568.08 L637.56 555.03 L621.09 535.28 L604.58 507.33 L588.11 471.38 L571.64 430.20 L555.12 389.07 L538.65 353.07 L522.18 325.13 L505.67 305.37 L489.20 292.37 L472.73 284.18 L456.21 279.18 L439.74 276.26 L423.27 274.55 L406.76 273.56 L390.29 272.97 L373.77 272.65 L357.30 272.52 L340.83 272.43 L324.32 272.34 L307.85 272.34 L291.38 272.34 L274.86 272.30 L258.39 272.30 L241.92 272.30 L225.41 272.30 L208.94 272.30 L192.47 272.30 L175.95 272.30 L159.48 272.30 L142.97 272.30 L126.50 272.30 L110.03 272.30 L93.51 272.30 L93.51 295.15 Z" stroke-linejoin="round" style="fill:#00BFC4;fill-opacity:0.75;stroke:#000000;stroke-width:0.00"/>
	<path d="
M93.51 585.50 L93.51 585.50 L110.03 585.50 L126.50 585.50 L142.97 585.50 L159.48 585.50 L175.95 585.50 L192.47 585.50 L208.94 585.50 L225.41 585.50 L241.92 585.50 L258.39 585.50 L274.86 585.50 L291.38 585.50 L307.85 585.50 L324.32 585.50 L340.83 585.50 L357.30 585.50 L373.77 585.45 L390.29 585.41 L406.76 585.36 L423.27 585.23 L439.74 584.96 L456.21 584.55 L472.73 583.88 L489.20 582.71 L505.67 580.91 L522.18 578.16 L538.65 574.25 L555.12 569.21 L571.64 563.44 L588.11 557.73 L604.58 552.69 L621.09 548.78 L637.56 546.03 L654.08 544.23 L670.55 543.06 L687.02 542.39 L703.53 541.98 L720.00 541.71 L736.47 541.58 L752.99 541.49 L769.46 541.49 L785.93 541.44 L802.44 541.44 L818.91 541.44 L835.43 541.40 L851.90 541.40 L868.37 541.40 L884.88 541.40 L901.35 541.40 L917.82 541.40 L934.34 541.40 L950.81 541.40 L967.28 541.40 L983.79 541.40 L1000.26 541.40 L1016.73 541.40 L1033.24 541.40 L1049.71 541.40 L1049.71 495.00 L1033.24 495.00 L1016.73 495.00 L1000.26 495.00 L983.79 495.00 L967.28 495.00 L950.81 495.00 L934.34 495.00 L917.82 495.00 L901.35 495.00 L884.88 495.00 L868.37 495.00 L851.90 495.00 L835.43 495.00 L818.91 495.00 L802.44 495.00 L785.93 495.04 L769.46 495.04 L752.99 495.09 L736.47 495.18 L720.00 495.32 L703.53 495.54 L687.02 495.99 L670.55 496.67 L654.08 497.79 L637.56 499.64 L621.09 502.38 L604.58 506.29 L588.11 511.34 L571.64 517.05 L555.12 522.81 L538.65 527.85 L522.18 531.72 L505.67 534.51 L489.20 536.31 L472.73 537.43 L456.21 538.16 L439.74 538.56 L423.27 538.79 L406.76 538.92 L390.29 539.01 L373.77 539.06 L357.30 539.10 L340.83 539.10 L324.32 539.10 L307.85 539.10 L291.38 539.10 L274.86 539.10 L258.39 539.10 L241.92 539.10 L225.41 539.10 L208.94 539.10 L192.47 539.10 L175.95 539.10 L159.48 539.10 L142.97 539.10 L126.50 539.10 L110.03 539.10 L93.51 539.10 L93.51 585.50 Z" stroke-linejoin="round" style="fill:#C77CFF;fill-opacity:0.75;stroke:#000000;stroke-width:0.00"/>
	<path d="
M93.51 596.52 L93.51 596.52 L110.03 596.52 L126.50 596.52 L142.97 596.52 L159.48 596.52 L175.95 596.52 L192.47 596.52 L208.94 596.52 L225.41 596.52 L241.92 596.52 L258.39 596.52 L274.86 596.52 L291.38 596.52 L307.85 596.52 L324.32 596.52 L340.83 596.52 L357.30 596.57 L373.77 596.57 L390.29 596.61 L406.76 596.70 L423.27 596.84 L439.74 597.11 L456.21 597.56 L472.73 598.28 L489.20 599.49 L505.67 601.42 L522.18 604.35 L538.65 608.44 L555.12 613.80 L571.64 619.88 L588.11 625.95 L604.58 631.26 L621.09 635.40 L637.56 638.33 L654.08 640.26 L670.55 641.48 L687.02 642.19 L703.53 642.65 L720.00 642.87 L736.47 643.05 L752.99 643.10 L769.46 643.14 L785.93 643.18 L802.44 643.18 L818.91 643.18 L835.43 643.18 L851.90 643.23 L868.37 643.23 L884.88 643.23 L901.35 643.23 L917.82 643.23 L934.34 643.23 L950.81 643.23 L967.28 643.23 L983.79 643.23 L1000.26 643.23 L1016.73 643.23 L1033.24 643.23 L1049.71 643.23 L1049.71 632.21 L1033.24 632.21 L1016.73 632.21 L1000.26 632.21 L983.79 632.21 L967.28 632.21 L950.81 632.21 L934.34 632.21 L917.82 632.21 L901.35 632.21 L884.88 632.21 L868.37 632.21 L851.90 632.21 L835.43 632.21 L818.91 632.21 L802.44 632.21 L785.93 632.16 L769.46 632.16 L752.99 632.12 L736.47 632.03 L720.00 631.89 L703.53 631.62 L687.02 631.17 L670.55 630.45 L654.08 629.24 L637.56 627.30 L621.09 624.38 L604.58 620.28 L588.11 614.92 L571.64 608.85 L555.12 602.78 L538.65 597.47 L522.18 593.33 L505.67 590.40 L489.20 588.47 L472.73 587.25 L456.21 586.53 L439.74 586.08 L423.27 585.86 L406.76 585.72 L390.29 585.63 L373.77 585.59 L357.30 585.54 L340.83 585.54 L324.32 585.54 L307.85 585.54 L291.38 585.54 L274.86 585.50 L258.39 585.50 L241.92 585.50 L225.41 585.50 L208.94 585.50 L192.47 585.50 L175.95 585.50 L159.48 585.50 L142.97 585.50 L126.50 585.50 L110.03 585.50 L93.51 585.50 L93.51 596.52 Z" stroke-linejoin="round" style="fill:#C77CFF;fill-opacity:0.75;stroke:#000000;stroke-width:0.00"/>
	<line x1="77.04" y1="306.63" x2="77.04" y2="527.67" style="stroke:#F8766D;stroke-width:23.04"/>
	<line x1="1066.23" y1="41.04" x2="1066.23" y2="483.53" style="stroke:#F8766D;stroke-width:23.04"/>
	<line x1="77.04" y1="608.00" x2="77.04" y2="648.59" style="stroke:#7CAE00;stroke-width:23.04"/>
	<line x1="1066.23" y1="495.00" x2="1066.23" y2="576.63" style="stroke:#7CAE00;stroke-width:23.04"/>
	<line x1="77.04" y1="41.04" x2="77.04" y2="295.15" style="stroke:#00BFC4;stroke-width:23.04"/>
	<line x1="1066.23" y1="588.11" x2="1066.23" y2="620.73" style="stroke:#00BFC4;stroke-width:23.04"/>
	<line x1="1066.23" y1="632.21" x2="1066.23" y2="648.59" style="stroke:#C77CFF;stroke-width:23.04"/>
	<line x1="77.04" y1="539.10" x2="77.04" y2="596.52" style="stroke:#C77CFF;stroke-width:23.04"/>
	<text x="84.38" y="424.72" style="font-family:'Helvetica';font-size:21.60px;fill:#000000">Acquiescent immobility (7,611)</text>
	<text x="84.38" y="635.86" style="font-family:'Helvetica';font-size:21.60px;fill:#000000">Involuntary immobility (1,398)</text>
	<text x="84.38" y="175.69" style="font-family:'Helvetica';font-size:21.60px;fill:#000000">Voluntary immobility (8,751)</text>
	<text x="84.38" y="575.38" style="font-family:'Helvetica';font-size:21.60px;fill:#000000">Mobility (1,977)</text>
	<text x="1073.57" y="647.97" style="font-family:'Helvetica';font-size:21.60px;fill:#000000">Mobility (564)</text>
	<text x="1073.57" y="269.88" style="font-family:'Helvetica';font-size:21.60px;fill:#000000">Acquiescent immobility (15,238)</text>
	<text x="1073.57" y="612.01" style="font-family:'Helvetica';font-size:21.60px;fill:#000000">Voluntary immobility (1,124)</text>
	<text x="1073.57" y="543.39" style="font-family:'Helvetica';font-size:21.60px;fill:#000000">Involuntary immobility (2,811)</text>
	<text x="77.04" y="685.27" style="font-family:'Helvetica';font-weight:bold;font-size:18.00px;fill:#000000" text-anchor="middle">Employment</text>
	<text x="1066.19" y="685.27" style="font-family:'Helvetica';font-weight:bold;font-size:18.00px;fill:#000000" text-anchor="middle">Education</text>
</svg>
