<?xml version="1.0" encoding="UTF-8" standalone="no"?>
<!-- This is a Stata 19.5 generated SVG file (http://www.stata.com) -->

<svg version="1.1" width="2.000in" height="1.000in" viewBox="0 0 1440 720" xmlns="http://www.w3.org/2000/svg" xmlns:xlink="http://www.w3.org/1999/xlink">
	<desc>Stata Graph - Graph</desc>
	<rect x="0" y="0" width="1440" height="720" style="fill:#FFFFFF;stroke:none"/>
	<rect x="0.00" y="0.00" width="1440.00" height="720.00" style="fill:#FFFFFF"/>
	<rect x="1.50" y="1.50" width="1437.00" height="717.00" style="fill:none;stroke:#FFFFFF;stroke-width:3.00"/>
	<rect x="25.20" y="25.20" width="1389.60" height="669.60" style="fill:#FFFFFF"/>
	<rect x="26.70" y="26.70" width="1386.60" height="666.60" style="fill:none;stroke:#FFFFFF;stroke-width:3.00"/>
	<path d="
M85.77 439.70 L85.77 439.70 L94.46 439.70 L103.19 439.70 L111.87 439.70 L120.60 439.70 L129.33 439.70 L138.01 439.70 L146.75 439.70 L155.43 439.70 L164.16 439.70 L172.89 439.70 L181.58 439.70 L190.31 439.70 L198.99 439.65 L207.72 439.65 L216.45 439.61 L225.14 439.52 L233.87 439.38 L242.55 439.11 L251.28 438.66 L260.01 437.85 L268.70 436.37 L277.43 433.89 L286.15 429.71 L294.84 422.87 L303.57 411.89 L312.26 395.28 L320.99 371.79 L329.72 341.55 L338.40 306.95 L347.13 272.34 L355.82 242.10 L364.55 218.61 L373.28 202.01 L381.96 191.07 L390.69 184.18 L399.38 180.00 L408.11 177.52 L416.84 176.09 L425.52 175.23 L434.25 174.78 L442.94 174.51 L451.67 174.38 L460.40 174.28 L469.08 174.24 L477.81 174.24 L486.50 174.24 L495.23 174.20 L503.96 174.20 L512.64 174.20 L521.37 174.20 L530.05 174.20 L538.79 174.20 L547.52 174.20 L556.20 174.20 L564.93 174.20 L573.62 174.20 L582.35 174.20 L591.08 174.20 L591.08 41.04 L582.35 41.04 L573.62 41.04 L564.93 41.04 L556.20 41.04 L547.52 41.04 L538.79 41.04 L530.05 41.04 L521.37 41.04 L512.64 41.04 L503.96 41.04 L495.23 41.04 L486.50 41.04 L477.81 41.04 L469.08 41.09 L460.40 41.13 L451.67 41.22 L442.94 41.36 L434.25 41.63 L425.52 42.08 L416.84 42.88 L408.11 44.37 L399.38 46.85 L390.69 51.03 L381.96 57.87 L373.28 68.85 L364.55 85.46 L355.82 108.95 L347.13 139.18 L338.40 173.79 L329.72 208.40 L320.99 238.64 L312.26 262.13 L303.57 278.73 L294.84 289.67 L286.15 296.55 L277.43 300.74 L268.70 303.21 L260.01 304.65 L251.28 305.51 L242.55 305.96 L233.87 306.23 L225.14 306.36 L216.45 306.45 L207.72 306.50 L198.99 306.50 L190.31 306.50 L181.58 306.54 L172.89 306.54 L164.16 306.54 L155.43 306.54 L146.75 306.54 L138.01 306.54 L129.33 306.54 L120.60 306.54 L111.87 306.54 L103.19 306.54 L94.46 306.54 L85.77 306.54 L85.77 439.70 Z" stroke-linejoin="round" style="fill:#F8766D;fill-opacity:0.75;stroke:#000000;stroke-width:0.00"/>
	<path d="
M608.49 302.85 L608.49 302.85 L617.17 302.85 L625.91 302.85 L634.64 302.85 L643.32 302.85 L652.05 302.85 L660.74 302.85 L669.47 302.85 L678.20 302.85 L686.88 302.85 L695.61 302.85 L704.34 302.85 L713.03 302.85 L721.76 302.85 L730.44 302.85 L739.17 302.85 L747.90 302.85 L756.59 302.85 L765.32 302.85 L774.00 302.85 L782.73 302.85 L791.46 302.85 L800.15 302.85 L808.88 302.85 L817.56 302.85 L826.29 302.85 L835.02 302.85 L843.71 302.85 L852.44 302.85 L861.12 302.85 L869.85 302.85 L878.58 302.85 L887.27 302.85 L896.00 302.85 L904.68 302.85 L913.41 302.85 L922.14 302.85 L930.83 302.85 L939.56 302.85 L948.24 302.85 L956.97 302.85 L965.70 302.85 L974.39 302.85 L983.12 302.85 L991.80 302.85 L1000.53 302.85 L1009.26 302.85 L1017.95 302.85 L1026.68 302.85 L1035.36 302.85 L1044.09 302.85 L1052.82 302.85 L1061.51 302.85 L1070.23 302.85 L1078.92 302.85 L1087.65 302.85 L1096.38 302.85 L1105.07 302.85 L1113.80 302.85 L1113.80 41.04 L1105.07 41.04 L1096.38 41.04 L1087.65 41.04 L1078.92 41.04 L1070.23 41.04 L1061.51 41.04 L1052.82 41.04 L1044.09 41.04 L1035.36 41.04 L1026.68 41.04 L1017.95 41.04 L1009.26 41.04 L1000.53 41.04 L991.80 41.04 L983.12 41.04 L974.39 41.04 L965.70 41.04 L956.97 41.04 L948.24 41.04 L939.56 41.04 L930.83 41.04 L922.14 41.04 L913.41 41.04 L904.68 41.04 L896.00 41.04 L887.27 41.04 L878.58 41.04 L869.85 41.04 L861.12 41.04 L852.44 41.04 L843.71 41.04 L835.02 41.04 L826.29 41.04 L817.56 41.04 L808.88 41.04 L800.15 41.04 L791.46 41.04 L782.73 41.04 L774.00 41.04 L765.32 41.04 L756.59 41.04 L747.90 41.04 L739.17 41.04 L730.44 41.04 L721.76 41.04 L713.03 41.04 L704.34 41.04 L695.61 41.04 L686.88 41.04 L678.20 41.04 L669.47 41.04 L660.74 41.04 L652.05 41.04 L643.32 41.04 L634.64 41.04 L625.91 41.04 L617.17 41.04 L608.49 41.04 L608.49 302.85 Z" stroke-linejoin="round" style="fill:#F8766D;fill-opacity:0.75;stroke:#000000;stroke-width:0.00"/>
	<path d="
M85.77 527.54 L85.77 527.54 L94.46 527.54 L103.19 527.54 L111.87 527.54 L120.60 527.54 L129.33 527.54 L138.01 527.54 L146.75 527.54 L155.43 527.54 L164.16 527.54 L172.89 527.54 L181.58 527.54 L190.31 527.54 L198.99 527.54 L207.72 527.54 L216.45 527.54 L225.14 527.54 L233.87 527.54 L242.55 527.54 L251.28 527.54 L260.01 527.54 L268.70 527.54 L277.43 527.54 L286.15 527.54 L294.84 527.54 L303.57 527.54 L312.26 527.54 L320.99 527.54 L329.72 527.54 L338.40 527.54 L347.13 527.54 L355.82 527.54 L364.55 527.54 L373.28 527.54 L381.96 527.54 L390.69 527.54 L399.38 527.54 L408.11 527.54 L416.84 527.54 L425.52 527.54 L434.25 527.54 L442.94 527.54 L451.67 527.54 L460.40 527.54 L469.08 527.54 L477.81 527.54 L486.50 527.54 L495.23 527.54 L503.96 527.54 L512.64 527.54 L521.37 527.54 L530.05 527.54 L538.79 527.54 L547.52 527.54 L556.20 527.54 L564.93 527.54 L573.62 527.54 L582.35 527.54 L591.08 527.54 L591.08 439.70 L582.35 439.70 L573.62 439.70 L564.93 439.70 L556.20 439.70 L547.52 439.70 L538.79 439.70 L530.05 439.70 L521.37 439.70 L512.64 439.70 L503.96 439.70 L495.23 439.70 L486.50 439.70 L477.81 439.70 L469.08 439.70 L460.40 439.70 L451.67 439.70 L442.94 439.70 L434.25 439.70 L425.52 439.70 L416.84 439.70 L408.11 439.70 L399.38 439.70 L390.69 439.70 L381.96 439.70 L373.28 439.70 L364.55 439.70 L355.82 439.70 L347.13 439.70 L338.40 439.70 L329.72 439.70 L320.99 439.70 L312.26 439.70 L303.57 439.70 L294.84 439.70 L286.15 439.70 L277.43 439.70 L268.70 439.70 L260.01 439.70 L251.28 439.70 L242.55 439.70 L233.87 439.70 L225.14 439.70 L216.45 439.70 L207.72 439.70 L198.99 439.70 L190.31 439.70 L181.58 439.70 L172.89 439.70 L164.16 439.70 L155.43 439.70 L146.75 439.70 L138.01 439.70 L129.33 439.70 L120.60 439.70 L111.87 439.70 L103.19 439.70 L94.46 439.70 L85.77 439.70 L85.77 527.54 Z" stroke-linejoin="round" style="fill:#F8766D;fill-opacity:0.75;stroke:#000000;stroke-width:0.00"/>
	<path d="
M85.77 648.59 L85.77 648.59 L94.46 648.59 L103.19 648.59 L111.87 648.59 L120.60 648.59 L129.33 648.59 L138.01 648.59 L146.75 648.59 L155.43 648.59 L164.16 648.59 L172.89 648.59 L181.58 648.59 L190.31 648.59 L198.99 648.59 L207.72 648.59 L216.45 648.59 L225.14 648.59 L233.87 648.59 L242.55 648.59 L251.28 648.59 L260.01 648.59 L268.70 648.59 L277.43 648.59 L286.15 648.59 L294.84 648.59 L303.57 648.59 L312.26 648.59 L320.99 648.59 L329.72 648.59 L338.40 648.59 L347.13 648.59 L355.82 648.59 L364.55 648.59 L373.28 648.59 L381.96 648.59 L390.69 648.59 L399.38 648.59 L408.11 648.59 L416.84 648.59 L425.52 648.59 L434.25 648.59 L442.94 648.59 L451.67 648.59 L460.40 648.59 L469.08 648.59 L477.81 648.59 L486.50 648.59 L495.23 648.59 L503.96 648.59 L512.64 648.59 L521.37 648.59 L530.05 648.59 L538.79 648.59 L547.52 648.59 L556.20 648.59 L564.93 648.59 L573.62 648.59 L582.35 648.59 L591.08 648.59 L591.08 638.19 L582.35 638.19 L573.62 638.19 L564.93 638.19 L556.20 638.19 L547.52 638.19 L538.79 638.19 L530.05 638.19 L521.37 638.19 L512.64 638.19 L503.96 638.19 L495.23 638.19 L486.50 638.19 L477.81 638.19 L469.08 638.19 L460.40 638.19 L451.67 638.19 L442.94 638.19 L434.25 638.19 L425.52 638.19 L416.84 638.19 L408.11 638.19 L399.38 638.19 L390.69 638.19 L381.96 638.19 L373.28 638.19 L364.55 638.19 L355.82 638.19 L347.13 638.19 L338.40 638.19 L329.72 638.19 L320.99 638.19 L312.26 638.19 L303.57 638.19 L294.84 638.19 L286.15 638.19 L277.43 638.19 L268.70 638.19 L260.01 638.19 L251.28 638.19 L242.55 638.19 L233.87 638.19 L225.14 638.19 L216.45 638.19 L207.72 638.19 L198.99 638.19 L190.31 638.19 L181.58 638.19 L172.89 638.19 L164.16 638.19 L155.43 638.19 L146.75 638.19 L138.01 638.19 L129.33 638.19 L120.60 638.19 L111.87 638.19 L103.19 638.19 L94.46 638.19 L85.77 638.19 L85.77 648.59 Z" stroke-linejoin="round" style="fill:#7CAE00;fill-opacity:0.75;stroke:#000000;stroke-width:0.00"/>
	<path d="
M608.49 648.59 L608.49 648.59 L617.17 648.59 L625.91 648.59 L634.64 648.59 L643.32 648.59 L652.05 648.59 L660.74 648.59 L669.47 648.59 L678.20 648.59 L686.88 648.59 L695.61 648.59 L704.34 648.59 L713.03 648.59 L721.76 648.59 L730.44 648.59 L739.17 648.54 L747.90 648.54 L756.59 648.50 L765.32 648.45 L774.00 648.32 L782.73 648.09 L791.46 647.68 L800.15 647.01 L808.88 645.89 L817.56 644.00 L826.29 641.03 L835.02 636.53 L843.71 630.14 L852.44 621.94 L861.12 612.54 L869.85 603.14 L878.58 594.94 L887.27 588.56 L896.00 584.06 L904.68 581.09 L913.41 579.19 L922.14 578.07 L930.83 577.40 L939.56 576.99 L948.24 576.77 L956.97 576.67 L965.70 576.59 L974.39 576.54 L983.12 576.54 L991.80 576.50 L1000.53 576.50 L1009.26 576.50 L1017.95 576.50 L1026.68 576.50 L1035.36 576.50 L1044.09 576.50 L1052.82 576.50 L1061.51 576.50 L1070.23 576.50 L1078.92 576.50 L1087.65 576.50 L1096.38 576.50 L1105.07 576.50 L1113.80 576.50 L1113.80 550.08 L1105.07 550.08 L1096.38 550.08 L1087.65 550.08 L1078.92 550.08 L1070.23 550.08 L1061.51 550.08 L1052.82 550.08 L1044.09 550.08 L1035.36 550.08 L1026.68 550.08 L1017.95 550.08 L1009.26 550.08 L1000.53 550.08 L991.80 550.08 L983.12 550.08 L974.39 550.08 L965.70 550.13 L956.97 550.22 L948.24 550.35 L939.56 550.58 L930.83 550.98 L922.14 551.61 L913.41 552.78 L904.68 554.63 L896.00 557.60 L887.27 562.10 L878.58 568.49 L869.85 576.72 L861.12 586.08 L852.44 595.49 L843.71 603.72 L835.02 610.07 L826.29 614.61 L817.56 617.58 L808.88 619.42 L800.15 620.55 L791.46 621.23 L782.73 621.63 L774.00 621.86 L765.32 621.99 L756.59 622.08 L747.90 622.08 L739.17 622.13 L730.44 622.13 L721.76 622.13 L713.03 622.13 L704.34 622.13 L695.61 622.13 L686.88 622.13 L678.20 622.13 L669.47 622.13 L660.74 622.13 L652.05 622.13 L643.32 622.13 L634.64 622.13 L625.91 622.13 L617.17 622.13 L608.49 622.13 L608.49 648.59 Z" stroke-linejoin="round" style="fill:#7CAE00;fill-opacity:0.75;stroke:#000000;stroke-width:0.00"/>
	<path d="
M85.77 638.19 L85.77 638.19 L94.46 638.19 L103.19 638.19 L111.87 638.19 L120.60 638.19 L129.33 638.19 L138.01 638.19 L146.75 638.19 L155.43 638.19 L164.16 638.19 L172.89 638.19 L181.58 638.19 L190.31 638.19 L198.99 638.19 L207.72 638.19 L216.45 638.19 L225.14 638.19 L233.87 638.15 L242.55 638.15 L251.28 638.10 L260.01 638.01 L268.70 637.83 L277.43 637.61 L286.15 637.16 L294.84 636.43 L303.57 635.31 L312.26 633.60 L320.99 631.17 L329.72 628.02 L338.40 624.42 L347.13 620.87 L355.82 617.72 L364.55 615.29 L373.28 613.58 L381.96 612.41 L390.69 611.73 L399.38 611.28 L408.11 611.01 L416.84 610.88 L425.52 610.79 L434.25 610.74 L442.94 610.69 L451.67 610.69 L460.40 610.69 L469.08 610.69 L477.81 610.69 L486.50 610.69 L495.23 610.69 L503.96 610.69 L512.64 610.69 L521.37 610.69 L530.05 610.69 L538.79 610.69 L547.52 610.69 L556.20 610.69 L564.93 610.69 L573.62 610.69 L582.35 610.69 L591.08 610.69 L591.08 580.46 L582.35 580.46 L573.62 580.46 L564.93 580.46 L556.20 580.46 L547.52 580.46 L538.79 580.46 L530.05 580.46 L521.37 580.46 L512.64 580.46 L503.96 580.46 L495.23 580.46 L486.50 580.46 L477.81 580.46 L469.08 580.46 L460.40 580.46 L451.67 580.46 L442.94 580.50 L434.25 580.50 L425.52 580.54 L416.84 580.64 L408.11 580.82 L399.38 581.04 L390.69 581.49 L381.96 582.21 L373.28 583.34 L364.55 585.04 L355.82 587.48 L347.13 590.63 L338.40 594.23 L329.72 597.78 L320.99 600.93 L312.26 603.36 L303.57 605.07 L294.84 606.19 L286.15 606.92 L277.43 607.37 L268.70 607.64 L260.01 607.77 L251.28 607.86 L242.55 607.91 L233.87 607.95 L225.14 607.95 L216.45 607.95 L207.72 607.95 L198.99 607.95 L190.31 607.95 L181.58 607.95 L172.89 607.95 L164.16 607.95 L155.43 607.95 L146.75 607.95 L138.01 607.95 L129.33 607.95 L120.60 607.95 L111.87 607.95 L103.19 607.95 L94.46 607.95 L85.77 607.95 L85.77 638.19 Z" stroke-linejoin="round" style="fill:#7CAE00;fill-opacity:0.75;stroke:#000000;stroke-width:0.00"/>
	<path d="
M85.77 169.65 L85.77 169.65 L94.46 169.65 L103.19 169.65 L111.87 169.65 L120.60 169.65 L129.33 169.65 L138.01 169.65 L146.75 169.65 L155.43 169.65 L164.16 169.65 L172.89 169.65 L181.58 169.65 L190.31 169.65 L198.99 169.70 L207.72 169.70 L216.45 169.70 L225.14 169.74 L233.87 169.83 L242.55 169.97 L251.28 170.19 L260.01 170.60 L268.70 171.32 L277.43 172.58 L286.15 174.65 L294.84 178.11 L303.57 183.60 L312.26 191.92 L320.99 203.72 L329.72 218.88 L338.40 236.25 L347.13 253.62 L355.82 268.79 L364.55 280.58 L373.28 288.90 L381.96 294.39 L390.69 297.86 L399.38 299.93 L408.11 301.19 L416.84 301.90 L425.52 302.31 L434.25 302.54 L442.94 302.67 L451.67 302.76 L460.40 302.81 L469.08 302.81 L477.81 302.81 L486.50 302.85 L495.23 302.85 L503.96 302.85 L512.64 302.85 L521.37 302.85 L530.05 302.85 L538.79 302.85 L547.52 302.85 L556.20 302.85 L564.93 302.85 L573.62 302.85 L582.35 302.85 L591.08 302.85 L591.08 174.20 L582.35 174.20 L573.62 174.20 L564.93 174.20 L556.20 174.20 L547.52 174.20 L538.79 174.20 L530.05 174.20 L521.37 174.20 L512.64 174.20 L503.96 174.20 L495.23 174.20 L486.50 174.20 L477.81 174.20 L469.08 174.20 L460.40 174.15 L451.67 174.15 L442.94 174.06 L434.25 173.92 L425.52 173.70 L416.84 173.29 L408.11 172.53 L399.38 171.32 L390.69 169.20 L381.96 165.78 L373.28 160.25 L364.55 151.92 L355.82 140.17 L347.13 124.97 L338.40 107.64 L329.72 90.27 L320.99 75.11 L312.26 63.32 L303.57 54.99 L294.84 49.50 L286.15 46.03 L277.43 43.97 L268.70 42.71 L260.01 41.99 L251.28 41.58 L242.55 41.31 L233.87 41.17 L225.14 41.13 L216.45 41.09 L207.72 41.04 L198.99 41.04 L190.31 41.04 L181.58 41.04 L172.89 41.04 L164.16 41.04 L155.43 41.04 L146.75 41.04 L138.01 41.04 L129.33 41.04 L120.60 41.04 L111.87 41.04 L103.19 41.04 L94.46 41.04 L85.77 41.04 L85.77 169.65 Z" stroke-linejoin="round" style="fill:#00BFC4;fill-opacity:0.75;stroke:#000000;stroke-width:0.00"/>
	<path d="
M608.49 494.78 L608.49 494.78 L617.17 494.78 L625.91 494.78 L634.64 494.78 L643.32 494.78 L652.05 494.78 L660.74 494.78 L669.47 494.78 L678.20 494.78 L686.88 494.78 L695.61 494.78 L704.34 494.78 L713.03 494.78 L721.76 494.78 L730.44 494.78 L739.17 494.78 L747.90 494.78 L756.59 494.78 L765.32 494.78 L774.00 494.73 L782.73 494.73 L791.46 494.64 L800.15 494.55 L808.88 494.37 L817.56 494.06 L826.29 493.61 L835.02 492.89 L843.71 491.85 L852.44 490.54 L861.12 489.06 L869.85 487.58 L878.58 486.27 L887.27 485.24 L896.00 484.52 L904.68 484.07 L913.41 483.75 L922.14 483.57 L930.83 483.48 L939.56 483.39 L948.24 483.39 L956.97 483.35 L965.70 483.35 L974.39 483.35 L983.12 483.35 L991.80 483.35 L1000.53 483.35 L1009.26 483.35 L1017.95 483.35 L1026.68 483.35 L1035.36 483.35 L1044.09 483.35 L1052.82 483.35 L1061.51 483.35 L1070.23 483.35 L1078.92 483.35 L1087.65 483.35 L1096.38 483.35 L1105.07 483.35 L1113.80 483.35 L1113.80 302.85 L1105.07 302.85 L1096.38 302.85 L1087.65 302.85 L1078.92 302.85 L1070.23 302.85 L1061.51 302.85 L1052.82 302.85 L1044.09 302.85 L1035.36 302.85 L1026.68 302.85 L1017.95 302.85 L1009.26 302.85 L1000.53 302.85 L991.80 302.85 L983.12 302.85 L974.39 302.85 L965.70 302.85 L956.97 302.85 L948.24 302.90 L939.56 302.90 L930.83 302.99 L922.14 303.08 L913.41 303.26 L904.68 303.57 L896.00 304.02 L887.27 304.74 L878.58 305.77 L869.85 307.08 L861.12 308.57 L852.44 310.05 L843.71 311.36 L835.02 312.39 L826.29 313.11 L817.56 313.56 L808.88 313.88 L800.15 314.06 L791.46 314.15 L782.73 314.24 L774.00 314.24 L765.32 314.28 L756.59 314.28 L747.90 314.28 L739.17 314.28 L730.44 314.28 L721.76 314.28 L713.03 314.28 L704.34 314.28 L695.61 314.28 L686.88 314.28 L678.20 314.28 L669.47 314.28 L660.74 314.28 L652.05 314.28 L643.32 314.28 L634.64 314.28 L625.91 314.28 L617.17 314.28 L608.49 314.28 L608.49 494.78 Z" stroke-linejoin="round" style="fill:#00BFC4;fill-opacity:0.75;stroke:#000000;stroke-width:0.00"/>
	<path d="
M85.77 295.07 L85.77 295.07 L94.46 295.07 L103.19 295.07 L111.87 295.07 L120.60 295.07 L129.33 295.07 L138.01 295.07 L146.75 295.07 L155.43 295.07 L164.16 295.07 L172.89 295.07 L181.58 295.07 L190.31 295.07 L198.99 295.07 L207.72 295.07 L216.45 295.11 L225.14 295.15 L233.87 295.25 L242.55 295.38 L251.28 295.61 L260.01 296.06 L268.70 296.87 L277.43 298.21 L286.15 300.51 L294.84 304.25 L303.57 310.19 L312.26 319.23 L320.99 332.06 L329.72 348.53 L338.40 367.38 L347.13 386.24 L355.82 402.71 L364.55 415.49 L373.28 424.53 L381.96 430.52 L390.69 434.25 L399.38 436.55 L408.11 437.90 L416.84 438.66 L425.52 439.11 L434.25 439.38 L442.94 439.52 L451.67 439.61 L460.40 439.65 L469.08 439.65 L477.81 439.70 L486.50 439.70 L495.23 439.70 L503.96 439.70 L512.64 439.70 L521.37 439.70 L530.05 439.70 L538.79 439.70 L547.52 439.70 L556.20 439.70 L564.93 439.70 L573.62 439.70 L582.35 439.70 L591.08 439.70 L591.08 314.28 L582.35 314.28 L573.62 314.28 L564.93 314.28 L556.20 314.28 L547.52 314.28 L538.79 314.28 L530.05 314.28 L521.37 314.28 L512.64 314.28 L503.96 314.28 L495.23 314.28 L486.50 314.28 L477.81 314.28 L469.08 314.28 L460.40 314.24 L451.67 314.19 L442.94 314.15 L434.25 314.01 L425.52 313.74 L416.84 313.29 L408.11 312.48 L399.38 311.13 L390.69 308.88 L381.96 305.10 L373.28 299.16 L364.55 290.12 L355.82 277.29 L347.13 260.82 L338.40 241.96 L329.72 223.15 L320.99 206.64 L312.26 193.86 L303.57 184.82 L294.84 178.83 L286.15 175.10 L277.43 172.80 L268.70 171.45 L260.01 170.68 L251.28 170.24 L242.55 169.97 L233.87 169.83 L225.14 169.74 L216.45 169.70 L207.72 169.70 L198.99 169.70 L190.31 169.65 L181.58 169.65 L172.89 169.65 L164.16 169.65 L155.43 169.65 L146.75 169.65 L138.01 169.65 L129.33 169.65 L120.60 169.65 L111.87 169.65 L103.19 169.65 L94.46 169.65 L85.77 169.65 L85.77 295.07 Z" stroke-linejoin="round" style="fill:#00BFC4;fill-opacity:0.75;stroke:#000000;stroke-width:0.00"/>
	<path d="
M608.49 527.54 L608.49 527.54 L617.17 527.54 L625.91 527.54 L634.64 527.54 L643.32 527.54 L652.05 527.54 L660.74 527.54 L669.47 527.54 L678.20 527.54 L686.88 527.54 L695.61 527.54 L704.34 527.54 L713.03 527.54 L721.76 527.54 L730.44 527.54 L739.17 527.54 L747.90 527.58 L756.59 527.63 L765.32 527.72 L774.00 527.90 L782.73 528.17 L791.46 528.66 L800.15 529.56 L808.88 531.00 L817.56 533.43 L826.29 537.26 L835.02 543.11 L843.71 551.34 L852.44 561.96 L861.12 574.11 L869.85 586.26 L878.58 596.88 L887.27 605.12 L896.00 610.92 L904.68 614.79 L913.41 617.17 L922.14 618.66 L930.83 619.52 L939.56 620.06 L948.24 620.33 L956.97 620.51 L965.70 620.60 L974.39 620.64 L983.12 620.68 L991.80 620.68 L1000.53 620.68 L1009.26 620.68 L1017.95 620.68 L1026.68 620.68 L1035.36 620.68 L1044.09 620.68 L1052.82 620.68 L1061.51 620.68 L1070.23 620.68 L1078.92 620.68 L1087.65 620.68 L1096.38 620.68 L1105.07 620.68 L1113.80 620.68 L1113.80 587.97 L1105.07 587.97 L1096.38 587.97 L1087.65 587.97 L1078.92 587.97 L1070.23 587.97 L1061.51 587.97 L1052.82 587.97 L1044.09 587.97 L1035.36 587.97 L1026.68 587.97 L1017.95 587.97 L1009.26 587.97 L1000.53 587.97 L991.80 587.97 L983.12 587.92 L974.39 587.92 L965.70 587.88 L956.97 587.75 L948.24 587.61 L939.56 587.29 L930.83 586.80 L922.14 585.94 L913.41 584.46 L904.68 582.03 L896.00 578.21 L887.27 572.40 L878.58 564.12 L869.85 553.50 L861.12 541.40 L852.44 529.25 L843.71 518.63 L835.02 510.39 L826.29 504.54 L817.56 500.72 L808.88 498.29 L800.15 496.80 L791.46 495.95 L782.73 495.45 L774.00 495.14 L765.32 495.00 L756.59 494.91 L747.90 494.87 L739.17 494.82 L730.44 494.82 L721.76 494.78 L713.03 494.78 L704.34 494.78 L695.61 494.78 L686.88 494.78 L678.20 494.78 L669.47 494.78 L660.74 494.78 L652.05 494.78 L643.32 494.78 L634.64 494.78 L625.91 494.78 L617.17 494.78 L608.49 494.78 L608.49 527.54 Z" stroke-linejoin="round" style="fill:#00BFC4;fill-opacity:0.75;stroke:#000000;stroke-width:0.00"/>
	<path d="
M85.77 596.48 L85.77 596.48 L94.46 596.48 L103.19 596.48 L111.87 596.48 L120.60 596.48 L129.33 596.48 L138.01 596.48 L146.75 596.48 L155.43 596.48 L164.16 596.48 L172.89 596.48 L181.58 596.48 L190.31 596.52 L198.99 596.52 L207.72 596.52 L216.45 596.52 L225.14 596.52 L233.87 596.57 L242.55 596.57 L251.28 596.66 L260.01 596.79 L268.70 597.02 L277.43 597.42 L286.15 598.05 L294.84 599.13 L303.57 600.84 L312.26 603.45 L320.99 607.14 L329.72 611.91 L338.40 617.36 L347.13 622.76 L355.82 627.53 L364.55 631.22 L373.28 633.83 L381.96 635.54 L390.69 636.62 L399.38 637.29 L408.11 637.65 L416.84 637.88 L425.52 638.01 L434.25 638.10 L442.94 638.15 L451.67 638.15 L460.40 638.19 L469.08 638.19 L477.81 638.19 L486.50 638.19 L495.23 638.19 L503.96 638.19 L512.64 638.19 L521.37 638.19 L530.05 638.19 L538.79 638.19 L547.52 638.19 L556.20 638.19 L564.93 638.19 L573.62 638.19 L582.35 638.19 L591.08 638.19 L591.08 622.13 L582.35 622.13 L573.62 622.13 L564.93 622.13 L556.20 622.13 L547.52 622.13 L538.79 622.13 L530.05 622.13 L521.37 622.13 L512.64 622.13 L503.96 622.13 L495.23 622.13 L486.50 622.13 L477.81 622.13 L469.08 622.13 L460.40 622.13 L451.67 622.13 L442.94 622.08 L434.25 622.04 L425.52 621.99 L416.84 621.86 L408.11 621.63 L399.38 621.23 L390.69 620.60 L381.96 619.52 L373.28 617.76 L364.55 615.15 L355.82 611.46 L347.13 606.74 L338.40 601.29 L329.72 595.85 L320.99 591.12 L312.26 587.43 L303.57 584.82 L294.84 583.11 L286.15 582.03 L277.43 581.36 L268.70 580.95 L260.01 580.73 L251.28 580.64 L242.55 580.54 L233.87 580.50 L225.14 580.46 L216.45 580.46 L207.72 580.46 L198.99 580.46 L190.31 580.46 L181.58 580.46 L172.89 580.46 L164.16 580.46 L155.43 580.46 L146.75 580.46 L138.01 580.46 L129.33 580.46 L120.60 580.46 L111.87 580.46 L103.19 580.46 L94.46 580.46 L85.77 580.46 L85.77 596.48 Z" stroke-linejoin="round" style="fill:#C77CFF;fill-opacity:0.75;stroke:#000000;stroke-width:0.00"/>
	<path d="
M608.49 594.27 L608.49 594.27 L617.17 594.27 L625.91 594.27 L634.64 594.27 L643.32 594.27 L652.05 594.27 L660.74 594.27 L669.47 594.27 L678.20 594.27 L686.88 594.27 L695.61 594.27 L704.34 594.27 L713.03 594.27 L721.76 594.27 L730.44 594.23 L739.17 594.23 L747.90 594.23 L756.59 594.23 L765.32 594.18 L774.00 594.09 L782.73 593.96 L791.46 593.68 L800.15 593.28 L808.88 592.61 L817.56 591.43 L826.29 589.64 L835.02 586.85 L843.71 582.93 L852.44 577.93 L861.12 572.17 L869.85 566.42 L878.58 561.38 L887.27 557.46 L896.00 554.67 L904.68 552.87 L913.41 551.70 L922.14 551.03 L930.83 550.62 L939.56 550.35 L948.24 550.22 L956.97 550.17 L965.70 550.13 L974.39 550.08 L983.12 550.08 L991.80 550.08 L1000.53 550.08 L1009.26 550.08 L1017.95 550.08 L1026.68 550.08 L1035.36 550.08 L1044.09 550.08 L1052.82 550.08 L1061.51 550.08 L1070.23 550.08 L1078.92 550.08 L1087.65 550.08 L1096.38 550.08 L1105.07 550.08 L1113.80 550.08 L1113.80 494.78 L1105.07 494.78 L1096.38 494.78 L1087.65 494.78 L1078.92 494.78 L1070.23 494.78 L1061.51 494.78 L1052.82 494.78 L1044.09 494.78 L1035.36 494.78 L1026.68 494.78 L1017.95 494.78 L1009.26 494.78 L1000.53 494.78 L991.80 494.78 L983.12 494.82 L974.39 494.82 L965.70 494.82 L956.97 494.87 L948.24 494.96 L939.56 495.09 L930.83 495.36 L922.14 495.77 L913.41 496.44 L904.68 497.61 L896.00 499.41 L887.27 502.20 L878.58 506.07 L869.85 511.11 L861.12 516.87 L852.44 522.63 L843.71 527.67 L835.02 531.59 L826.29 534.38 L817.56 536.17 L808.88 537.35 L800.15 538.02 L791.46 538.42 L782.73 538.69 L774.00 538.83 L765.32 538.88 L756.59 538.92 L747.90 538.97 L739.17 538.97 L730.44 538.97 L721.76 538.97 L713.03 538.97 L704.34 538.97 L695.61 538.97 L686.88 538.97 L678.20 538.97 L669.47 538.97 L660.74 538.97 L652.05 538.97 L643.32 538.97 L634.64 538.97 L625.91 538.97 L617.17 538.97 L608.49 538.97 L608.49 594.27 Z" stroke-linejoin="round" style="fill:#C77CFF;fill-opacity:0.75;stroke:#000000;stroke-width:0.00"/>
	<path d="
M85.77 580.46 L85.77 580.46 L94.46 580.46 L103.19 580.46 L111.87 580.46 L120.60 580.46 L129.33 580.46 L138.01 580.46 L146.75 580.46 L155.43 580.46 L164.16 580.46 L172.89 580.46 L181.58 580.46 L190.31 580.46 L198.99 580.46 L207.72 580.46 L216.45 580.46 L225.14 580.46 L233.87 580.46 L242.55 580.46 L251.28 580.46 L260.01 580.46 L268.70 580.46 L277.43 580.46 L286.15 580.46 L294.84 580.46 L303.57 580.46 L312.26 580.46 L320.99 580.46 L329.72 580.46 L338.40 580.46 L347.13 580.46 L355.82 580.46 L364.55 580.46 L373.28 580.46 L381.96 580.46 L390.69 580.46 L399.38 580.46 L408.11 580.46 L416.84 580.46 L425.52 580.46 L434.25 580.46 L442.94 580.46 L451.67 580.46 L460.40 580.46 L469.08 580.46 L477.81 580.46 L486.50 580.46 L495.23 580.46 L503.96 580.46 L512.64 580.46 L521.37 580.46 L530.05 580.46 L538.79 580.46 L547.52 580.46 L556.20 580.46 L564.93 580.46 L573.62 580.46 L582.35 580.46 L591.08 580.46 L591.08 538.97 L582.35 538.97 L573.62 538.97 L564.93 538.97 L556.20 538.97 L547.52 538.97 L538.79 538.97 L530.05 538.97 L521.37 538.97 L512.64 538.97 L503.96 538.97 L495.23 538.97 L486.50 538.97 L477.81 538.97 L469.08 538.97 L460.40 538.97 L451.67 538.97 L442.94 538.97 L434.25 538.97 L425.52 538.97 L416.84 538.97 L408.11 538.97 L399.38 538.97 L390.69 538.97 L381.96 538.97 L373.28 538.97 L364.55 538.97 L355.82 538.97 L347.13 538.97 L338.40 538.97 L329.72 538.97 L320.99 538.97 L312.26 538.97 L303.57 538.97 L294.84 538.97 L286.15 538.97 L277.43 538.97 L268.70 538.97 L260.01 538.97 L251.28 538.97 L242.55 538.97 L233.87 538.97 L225.14 538.97 L216.45 538.97 L207.72 538.97 L198.99 538.97 L190.31 538.97 L181.58 538.97 L172.89 538.97 L164.16 538.97 L155.43 538.97 L146.75 538.97 L138.01 538.97 L129.33 538.97 L120.60 538.97 L111.87 538.97 L103.19 538.97 L94.46 538.97 L85.77 538.97 L85.77 580.46 Z" stroke-linejoin="round" style="fill:#C77CFF;fill-opacity:0.75;stroke:#000000;stroke-width:0.00"/>
	<path d="
M608.49 610.69 L608.49 610.69 L617.17 610.69 L625.91 610.69 L634.64 610.69 L643.32 610.69 L652.05 610.69 L660.74 610.69 L669.47 610.69 L678.20 610.69 L686.88 610.69 L695.61 610.69 L704.34 610.69 L713.03 610.69 L721.76 610.69 L730.44 610.69 L739.17 610.69 L747.90 610.69 L756.59 610.74 L765.32 610.74 L774.00 610.83 L782.73 610.97 L791.46 611.15 L800.15 611.51 L808.88 612.09 L817.56 613.08 L826.29 614.66 L835.02 617.00 L843.71 620.37 L852.44 624.69 L861.12 629.64 L869.85 634.59 L878.58 638.91 L887.27 642.24 L896.00 644.63 L904.68 646.16 L913.41 647.15 L922.14 647.78 L930.83 648.09 L939.56 648.32 L948.24 648.45 L956.97 648.50 L965.70 648.54 L974.39 648.54 L983.12 648.59 L991.80 648.59 L1000.53 648.59 L1009.26 648.59 L1017.95 648.59 L1026.68 648.59 L1035.36 648.59 L1044.09 648.59 L1052.82 648.59 L1061.51 648.59 L1070.23 648.59 L1078.92 648.59 L1087.65 648.59 L1096.38 648.59 L1105.07 648.59 L1113.80 648.59 L1113.80 632.16 L1105.07 632.16 L1096.38 632.16 L1087.65 632.16 L1078.92 632.16 L1070.23 632.16 L1061.51 632.16 L1052.82 632.16 L1044.09 632.16 L1035.36 632.16 L1026.68 632.16 L1017.95 632.16 L1009.26 632.16 L1000.53 632.16 L991.80 632.16 L983.12 632.16 L974.39 632.12 L965.70 632.12 L956.97 632.07 L948.24 632.03 L939.56 631.89 L930.83 631.67 L922.14 631.35 L913.41 630.72 L904.68 629.78 L896.00 628.20 L887.27 625.82 L878.58 622.49 L869.85 618.17 L861.12 613.22 L852.44 608.27 L843.71 603.94 L835.02 600.62 L826.29 598.23 L817.56 596.66 L808.88 595.67 L800.15 595.08 L791.46 594.72 L782.73 594.54 L774.00 594.41 L765.32 594.32 L756.59 594.32 L747.90 594.27 L739.17 594.27 L730.44 594.27 L721.76 594.27 L713.03 594.27 L704.34 594.27 L695.61 594.27 L686.88 594.27 L678.20 594.27 L669.47 594.27 L660.74 594.27 L652.05 594.27 L643.32 594.27 L634.64 594.27 L625.91 594.27 L617.17 594.27 L608.49 594.27 L608.49 610.69 Z" stroke-linejoin="round" style="fill:#C77CFF;fill-opacity:0.75;stroke:#000000;stroke-width:0.00"/>
	<line x1="77.04" y1="306.54" x2="77.04" y2="527.54" style="stroke:#F8766D;stroke-width:23.04"/>
	<line x1="599.76" y1="41.04" x2="599.76" y2="302.85" style="stroke:#F8766D;stroke-width:23.04"/>
	<line x1="1122.53" y1="41.04" x2="1122.53" y2="483.35" style="stroke:#F8766D;stroke-width:23.04"/>
	<line x1="77.04" y1="607.95" x2="77.04" y2="648.59" style="stroke:#7CAE00;stroke-width:23.04"/>
	<line x1="599.76" y1="622.13" x2="599.76" y2="648.59" style="stroke:#7CAE00;stroke-width:23.04"/>
	<line x1="1122.53" y1="494.78" x2="1122.53" y2="576.50" style="stroke:#7CAE00;stroke-width:23.04"/>
	<line x1="599.76" y1="314.28" x2="599.76" y2="527.54" style="stroke:#00BFC4;stroke-width:23.04"/>
	<line x1="77.04" y1="41.04" x2="77.04" y2="295.07" style="stroke:#00BFC4;stroke-width:23.04"/>
	<line x1="1122.53" y1="587.97" x2="1122.53" y2="620.68" style="stroke:#00BFC4;stroke-width:23.04"/>
	<line x1="599.76" y1="538.97" x2="599.76" y2="610.69" style="stroke:#C77CFF;stroke-width:23.04"/>
	<line x1="77.04" y1="538.97" x2="77.04" y2="596.48" style="stroke:#C77CFF;stroke-width:23.04"/>
	<line x1="1122.53" y1="632.16" x2="1122.53" y2="648.59" style="stroke:#C77CFF;stroke-width:23.04"/>
	<text x="84.38" y="424.59" style="font-family:'Helvetica';font-size:21.60px;fill:#000000">Acquiescent immobility (7589)</text>
	<text x="84.38" y="635.86" style="font-family:'Helvetica';font-size:21.60px;fill:#000000">Involuntary immobility (1395)</text>
	<text x="84.38" y="175.60" style="font-family:'Helvetica';font-size:21.60px;fill:#000000">Voluntary immobility (8723)</text>
	<text x="84.38" y="575.29" style="font-family:'Helvetica';font-size:21.60px;fill:#000000">Mobility (1975)</text>
	<text x="607.10" y="179.52" style="font-family:'Helvetica';font-size:21.60px;fill:#000000">Acquiescent immobility (8990)</text>
	<text x="607.10" y="428.50" style="font-family:'Helvetica';font-size:21.60px;fill:#000000">Voluntary immobility (7322)</text>
	<text x="607.10" y="642.93" style="font-family:'Helvetica';font-size:21.60px;fill:#000000">Involuntary immobility (908)</text>
	<text x="607.10" y="582.40" style="font-family:'Helvetica';font-size:21.60px;fill:#000000">Mobility (2462)</text>
	<text x="1129.86" y="543.21" style="font-family:'Helvetica';font-size:21.60px;fill:#000000">Involuntary immobility (2806)</text>
	<text x="1129.86" y="269.74" style="font-family:'Helvetica';font-size:21.60px;fill:#000000">Acquiescent immobility (15188)</text>
	<text x="1129.86" y="611.92" style="font-family:'Helvetica';font-size:21.60px;fill:#000000">Voluntary immobility (1124)</text>
	<text x="1129.86" y="647.92" style="font-family:'Helvetica';font-size:21.60px;fill:#000000">Mobility (564)</text>
	<text x="77.04" y="685.27" style="font-family:'Helvetica';font-weight:bold;font-size:18.00px;fill:#000000" text-anchor="middle">Employment</text>
	<text x="599.76" y="685.27" style="font-family:'Helvetica';font-weight:bold;font-size:18.00px;fill:#000000" text-anchor="middle">Secondary</text>
	<text x="1122.48" y="685.27" style="font-family:'Helvetica';font-weight:bold;font-size:18.00px;fill:#000000" text-anchor="middle">College</text>
</svg>
