<?xml version="1.0" encoding="UTF-8" standalone="no"?>
<!-- This is a Stata 19.5 generated SVG file (http://www.stata.com) -->

<svg version="1.1" width="2.000in" height="1.000in" viewBox="0 0 1440 720" xmlns="http://www.w3.org/2000/svg" xmlns:xlink="http://www.w3.org/1999/xlink">
	<desc>Stata Graph - Graph</desc>
	<rect x="0" y="0" width="1440" height="720" style="fill:#FFFFFF;stroke:none"/>
	<rect x="0.00" y="0.00" width="1440.00" height="720.00" style="fill:#FFFFFF"/>
	<rect x="1.50" y="1.50" width="1437.00" height="717.00" style="fill:none;stroke:#FFFFFF;stroke-width:3.00"/>
	<rect x="25.20" y="25.20" width="1389.60" height="669.60" style="fill:#FFFFFF"/>
	<rect x="26.70" y="26.70" width="1386.60" height="666.60" style="fill:none;stroke:#FFFFFF;stroke-width:3.00"/>
	<path d="
M85.77 439.70 L85.77 439.70 L94.46 439.70 L103.19 439.70 L111.87 439.70 L120.60 439.70 L129.33 439.70 L138.01 439.70 L146.75 439.70 L155.43 439.70 L164.16 439.70 L172.89 439.70 L181.58 439.70 L190.31 439.70 L198.99 439.65 L207.72 439.65 L216.45 439.61 L225.14 439.52 L233.87 439.38 L242.55 439.11 L251.28 438.66 L260.01 437.85 L268.70 436.37 L277.43 433.89 L286.15 429.71 L294.84 422.87 L303.57 411.89 L312.26 395.28 L320.99 371.79 L329.72 341.55 L338.40 306.95 L347.13 272.34 L355.82 242.10 L364.55 218.61 L373.28 202.01 L381.96 191.07 L390.69 184.18 L399.38 180.00 L408.11 177.52 L416.84 176.09 L425.52 175.23 L434.25 174.78 L442.94 174.51 L451.67 174.38 L460.40 174.28 L469.08 174.24 L477.81 174.24 L486.50 174.24 L495.23 174.20 L503.96 174.20 L512.64 174.20 L521.37 174.20 L530.05 174.20 L538.79 174.20 L547.52 174.20 L556.20 174.20 L564.93 174.20 L573.62 174.20 L582.35 174.20 L591.08 174.20 L591.08 41.04 L582.35 41.04 L573.62 41.04 L564.93 41.04 L556.20 41.04 L547.52 41.04 L538.79 41.04 L530.05 41.04 L521.37 41.04 L512.64 41.04 L503.96 41.04 L495.23 41.04 L486.50 41.04 L477.81 41.04 L469.08 41.09 L460.40 41.13 L451.67 41.22 L442.94 41.36 L434.25 41.63 L425.52 42.08 L416.84 42.88 L408.11 44.37 L399.38 46.85 L390.69 51.03 L381.96 57.87 L373.28 68.85 L364.55 85.46 L355.82 108.95 L347.13 139.18 L338.40 173.79 L329.72 208.40 L320.99 238.64 L312.26 262.13 L303.57 278.73 L294.84 289.67 L286.15 296.55 L277.43 300.74 L268.70 303.21 L260.01 304.65 L251.28 305.51 L242.55 305.96 L233.87 306.23 L225.14 306.36 L216.45 306.45 L207.72 306.50 L198.99 306.50 L190.31 306.50 L181.58 306.54 L172.89 306.54 L164.16 306.54 L155.43 306.54 L146.75 306.54 L138.01 306.54 L129.33 306.54 L120.60 306.54 L111.87 306.54 L103.19 306.54 L94.46 306.54 L85.77 306.54 L85.77 439.70 Z" stroke-linejoin="round" style="fill:#F8766D;fill-opacity:0.75;stroke:#000000;stroke-width:0.00"/>
	<path d="
M608.49 234.05 L608.49 234.05 L617.17 234.05 L625.91 234.05 L634.64 234.05 L643.32 234.05 L652.05 234.05 L660.74 234.05 L669.47 234.05 L678.20 234.05 L686.88 234.05 L695.61 234.05 L704.34 234.05 L713.03 234.05 L721.76 234.05 L730.44 234.05 L739.17 234.05 L747.90 234.09 L756.59 234.09 L765.32 234.18 L774.00 234.32 L782.73 234.54 L791.46 234.95 L800.15 235.67 L808.88 236.83 L817.56 238.82 L826.29 241.92 L835.02 246.65 L843.71 253.31 L852.44 261.90 L861.12 271.71 L869.85 281.52 L878.58 290.12 L887.27 296.77 L896.00 301.50 L904.68 304.61 L913.41 306.54 L922.14 307.76 L930.83 308.43 L939.56 308.88 L948.24 309.11 L956.97 309.24 L965.70 309.29 L974.39 309.33 L983.12 309.38 L991.80 309.38 L1000.53 309.38 L1009.26 309.38 L1017.95 309.38 L1026.68 309.38 L1035.36 309.38 L1044.09 309.38 L1052.82 309.38 L1061.51 309.38 L1070.23 309.38 L1078.92 309.38 L1087.65 309.38 L1096.38 309.38 L1105.07 309.38 L1113.80 309.38 L1113.80 135.14 L1105.07 135.14 L1096.38 135.14 L1087.65 135.14 L1078.92 135.14 L1070.23 135.14 L1061.51 135.14 L1052.82 135.14 L1044.09 135.14 L1035.36 135.14 L1026.68 135.14 L1017.95 135.14 L1009.26 135.14 L1000.53 135.14 L991.80 135.14 L983.12 135.09 L974.39 135.09 L965.70 135.04 L956.97 134.96 L948.24 134.82 L939.56 134.60 L930.83 134.19 L922.14 133.47 L913.41 132.30 L904.68 130.37 L896.00 127.26 L887.27 122.53 L878.58 115.88 L869.85 107.28 L861.12 97.42 L852.44 87.62 L843.71 79.02 L835.02 72.36 L826.29 67.63 L817.56 64.53 L808.88 62.60 L800.15 61.42 L791.46 60.71 L782.73 60.30 L774.00 60.08 L765.32 59.94 L756.59 59.85 L747.90 59.80 L739.17 59.80 L730.44 59.76 L721.76 59.76 L713.03 59.76 L704.34 59.76 L695.61 59.76 L686.88 59.76 L678.20 59.76 L669.47 59.76 L660.74 59.76 L652.05 59.76 L643.32 59.76 L634.64 59.76 L625.91 59.76 L617.17 59.76 L608.49 59.76 L608.49 234.05 Z" stroke-linejoin="round" style="fill:#F8766D;fill-opacity:0.75;stroke:#000000;stroke-width:0.00"/>
	<path d="
M85.77 527.54 L85.77 527.54 L94.46 527.54 L103.19 527.54 L111.87 527.54 L120.60 527.54 L129.33 527.54 L138.01 527.54 L146.75 527.54 L155.43 527.54 L164.16 527.54 L172.89 527.54 L181.58 527.54 L190.31 527.54 L198.99 527.54 L207.72 527.54 L216.45 527.54 L225.14 527.54 L233.87 527.54 L242.55 527.54 L251.28 527.54 L260.01 527.54 L268.70 527.54 L277.43 527.54 L286.15 527.54 L294.84 527.54 L303.57 527.54 L312.26 527.54 L320.99 527.54 L329.72 527.54 L338.40 527.54 L347.13 527.54 L355.82 527.54 L364.55 527.54 L373.28 527.54 L381.96 527.54 L390.69 527.54 L399.38 527.54 L408.11 527.54 L416.84 527.54 L425.52 527.54 L434.25 527.54 L442.94 527.54 L451.67 527.54 L460.40 527.54 L469.08 527.54 L477.81 527.54 L486.50 527.54 L495.23 527.54 L503.96 527.54 L512.64 527.54 L521.37 527.54 L530.05 527.54 L538.79 527.54 L547.52 527.54 L556.20 527.54 L564.93 527.54 L573.62 527.54 L582.35 527.54 L591.08 527.54 L591.08 439.70 L582.35 439.70 L573.62 439.70 L564.93 439.70 L556.20 439.70 L547.52 439.70 L538.79 439.70 L530.05 439.70 L521.37 439.70 L512.64 439.70 L503.96 439.70 L495.23 439.70 L486.50 439.70 L477.81 439.70 L469.08 439.70 L460.40 439.70 L451.67 439.70 L442.94 439.70 L434.25 439.70 L425.52 439.70 L416.84 439.70 L408.11 439.70 L399.38 439.70 L390.69 439.70 L381.96 439.70 L373.28 439.70 L364.55 439.70 L355.82 439.70 L347.13 439.70 L338.40 439.70 L329.72 439.70 L320.99 439.70 L312.26 439.70 L303.57 439.70 L294.84 439.70 L286.15 439.70 L277.43 439.70 L268.70 439.70 L260.01 439.70 L251.28 439.70 L242.55 439.70 L233.87 439.70 L225.14 439.70 L216.45 439.70 L207.72 439.70 L198.99 439.70 L190.31 439.70 L181.58 439.70 L172.89 439.70 L164.16 439.70 L155.43 439.70 L146.75 439.70 L138.01 439.70 L129.33 439.70 L120.60 439.70 L111.87 439.70 L103.19 439.70 L94.46 439.70 L85.77 439.70 L85.77 527.54 Z" stroke-linejoin="round" style="fill:#F8766D;fill-opacity:0.75;stroke:#000000;stroke-width:0.00"/>
	<path d="
M608.49 284.13 L608.49 284.13 L617.17 284.13 L625.91 284.13 L634.64 284.13 L643.32 284.13 L652.05 284.13 L660.74 284.13 L669.47 284.13 L678.20 284.13 L686.88 284.13 L695.61 284.13 L704.34 284.13 L713.03 284.13 L721.76 284.13 L730.44 284.13 L739.17 284.18 L747.90 284.27 L756.59 284.40 L765.32 284.67 L774.00 285.12 L782.73 285.93 L791.46 287.37 L800.15 289.80 L808.88 293.90 L817.56 300.65 L826.29 311.40 L835.02 327.74 L843.71 350.82 L852.44 380.57 L861.12 414.54 L869.85 448.52 L878.58 478.26 L887.27 501.35 L896.00 517.64 L904.68 528.39 L913.41 535.18 L922.14 539.28 L930.83 541.71 L939.56 543.15 L948.24 543.96 L956.97 544.41 L965.70 544.68 L974.39 544.82 L983.12 544.91 L991.80 544.91 L1000.53 544.95 L1009.26 544.95 L1017.95 544.95 L1026.68 544.95 L1035.36 544.95 L1044.09 544.95 L1052.82 544.95 L1061.51 544.95 L1070.23 544.95 L1078.92 544.95 L1087.65 544.95 L1096.38 544.95 L1105.07 544.95 L1113.80 544.95 L1113.80 494.87 L1105.07 494.87 L1096.38 494.87 L1087.65 494.87 L1078.92 494.87 L1070.23 494.87 L1061.51 494.87 L1052.82 494.87 L1044.09 494.87 L1035.36 494.87 L1026.68 494.87 L1017.95 494.87 L1009.26 494.87 L1000.53 494.87 L991.80 494.82 L983.12 494.78 L974.39 494.73 L965.70 494.60 L956.97 494.33 L948.24 493.88 L939.56 493.07 L930.83 491.63 L922.14 489.20 L913.41 485.10 L904.68 478.31 L896.00 467.55 L887.27 451.26 L878.58 428.18 L869.85 398.43 L861.12 364.46 L852.44 330.48 L843.71 300.74 L835.02 277.65 L826.29 261.32 L817.56 250.56 L808.88 243.81 L800.15 239.71 L791.46 237.29 L782.73 235.85 L774.00 235.04 L765.32 234.58 L756.59 234.32 L747.90 234.18 L739.17 234.09 L730.44 234.05 L721.76 234.05 L713.03 234.05 L704.34 234.05 L695.61 234.05 L686.88 234.05 L678.20 234.05 L669.47 234.05 L660.74 234.05 L652.05 234.05 L643.32 234.05 L634.64 234.05 L625.91 234.05 L617.17 234.05 L608.49 234.05 L608.49 284.13 Z" stroke-linejoin="round" style="fill:#F8766D;fill-opacity:0.75;stroke:#000000;stroke-width:0.00"/>
	<path d="
M85.77 648.59 L85.77 648.59 L94.46 648.59 L103.19 648.59 L111.87 648.59 L120.60 648.59 L129.33 648.59 L138.01 648.59 L146.75 648.59 L155.43 648.59 L164.16 648.59 L172.89 648.59 L181.58 648.59 L190.31 648.59 L198.99 648.59 L207.72 648.59 L216.45 648.59 L225.14 648.59 L233.87 648.59 L242.55 648.59 L251.28 648.59 L260.01 648.59 L268.70 648.59 L277.43 648.59 L286.15 648.59 L294.84 648.59 L303.57 648.59 L312.26 648.59 L320.99 648.59 L329.72 648.59 L338.40 648.59 L347.13 648.59 L355.82 648.59 L364.55 648.59 L373.28 648.59 L381.96 648.59 L390.69 648.59 L399.38 648.59 L408.11 648.59 L416.84 648.59 L425.52 648.59 L434.25 648.59 L442.94 648.59 L451.67 648.59 L460.40 648.59 L469.08 648.59 L477.81 648.59 L486.50 648.59 L495.23 648.59 L503.96 648.59 L512.64 648.59 L521.37 648.59 L530.05 648.59 L538.79 648.59 L547.52 648.59 L556.20 648.59 L564.93 648.59 L573.62 648.59 L582.35 648.59 L591.08 648.59 L591.08 638.19 L582.35 638.19 L573.62 638.19 L564.93 638.19 L556.20 638.19 L547.52 638.19 L538.79 638.19 L530.05 638.19 L521.37 638.19 L512.64 638.19 L503.96 638.19 L495.23 638.19 L486.50 638.19 L477.81 638.19 L469.08 638.19 L460.40 638.19 L451.67 638.19 L442.94 638.19 L434.25 638.19 L425.52 638.19 L416.84 638.19 L408.11 638.19 L399.38 638.19 L390.69 638.19 L381.96 638.19 L373.28 638.19 L364.55 638.19 L355.82 638.19 L347.13 638.19 L338.40 638.19 L329.72 638.19 L320.99 638.19 L312.26 638.19 L303.57 638.19 L294.84 638.19 L286.15 638.19 L277.43 638.19 L268.70 638.19 L260.01 638.19 L251.28 638.19 L242.55 638.19 L233.87 638.19 L225.14 638.19 L216.45 638.19 L207.72 638.19 L198.99 638.19 L190.31 638.19 L181.58 638.19 L172.89 638.19 L164.16 638.19 L155.43 638.19 L146.75 638.19 L138.01 638.19 L129.33 638.19 L120.60 638.19 L111.87 638.19 L103.19 638.19 L94.46 638.19 L85.77 638.19 L85.77 648.59 Z" stroke-linejoin="round" style="fill:#7CAE00;fill-opacity:0.75;stroke:#000000;stroke-width:0.00"/>
	<path d="
M608.49 639.36 L608.49 639.36 L617.17 639.36 L625.91 639.36 L634.64 639.36 L643.32 639.36 L652.05 639.36 L660.74 639.36 L669.47 639.36 L678.20 639.36 L686.88 639.36 L695.61 639.36 L704.34 639.36 L713.03 639.36 L721.76 639.36 L730.44 639.36 L739.17 639.36 L747.90 639.32 L756.59 639.32 L765.32 639.27 L774.00 639.18 L782.73 639.04 L791.46 638.82 L800.15 638.46 L808.88 637.79 L817.56 636.71 L826.29 635.00 L835.02 632.39 L843.71 628.69 L852.44 623.92 L861.12 618.48 L869.85 613.04 L878.58 608.31 L887.27 604.62 L896.00 602.01 L904.68 600.30 L913.41 599.22 L922.14 598.54 L930.83 598.14 L939.56 597.92 L948.24 597.78 L956.97 597.74 L965.70 597.69 L974.39 597.65 L983.12 597.65 L991.80 597.65 L1000.53 597.65 L1009.26 597.65 L1017.95 597.65 L1026.68 597.65 L1035.36 597.65 L1044.09 597.65 L1052.82 597.65 L1061.51 597.65 L1070.23 597.65 L1078.92 597.65 L1087.65 597.65 L1096.38 597.65 L1105.07 597.65 L1113.80 597.65 L1113.80 582.71 L1105.07 582.71 L1096.38 582.71 L1087.65 582.71 L1078.92 582.71 L1070.23 582.71 L1061.51 582.71 L1052.82 582.71 L1044.09 582.71 L1035.36 582.71 L1026.68 582.71 L1017.95 582.71 L1009.26 582.71 L1000.53 582.71 L991.80 582.75 L983.12 582.75 L974.39 582.75 L965.70 582.75 L956.97 582.79 L948.24 582.89 L939.56 583.02 L930.83 583.25 L922.14 583.65 L913.41 584.28 L904.68 585.36 L896.00 587.07 L887.27 589.68 L878.58 593.37 L869.85 598.14 L861.12 603.59 L852.44 609.03 L843.71 613.76 L835.02 617.44 L826.29 620.06 L817.56 621.81 L808.88 622.89 L800.15 623.52 L791.46 623.92 L782.73 624.15 L774.00 624.29 L765.32 624.38 L756.59 624.38 L747.90 624.42 L739.17 624.42 L730.44 624.42 L721.76 624.42 L713.03 624.42 L704.34 624.42 L695.61 624.42 L686.88 624.42 L678.20 624.42 L669.47 624.42 L660.74 624.42 L652.05 624.42 L643.32 624.42 L634.64 624.42 L625.91 624.42 L617.17 624.42 L608.49 624.42 L608.49 639.36 Z" stroke-linejoin="round" style="fill:#7CAE00;fill-opacity:0.75;stroke:#000000;stroke-width:0.00"/>
	<path d="
M85.77 638.19 L85.77 638.19 L94.46 638.19 L103.19 638.19 L111.87 638.19 L120.60 638.19 L129.33 638.19 L138.01 638.19 L146.75 638.19 L155.43 638.19 L164.16 638.19 L172.89 638.19 L181.58 638.19 L190.31 638.19 L198.99 638.19 L207.72 638.19 L216.45 638.19 L225.14 638.19 L233.87 638.15 L242.55 638.15 L251.28 638.10 L260.01 638.01 L268.70 637.83 L277.43 637.61 L286.15 637.16 L294.84 636.43 L303.57 635.31 L312.26 633.60 L320.99 631.17 L329.72 628.02 L338.40 624.42 L347.13 620.87 L355.82 617.72 L364.55 615.29 L373.28 613.58 L381.96 612.41 L390.69 611.73 L399.38 611.28 L408.11 611.01 L416.84 610.88 L425.52 610.79 L434.25 610.74 L442.94 610.69 L451.67 610.69 L460.40 610.69 L469.08 610.69 L477.81 610.69 L486.50 610.69 L495.23 610.69 L503.96 610.69 L512.64 610.69 L521.37 610.69 L530.05 610.69 L538.79 610.69 L547.52 610.69 L556.20 610.69 L564.93 610.69 L573.62 610.69 L582.35 610.69 L591.08 610.69 L591.08 580.46 L582.35 580.46 L573.62 580.46 L564.93 580.46 L556.20 580.46 L547.52 580.46 L538.79 580.46 L530.05 580.46 L521.37 580.46 L512.64 580.46 L503.96 580.46 L495.23 580.46 L486.50 580.46 L477.81 580.46 L469.08 580.46 L460.40 580.46 L451.67 580.46 L442.94 580.50 L434.25 580.50 L425.52 580.54 L416.84 580.64 L408.11 580.82 L399.38 581.04 L390.69 581.49 L381.96 582.21 L373.28 583.34 L364.55 585.04 L355.82 587.48 L347.13 590.63 L338.40 594.23 L329.72 597.78 L320.99 600.93 L312.26 603.36 L303.57 605.07 L294.84 606.19 L286.15 606.92 L277.43 607.37 L268.70 607.64 L260.01 607.77 L251.28 607.86 L242.55 607.91 L233.87 607.95 L225.14 607.95 L216.45 607.95 L207.72 607.95 L198.99 607.95 L190.31 607.95 L181.58 607.95 L172.89 607.95 L164.16 607.95 L155.43 607.95 L146.75 607.95 L138.01 607.95 L129.33 607.95 L120.60 607.95 L111.87 607.95 L103.19 607.95 L94.46 607.95 L85.77 607.95 L85.77 638.19 Z" stroke-linejoin="round" style="fill:#7CAE00;fill-opacity:0.75;stroke:#000000;stroke-width:0.00"/>
	<path d="
M608.49 646.29 L608.49 646.29 L617.17 646.29 L625.91 646.29 L634.64 646.29 L643.32 646.29 L652.05 646.29 L660.74 646.29 L669.47 646.29 L678.20 646.29 L686.88 646.29 L695.61 646.29 L704.34 646.29 L713.03 646.29 L721.76 646.29 L730.44 646.29 L739.17 646.29 L747.90 646.29 L756.59 646.29 L765.32 646.29 L774.00 646.29 L782.73 646.29 L791.46 646.29 L800.15 646.34 L808.88 646.38 L817.56 646.42 L826.29 646.52 L835.02 646.65 L843.71 646.88 L852.44 647.15 L861.12 647.42 L869.85 647.73 L878.58 648.00 L887.27 648.18 L896.00 648.36 L904.68 648.45 L913.41 648.50 L922.14 648.54 L930.83 648.54 L939.56 648.59 L948.24 648.59 L956.97 648.59 L965.70 648.59 L974.39 648.59 L983.12 648.59 L991.80 648.59 L1000.53 648.59 L1009.26 648.59 L1017.95 648.59 L1026.68 648.59 L1035.36 648.59 L1044.09 648.59 L1052.82 648.59 L1061.51 648.59 L1070.23 648.59 L1078.92 648.59 L1087.65 648.59 L1096.38 648.59 L1105.07 648.59 L1113.80 648.59 L1113.80 641.66 L1105.07 641.66 L1096.38 641.66 L1087.65 641.66 L1078.92 641.66 L1070.23 641.66 L1061.51 641.66 L1052.82 641.66 L1044.09 641.66 L1035.36 641.66 L1026.68 641.66 L1017.95 641.66 L1009.26 641.66 L1000.53 641.66 L991.80 641.66 L983.12 641.66 L974.39 641.66 L965.70 641.66 L956.97 641.66 L948.24 641.66 L939.56 641.66 L930.83 641.61 L922.14 641.61 L913.41 641.57 L904.68 641.52 L896.00 641.43 L887.27 641.25 L878.58 641.07 L869.85 640.80 L861.12 640.49 L852.44 640.22 L843.71 639.94 L835.02 639.72 L826.29 639.59 L817.56 639.50 L808.88 639.45 L800.15 639.41 L791.46 639.36 L782.73 639.36 L774.00 639.36 L765.32 639.36 L756.59 639.36 L747.90 639.36 L739.17 639.36 L730.44 639.36 L721.76 639.36 L713.03 639.36 L704.34 639.36 L695.61 639.36 L686.88 639.36 L678.20 639.36 L669.47 639.36 L660.74 639.36 L652.05 639.36 L643.32 639.36 L634.64 639.36 L625.91 639.36 L617.17 639.36 L608.49 639.36 L608.49 646.29 Z" stroke-linejoin="round" style="fill:#7CAE00;fill-opacity:0.75;stroke:#000000;stroke-width:0.00"/>
	<path d="
M85.77 169.65 L85.77 169.65 L94.46 169.65 L103.19 169.65 L111.87 169.65 L120.60 169.65 L129.33 169.65 L138.01 169.65 L146.75 169.65 L155.43 169.65 L164.16 169.65 L172.89 169.65 L181.58 169.65 L190.31 169.65 L198.99 169.70 L207.72 169.70 L216.45 169.70 L225.14 169.74 L233.87 169.83 L242.55 169.97 L251.28 170.19 L260.01 170.60 L268.70 171.32 L277.43 172.58 L286.15 174.65 L294.84 178.11 L303.57 183.60 L312.26 191.92 L320.99 203.72 L329.72 218.88 L338.40 236.25 L347.13 253.62 L355.82 268.79 L364.55 280.58 L373.28 288.90 L381.96 294.39 L390.69 297.86 L399.38 299.93 L408.11 301.19 L416.84 301.90 L425.52 302.31 L434.25 302.54 L442.94 302.67 L451.67 302.76 L460.40 302.81 L469.08 302.81 L477.81 302.81 L486.50 302.85 L495.23 302.85 L503.96 302.85 L512.64 302.85 L521.37 302.85 L530.05 302.85 L538.79 302.85 L547.52 302.85 L556.20 302.85 L564.93 302.85 L573.62 302.85 L582.35 302.85 L591.08 302.85 L591.08 174.20 L582.35 174.20 L573.62 174.20 L564.93 174.20 L556.20 174.20 L547.52 174.20 L538.79 174.20 L530.05 174.20 L521.37 174.20 L512.64 174.20 L503.96 174.20 L495.23 174.20 L486.50 174.20 L477.81 174.20 L469.08 174.20 L460.40 174.15 L451.67 174.15 L442.94 174.06 L434.25 173.92 L425.52 173.70 L416.84 173.29 L408.11 172.53 L399.38 171.32 L390.69 169.20 L381.96 165.78 L373.28 160.25 L364.55 151.92 L355.82 140.17 L347.13 124.97 L338.40 107.64 L329.72 90.27 L320.99 75.11 L312.26 63.32 L303.57 54.99 L294.84 49.50 L286.15 46.03 L277.43 43.97 L268.70 42.71 L260.01 41.99 L251.28 41.58 L242.55 41.31 L233.87 41.17 L225.14 41.13 L216.45 41.09 L207.72 41.04 L198.99 41.04 L190.31 41.04 L181.58 41.04 L172.89 41.04 L164.16 41.04 L155.43 41.04 L146.75 41.04 L138.01 41.04 L129.33 41.04 L120.60 41.04 L111.87 41.04 L103.19 41.04 L94.46 41.04 L85.77 41.04 L85.77 169.65 Z" stroke-linejoin="round" style="fill:#00BFC4;fill-opacity:0.75;stroke:#000000;stroke-width:0.00"/>
	<path d="
M608.49 507.92 L608.49 507.92 L617.17 507.92 L625.91 507.92 L634.64 507.92 L643.32 507.92 L652.05 507.92 L660.74 507.92 L669.47 507.92 L678.20 507.92 L686.88 507.92 L695.61 507.92 L704.34 507.92 L713.03 507.92 L721.76 507.92 L730.44 507.92 L739.17 507.87 L747.90 507.87 L756.59 507.78 L765.32 507.69 L774.00 507.47 L782.73 507.11 L791.46 506.48 L800.15 505.35 L808.88 503.51 L817.56 500.49 L826.29 495.63 L835.02 488.29 L843.71 477.90 L852.44 464.49 L861.12 449.19 L869.85 433.89 L878.58 420.48 L887.27 410.09 L896.00 402.75 L904.68 397.94 L913.41 394.88 L922.14 393.03 L930.83 391.91 L939.56 391.28 L948.24 390.92 L956.97 390.69 L965.70 390.60 L974.39 390.51 L983.12 390.51 L991.80 390.47 L1000.53 390.47 L1009.26 390.47 L1017.95 390.47 L1026.68 390.47 L1035.36 390.47 L1044.09 390.47 L1052.82 390.47 L1061.51 390.47 L1070.23 390.47 L1078.92 390.47 L1087.65 390.47 L1096.38 390.47 L1105.07 390.47 L1113.80 390.47 L1113.80 309.38 L1105.07 309.38 L1096.38 309.38 L1087.65 309.38 L1078.92 309.38 L1070.23 309.38 L1061.51 309.38 L1052.82 309.38 L1044.09 309.38 L1035.36 309.38 L1026.68 309.38 L1017.95 309.38 L1009.26 309.38 L1000.53 309.38 L991.80 309.42 L983.12 309.42 L974.39 309.46 L965.70 309.51 L956.97 309.65 L948.24 309.83 L939.56 310.23 L930.83 310.86 L922.14 311.94 L913.41 313.79 L904.68 316.85 L896.00 321.71 L887.27 329.04 L878.58 339.44 L869.85 352.80 L861.12 368.10 L852.44 383.45 L843.71 396.81 L835.02 407.21 L826.29 414.54 L817.56 419.40 L808.88 422.46 L800.15 424.31 L791.46 425.39 L782.73 426.02 L774.00 426.38 L765.32 426.60 L756.59 426.74 L747.90 426.78 L739.17 426.83 L730.44 426.83 L721.76 426.83 L713.03 426.83 L704.34 426.87 L695.61 426.87 L686.88 426.87 L678.20 426.87 L669.47 426.87 L660.74 426.87 L652.05 426.87 L643.32 426.87 L634.64 426.87 L625.91 426.87 L617.17 426.87 L608.49 426.87 L608.49 507.92 Z" stroke-linejoin="round" style="fill:#00BFC4;fill-opacity:0.75;stroke:#000000;stroke-width:0.00"/>
	<path d="
M85.77 295.07 L85.77 295.07 L94.46 295.07 L103.19 295.07 L111.87 295.07 L120.60 295.07 L129.33 295.07 L138.01 295.07 L146.75 295.07 L155.43 295.07 L164.16 295.07 L172.89 295.07 L181.58 295.07 L190.31 295.07 L198.99 295.07 L207.72 295.07 L216.45 295.11 L225.14 295.15 L233.87 295.25 L242.55 295.38 L251.28 295.61 L260.01 296.06 L268.70 296.87 L277.43 298.21 L286.15 300.51 L294.84 304.25 L303.57 310.19 L312.26 319.23 L320.99 332.06 L329.72 348.53 L338.40 367.38 L347.13 386.24 L355.82 402.71 L364.55 415.49 L373.28 424.53 L381.96 430.52 L390.69 434.25 L399.38 436.55 L408.11 437.90 L416.84 438.66 L425.52 439.11 L434.25 439.38 L442.94 439.52 L451.67 439.61 L460.40 439.65 L469.08 439.65 L477.81 439.70 L486.50 439.70 L495.23 439.70 L503.96 439.70 L512.64 439.70 L521.37 439.70 L530.05 439.70 L538.79 439.70 L547.52 439.70 L556.20 439.70 L564.93 439.70 L573.62 439.70 L582.35 439.70 L591.08 439.70 L591.08 314.28 L582.35 314.28 L573.62 314.28 L564.93 314.28 L556.20 314.28 L547.52 314.28 L538.79 314.28 L530.05 314.28 L521.37 314.28 L512.64 314.28 L503.96 314.28 L495.23 314.28 L486.50 314.28 L477.81 314.28 L469.08 314.28 L460.40 314.24 L451.67 314.19 L442.94 314.15 L434.25 314.01 L425.52 313.74 L416.84 313.29 L408.11 312.48 L399.38 311.13 L390.69 308.88 L381.96 305.10 L373.28 299.16 L364.55 290.12 L355.82 277.29 L347.13 260.82 L338.40 241.96 L329.72 223.15 L320.99 206.64 L312.26 193.86 L303.57 184.82 L294.84 178.83 L286.15 175.10 L277.43 172.80 L268.70 171.45 L260.01 170.68 L251.28 170.24 L242.55 169.97 L233.87 169.83 L225.14 169.74 L216.45 169.70 L207.72 169.70 L198.99 169.70 L190.31 169.65 L181.58 169.65 L172.89 169.65 L164.16 169.65 L155.43 169.65 L146.75 169.65 L138.01 169.65 L129.33 169.65 L120.60 169.65 L111.87 169.65 L103.19 169.65 L94.46 169.65 L85.77 169.65 L85.77 295.07 Z" stroke-linejoin="round" style="fill:#00BFC4;fill-opacity:0.75;stroke:#000000;stroke-width:0.00"/>
	<path d="
M608.49 426.87 L608.49 426.87 L617.17 426.87 L625.91 426.87 L634.64 426.87 L643.32 426.87 L652.05 426.87 L660.74 426.87 L669.47 426.87 L678.20 426.87 L686.88 426.87 L695.61 426.87 L704.34 426.87 L713.03 426.87 L721.76 426.87 L730.44 426.87 L739.17 426.87 L747.90 426.87 L756.59 426.92 L765.32 427.01 L774.00 427.10 L782.73 427.32 L791.46 427.68 L800.15 428.36 L808.88 429.39 L817.56 431.15 L826.29 433.98 L835.02 438.21 L843.71 444.24 L852.44 451.98 L861.12 460.85 L869.85 469.71 L878.58 477.50 L887.27 483.48 L896.00 487.76 L904.68 490.54 L913.41 492.30 L922.14 493.38 L930.83 494.01 L939.56 494.42 L948.24 494.60 L956.97 494.73 L965.70 494.82 L974.39 494.82 L983.12 494.87 L991.80 494.87 L1000.53 494.87 L1009.26 494.87 L1017.95 494.87 L1026.68 494.87 L1035.36 494.87 L1044.09 494.87 L1052.82 494.87 L1061.51 494.87 L1070.23 494.87 L1078.92 494.87 L1087.65 494.87 L1096.38 494.87 L1105.07 494.87 L1113.80 494.87 L1113.80 401.94 L1105.07 401.94 L1096.38 401.94 L1087.65 401.94 L1078.92 401.94 L1070.23 401.94 L1061.51 401.94 L1052.82 401.94 L1044.09 401.94 L1035.36 401.94 L1026.68 401.94 L1017.95 401.94 L1009.26 401.94 L1000.53 401.90 L991.80 401.90 L983.12 401.90 L974.39 401.90 L965.70 401.85 L956.97 401.76 L948.24 401.67 L939.56 401.45 L930.83 401.09 L922.14 400.46 L913.41 399.38 L904.68 397.62 L896.00 394.79 L887.27 390.56 L878.58 384.53 L869.85 376.79 L861.12 367.92 L852.44 359.06 L843.71 351.32 L835.02 345.29 L826.29 341.01 L817.56 338.22 L808.88 336.47 L800.15 335.39 L791.46 334.76 L782.73 334.40 L774.00 334.17 L765.32 334.04 L756.59 333.99 L747.90 333.95 L739.17 333.90 L730.44 333.90 L721.76 333.90 L713.03 333.90 L704.34 333.90 L695.61 333.90 L686.88 333.90 L678.20 333.90 L669.47 333.90 L660.74 333.90 L652.05 333.90 L643.32 333.90 L634.64 333.90 L625.91 333.90 L617.17 333.90 L608.49 333.90 L608.49 426.87 Z" stroke-linejoin="round" style="fill:#00BFC4;fill-opacity:0.75;stroke:#000000;stroke-width:0.00"/>
	<path d="
M85.77 596.48 L85.77 596.48 L94.46 596.48 L103.19 596.48 L111.87 596.48 L120.60 596.48 L129.33 596.48 L138.01 596.48 L146.75 596.48 L155.43 596.48 L164.16 596.48 L172.89 596.48 L181.58 596.48 L190.31 596.52 L198.99 596.52 L207.72 596.52 L216.45 596.52 L225.14 596.52 L233.87 596.57 L242.55 596.57 L251.28 596.66 L260.01 596.79 L268.70 597.02 L277.43 597.42 L286.15 598.05 L294.84 599.13 L303.57 600.84 L312.26 603.45 L320.99 607.14 L329.72 611.91 L338.40 617.36 L347.13 622.76 L355.82 627.53 L364.55 631.22 L373.28 633.83 L381.96 635.54 L390.69 636.62 L399.38 637.29 L408.11 637.65 L416.84 637.88 L425.52 638.01 L434.25 638.10 L442.94 638.15 L451.67 638.15 L460.40 638.19 L469.08 638.19 L477.81 638.19 L486.50 638.19 L495.23 638.19 L503.96 638.19 L512.64 638.19 L521.37 638.19 L530.05 638.19 L538.79 638.19 L547.52 638.19 L556.20 638.19 L564.93 638.19 L573.62 638.19 L582.35 638.19 L591.08 638.19 L591.08 622.13 L582.35 622.13 L573.62 622.13 L564.93 622.13 L556.20 622.13 L547.52 622.13 L538.79 622.13 L530.05 622.13 L521.37 622.13 L512.64 622.13 L503.96 622.13 L495.23 622.13 L486.50 622.13 L477.81 622.13 L469.08 622.13 L460.40 622.13 L451.67 622.13 L442.94 622.08 L434.25 622.04 L425.52 621.99 L416.84 621.86 L408.11 621.63 L399.38 621.23 L390.69 620.60 L381.96 619.52 L373.28 617.76 L364.55 615.15 L355.82 611.46 L347.13 606.74 L338.40 601.29 L329.72 595.85 L320.99 591.12 L312.26 587.43 L303.57 584.82 L294.84 583.11 L286.15 582.03 L277.43 581.36 L268.70 580.95 L260.01 580.73 L251.28 580.64 L242.55 580.54 L233.87 580.50 L225.14 580.46 L216.45 580.46 L207.72 580.46 L198.99 580.46 L190.31 580.46 L181.58 580.46 L172.89 580.46 L164.16 580.46 L155.43 580.46 L146.75 580.46 L138.01 580.46 L129.33 580.46 L120.60 580.46 L111.87 580.46 L103.19 580.46 L94.46 580.46 L85.77 580.46 L85.77 596.48 Z" stroke-linejoin="round" style="fill:#C77CFF;fill-opacity:0.75;stroke:#000000;stroke-width:0.00"/>
	<path d="
M608.49 604.26 L608.49 604.26 L617.17 604.26 L625.91 604.26 L634.64 604.26 L643.32 604.26 L652.05 604.26 L660.74 604.26 L669.47 604.26 L678.20 604.26 L686.88 604.26 L695.61 604.26 L704.34 604.26 L713.03 604.26 L721.76 604.26 L730.44 604.26 L739.17 604.26 L747.90 604.26 L756.59 604.22 L765.32 604.22 L774.00 604.17 L782.73 604.13 L791.46 603.99 L800.15 603.77 L808.88 603.45 L817.56 602.91 L826.29 602.01 L835.02 600.66 L843.71 598.77 L852.44 596.29 L861.12 593.51 L869.85 590.67 L878.58 588.24 L887.27 586.31 L896.00 584.96 L904.68 584.10 L913.41 583.52 L922.14 583.20 L930.83 582.98 L939.56 582.89 L948.24 582.79 L956.97 582.75 L965.70 582.75 L974.39 582.75 L983.12 582.75 L991.80 582.71 L1000.53 582.71 L1009.26 582.71 L1017.95 582.71 L1026.68 582.71 L1035.36 582.71 L1044.09 582.71 L1052.82 582.71 L1061.51 582.71 L1070.23 582.71 L1078.92 582.71 L1087.65 582.71 L1096.38 582.71 L1105.07 582.71 L1113.80 582.71 L1113.80 556.42 L1105.07 556.42 L1096.38 556.42 L1087.65 556.42 L1078.92 556.42 L1070.23 556.42 L1061.51 556.42 L1052.82 556.42 L1044.09 556.42 L1035.36 556.42 L1026.68 556.42 L1017.95 556.42 L1009.26 556.42 L1000.53 556.42 L991.80 556.42 L983.12 556.42 L974.39 556.42 L965.70 556.47 L956.97 556.47 L948.24 556.52 L939.56 556.56 L930.83 556.69 L922.14 556.88 L913.41 557.24 L904.68 557.78 L896.00 558.67 L887.27 560.03 L878.58 561.92 L869.85 564.39 L861.12 567.18 L852.44 570.02 L843.71 572.44 L835.02 574.38 L826.29 575.68 L817.56 576.59 L808.88 577.17 L800.15 577.49 L791.46 577.71 L782.73 577.80 L774.00 577.89 L765.32 577.93 L756.59 577.93 L747.90 577.93 L739.17 577.93 L730.44 577.98 L721.76 577.98 L713.03 577.98 L704.34 577.98 L695.61 577.98 L686.88 577.98 L678.20 577.98 L669.47 577.98 L660.74 577.98 L652.05 577.98 L643.32 577.98 L634.64 577.98 L625.91 577.98 L617.17 577.98 L608.49 577.98 L608.49 604.26 Z" stroke-linejoin="round" style="fill:#C77CFF;fill-opacity:0.75;stroke:#000000;stroke-width:0.00"/>
	<path d="
M85.77 580.46 L85.77 580.46 L94.46 580.46 L103.19 580.46 L111.87 580.46 L120.60 580.46 L129.33 580.46 L138.01 580.46 L146.75 580.46 L155.43 580.46 L164.16 580.46 L172.89 580.46 L181.58 580.46 L190.31 580.46 L198.99 580.46 L207.72 580.46 L216.45 580.46 L225.14 580.46 L233.87 580.46 L242.55 580.46 L251.28 580.46 L260.01 580.46 L268.70 580.46 L277.43 580.46 L286.15 580.46 L294.84 580.46 L303.57 580.46 L312.26 580.46 L320.99 580.46 L329.72 580.46 L338.40 580.46 L347.13 580.46 L355.82 580.46 L364.55 580.46 L373.28 580.46 L381.96 580.46 L390.69 580.46 L399.38 580.46 L408.11 580.46 L416.84 580.46 L425.52 580.46 L434.25 580.46 L442.94 580.46 L451.67 580.46 L460.40 580.46 L469.08 580.46 L477.81 580.46 L486.50 580.46 L495.23 580.46 L503.96 580.46 L512.64 580.46 L521.37 580.46 L530.05 580.46 L538.79 580.46 L547.52 580.46 L556.20 580.46 L564.93 580.46 L573.62 580.46 L582.35 580.46 L591.08 580.46 L591.08 538.97 L582.35 538.97 L573.62 538.97 L564.93 538.97 L556.20 538.97 L547.52 538.97 L538.79 538.97 L530.05 538.97 L521.37 538.97 L512.64 538.97 L503.96 538.97 L495.23 538.97 L486.50 538.97 L477.81 538.97 L469.08 538.97 L460.40 538.97 L451.67 538.97 L442.94 538.97 L434.25 538.97 L425.52 538.97 L416.84 538.97 L408.11 538.97 L399.38 538.97 L390.69 538.97 L381.96 538.97 L373.28 538.97 L364.55 538.97 L355.82 538.97 L347.13 538.97 L338.40 538.97 L329.72 538.97 L320.99 538.97 L312.26 538.97 L303.57 538.97 L294.84 538.97 L286.15 538.97 L277.43 538.97 L268.70 538.97 L260.01 538.97 L251.28 538.97 L242.55 538.97 L233.87 538.97 L225.14 538.97 L216.45 538.97 L207.72 538.97 L198.99 538.97 L190.31 538.97 L181.58 538.97 L172.89 538.97 L164.16 538.97 L155.43 538.97 L146.75 538.97 L138.01 538.97 L129.33 538.97 L120.60 538.97 L111.87 538.97 L103.19 538.97 L94.46 538.97 L85.77 538.97 L85.77 580.46 Z" stroke-linejoin="round" style="fill:#C77CFF;fill-opacity:0.75;stroke:#000000;stroke-width:0.00"/>
	<path d="
M608.49 577.98 L608.49 577.98 L617.17 577.98 L625.91 577.98 L634.64 577.98 L643.32 577.98 L652.05 577.98 L660.74 577.98 L669.47 577.98 L678.20 577.98 L686.88 577.98 L695.61 577.98 L704.34 577.98 L713.03 577.98 L721.76 577.98 L730.44 577.98 L739.17 577.98 L747.90 577.98 L756.59 578.03 L765.32 578.12 L774.00 578.21 L782.73 578.43 L791.46 578.75 L800.15 579.33 L808.88 580.37 L817.56 581.99 L826.29 584.64 L835.02 588.60 L843.71 594.27 L852.44 601.52 L861.12 609.79 L869.85 618.12 L878.58 625.37 L887.27 630.99 L896.00 635.00 L904.68 637.61 L913.41 639.27 L922.14 640.26 L930.83 640.85 L939.56 641.21 L948.24 641.39 L956.97 641.52 L965.70 641.57 L974.39 641.61 L983.12 641.66 L991.80 641.66 L1000.53 641.66 L1009.26 641.66 L1017.95 641.66 L1026.68 641.66 L1035.36 641.66 L1044.09 641.66 L1052.82 641.66 L1061.51 641.66 L1070.23 641.66 L1078.92 641.66 L1087.65 641.66 L1096.38 641.66 L1105.07 641.66 L1113.80 641.66 L1113.80 609.08 L1105.07 609.08 L1096.38 609.08 L1087.65 609.08 L1078.92 609.08 L1070.23 609.08 L1061.51 609.08 L1052.82 609.08 L1044.09 609.08 L1035.36 609.08 L1026.68 609.08 L1017.95 609.08 L1009.26 609.08 L1000.53 609.08 L991.80 609.08 L983.12 609.08 L974.39 609.08 L965.70 609.03 L956.97 608.94 L948.24 608.85 L939.56 608.67 L930.83 608.31 L922.14 607.73 L913.41 606.69 L904.68 605.07 L896.00 602.42 L887.27 598.46 L878.58 592.79 L869.85 585.54 L861.12 577.26 L852.44 568.93 L843.71 561.69 L835.02 556.07 L826.29 552.06 L817.56 549.45 L808.88 547.79 L800.15 546.79 L791.46 546.21 L782.73 545.85 L774.00 545.67 L765.32 545.54 L756.59 545.49 L747.90 545.44 L739.17 545.44 L730.44 545.40 L721.76 545.40 L713.03 545.40 L704.34 545.40 L695.61 545.40 L686.88 545.40 L678.20 545.40 L669.47 545.40 L660.74 545.40 L652.05 545.40 L643.32 545.40 L634.64 545.40 L625.91 545.40 L617.17 545.40 L608.49 545.40 L608.49 577.98 Z" stroke-linejoin="round" style="fill:#C77CFF;fill-opacity:0.75;stroke:#000000;stroke-width:0.00"/>
	<line x1="599.76" y1="41.04" x2="599.76" y2="302.85" style="stroke:#F8766D;stroke-width:23.04"/>
	<line x1="77.04" y1="306.54" x2="77.04" y2="527.54" style="stroke:#F8766D;stroke-width:23.04"/>
	<line x1="1122.53" y1="135.14" x2="1122.53" y2="390.47" style="stroke:#F8766D;stroke-width:23.04"/>
	<line x1="77.04" y1="607.95" x2="77.04" y2="648.59" style="stroke:#7CAE00;stroke-width:23.04"/>
	<line x1="1122.53" y1="556.42" x2="1122.53" y2="597.65" style="stroke:#7CAE00;stroke-width:23.04"/>
	<line x1="599.76" y1="622.13" x2="599.76" y2="648.59" style="stroke:#7CAE00;stroke-width:23.04"/>
	<line x1="77.04" y1="41.04" x2="77.04" y2="295.07" style="stroke:#00BFC4;stroke-width:23.04"/>
	<line x1="599.76" y1="314.28" x2="599.76" y2="527.54" style="stroke:#00BFC4;stroke-width:23.04"/>
	<line x1="1122.53" y1="401.94" x2="1122.53" y2="544.95" style="stroke:#00BFC4;stroke-width:23.04"/>
	<line x1="77.04" y1="538.97" x2="77.04" y2="596.48" style="stroke:#C77CFF;stroke-width:23.04"/>
	<line x1="599.76" y1="538.97" x2="599.76" y2="610.69" style="stroke:#C77CFF;stroke-width:23.04"/>
	<line x1="1122.53" y1="609.08" x2="1122.53" y2="648.59" style="stroke:#C77CFF;stroke-width:23.04"/>
	<text x="84.38" y="424.59" style="font-family:'Helvetica';font-size:21.60px;fill:#000000">Acquiescent immobility (7589)</text>
	<text x="84.38" y="635.86" style="font-family:'Helvetica';font-size:21.60px;fill:#000000">Involuntary immobility (1395)</text>
	<text x="84.38" y="175.60" style="font-family:'Helvetica';font-size:21.60px;fill:#000000">Voluntary immobility (8723)</text>
	<text x="84.38" y="575.29" style="font-family:'Helvetica';font-size:21.60px;fill:#000000">Mobility (1975)</text>
	<text x="607.10" y="179.52" style="font-family:'Helvetica';font-size:21.60px;fill:#000000">Acquiescent immobility (8990)</text>
	<text x="607.10" y="642.93" style="font-family:'Helvetica';font-size:21.60px;fill:#000000">Involuntary immobility (908)</text>
	<text x="607.10" y="428.50" style="font-family:'Helvetica';font-size:21.60px;fill:#000000">Voluntary immobility (7322)</text>
	<text x="607.10" y="582.40" style="font-family:'Helvetica';font-size:21.60px;fill:#000000">Mobility (2462)</text>
	<text x="1129.86" y="584.61" style="font-family:'Helvetica';font-size:21.60px;fill:#000000">Involuntary immobility (1415)</text>
	<text x="1129.86" y="270.37" style="font-family:'Helvetica';font-size:21.60px;fill:#000000">Acquiescent immobility (8768)</text>
	<text x="1129.86" y="481.02" style="font-family:'Helvetica';font-size:21.60px;fill:#000000">Voluntary immobility (4912)</text>
	<text x="1129.86" y="636.40" style="font-family:'Helvetica';font-size:21.60px;fill:#000000">Mobility (1356)</text>
	<text x="77.04" y="685.27" style="font-family:'Helvetica';font-weight:bold;font-size:18.00px;fill:#000000" text-anchor="middle">Employment</text>
	<text x="599.76" y="685.27" style="font-family:'Helvetica';font-weight:bold;font-size:18.00px;fill:#000000" text-anchor="middle">Secondary</text>
	<text x="1122.48" y="685.27" style="font-family:'Helvetica';font-weight:bold;font-size:18.00px;fill:#000000" text-anchor="middle">Assets</text>
</svg>
