<?xml version="1.0" encoding="UTF-8" standalone="no"?>
<!-- This is a Stata 19.5 generated SVG file (http://www.stata.com) -->

<svg version="1.1" width="2.000in" height="1.000in" viewBox="0 0 1440 720" xmlns="http://www.w3.org/2000/svg" xmlns:xlink="http://www.w3.org/1999/xlink">
	<desc>Stata Graph - Graph</desc>
	<rect x="0" y="0" width="1440" height="720" style="fill:#FFFFFF;stroke:none"/>
	<rect x="0.00" y="0.00" width="1440.00" height="720.00" style="fill:#FFFFFF"/>
	<rect x="1.50" y="1.50" width="1437.00" height="717.00" style="fill:none;stroke:#FFFFFF;stroke-width:3.00"/>
	<rect x="25.20" y="25.20" width="1389.60" height="669.60" style="fill:#FFFFFF"/>
	<rect x="26.70" y="26.70" width="1386.60" height="666.60" style="fill:none;stroke:#FFFFFF;stroke-width:3.00"/>
	<path d="
M93.51 456.21 L93.51 456.21 L110.03 456.21 L126.50 456.21 L142.97 456.21 L159.48 456.21 L175.95 456.21 L192.47 456.21 L208.94 456.21 L225.41 456.21 L241.92 456.21 L258.39 456.21 L274.86 456.21 L291.38 456.21 L307.85 456.21 L324.32 456.21 L340.83 456.17 L357.30 456.12 L373.77 456.08 L390.29 455.99 L406.76 455.76 L423.27 455.45 L439.74 454.86 L456.21 453.83 L472.73 452.12 L489.20 449.28 L505.67 444.74 L522.18 437.90 L538.65 428.22 L555.12 415.76 L571.64 401.49 L588.11 387.23 L604.58 374.76 L621.09 365.09 L637.56 358.25 L654.08 353.70 L670.55 350.87 L687.02 349.16 L703.53 348.12 L720.00 347.54 L736.47 347.18 L752.99 347.00 L769.46 346.91 L785.93 346.82 L802.44 346.82 L818.91 346.77 L835.43 346.77 L851.90 346.77 L868.37 346.77 L884.88 346.77 L901.35 346.77 L917.82 346.77 L934.34 346.77 L950.81 346.77 L967.28 346.77 L983.79 346.77 L1000.26 346.77 L1016.73 346.77 L1033.24 346.77 L1049.71 346.77 L1049.71 196.97 L1033.24 196.97 L1016.73 196.97 L1000.26 196.97 L983.79 196.97 L967.28 196.97 L950.81 196.97 L934.34 196.97 L917.82 196.97 L901.35 196.97 L884.88 196.97 L868.37 196.97 L851.90 196.97 L835.43 196.97 L818.91 197.01 L802.44 197.01 L785.93 197.05 L769.46 197.10 L752.99 197.19 L736.47 197.41 L720.00 197.73 L703.53 198.36 L687.02 199.35 L670.55 201.11 L654.08 203.94 L637.56 208.44 L621.09 215.28 L604.58 224.96 L588.11 237.42 L571.64 251.69 L555.12 265.95 L538.65 278.42 L522.18 288.14 L505.67 294.98 L489.20 299.48 L472.73 302.31 L456.21 304.02 L439.74 305.06 L423.27 305.64 L406.76 306.00 L390.29 306.18 L373.77 306.27 L357.30 306.36 L340.83 306.40 L324.32 306.40 L307.85 306.40 L291.38 306.40 L274.86 306.40 L258.39 306.40 L241.92 306.40 L225.41 306.40 L208.94 306.40 L192.47 306.40 L175.95 306.40 L159.48 306.40 L142.97 306.40 L126.50 306.40 L110.03 306.40 L93.51 306.40 L93.51 456.21 Z" stroke-linejoin="round" style="fill:#F8766D;fill-opacity:0.75;stroke:#000000;stroke-width:0.00"/>
	<path d="
M93.51 529.34 L93.51 529.34 L110.03 529.34 L126.50 529.34 L142.97 529.34 L159.48 529.34 L175.95 529.34 L192.47 529.34 L208.94 529.34 L225.41 529.34 L241.92 529.34 L258.39 529.34 L274.86 529.34 L291.38 529.34 L307.85 529.34 L324.32 529.34 L340.83 529.34 L357.30 529.34 L373.77 529.34 L390.29 529.34 L406.76 529.34 L423.27 529.34 L439.74 529.34 L456.21 529.34 L472.73 529.34 L489.20 529.34 L505.67 529.34 L522.18 529.34 L538.65 529.34 L555.12 529.34 L571.64 529.34 L588.11 529.34 L604.58 529.34 L621.09 529.34 L637.56 529.34 L654.08 529.34 L670.55 529.34 L687.02 529.34 L703.53 529.34 L720.00 529.34 L736.47 529.34 L752.99 529.34 L769.46 529.34 L785.93 529.34 L802.44 529.34 L818.91 529.34 L835.43 529.34 L851.90 529.34 L868.37 529.34 L884.88 529.34 L901.35 529.34 L917.82 529.34 L934.34 529.34 L950.81 529.34 L967.28 529.34 L983.79 529.34 L1000.26 529.34 L1016.73 529.34 L1033.24 529.34 L1049.71 529.34 L1049.71 456.21 L1033.24 456.21 L1016.73 456.21 L1000.26 456.21 L983.79 456.21 L967.28 456.21 L950.81 456.21 L934.34 456.21 L917.82 456.21 L901.35 456.21 L884.88 456.21 L868.37 456.21 L851.90 456.21 L835.43 456.21 L818.91 456.21 L802.44 456.21 L785.93 456.21 L769.46 456.21 L752.99 456.21 L736.47 456.21 L720.00 456.21 L703.53 456.21 L687.02 456.21 L670.55 456.21 L654.08 456.21 L637.56 456.21 L621.09 456.21 L604.58 456.21 L588.11 456.21 L571.64 456.21 L555.12 456.21 L538.65 456.21 L522.18 456.21 L505.67 456.21 L489.20 456.21 L472.73 456.21 L456.21 456.21 L439.74 456.21 L423.27 456.21 L406.76 456.21 L390.29 456.21 L373.77 456.21 L357.30 456.21 L340.83 456.21 L324.32 456.21 L307.85 456.21 L291.38 456.21 L274.86 456.21 L258.39 456.21 L241.92 456.21 L225.41 456.21 L208.94 456.21 L192.47 456.21 L175.95 456.21 L159.48 456.21 L142.97 456.21 L126.50 456.21 L110.03 456.21 L93.51 456.21 L93.51 529.34 Z" stroke-linejoin="round" style="fill:#F8766D;fill-opacity:0.75;stroke:#000000;stroke-width:0.00"/>
	<path d="
M93.51 629.64 L93.51 629.64 L110.03 629.64 L126.50 629.64 L142.97 629.64 L159.48 629.64 L175.95 629.64 L192.47 629.64 L208.94 629.64 L225.41 629.64 L241.92 629.64 L258.39 629.64 L274.86 629.64 L291.38 629.64 L307.85 629.64 L324.32 629.64 L340.83 629.64 L357.30 629.64 L373.77 629.60 L390.29 629.55 L406.76 629.51 L423.27 629.37 L439.74 629.15 L456.21 628.79 L472.73 628.16 L489.20 627.12 L505.67 625.50 L522.18 623.03 L538.65 619.52 L555.12 614.97 L571.64 609.84 L588.11 604.67 L604.58 600.12 L621.09 596.61 L637.56 594.14 L654.08 592.52 L670.55 591.48 L687.02 590.85 L703.53 590.49 L720.00 590.27 L736.47 590.13 L752.99 590.09 L769.46 590.04 L785.93 590.00 L802.44 590.00 L818.91 590.00 L835.43 590.00 L851.90 590.00 L868.37 590.00 L884.88 590.00 L901.35 590.00 L917.82 590.00 L934.34 590.00 L950.81 590.00 L967.28 590.00 L983.79 590.00 L1000.26 590.00 L1016.73 590.00 L1033.24 590.00 L1049.71 590.00 L1049.71 568.17 L1033.24 568.17 L1016.73 568.17 L1000.26 568.17 L983.79 568.17 L967.28 568.17 L950.81 568.17 L934.34 568.17 L917.82 568.17 L901.35 568.17 L884.88 568.17 L868.37 568.17 L851.90 568.17 L835.43 568.17 L818.91 568.17 L802.44 568.17 L785.93 568.22 L769.46 568.22 L752.99 568.26 L736.47 568.35 L720.00 568.44 L703.53 568.67 L687.02 569.03 L670.55 569.66 L654.08 570.69 L637.56 572.36 L621.09 574.83 L604.58 578.34 L588.11 582.84 L571.64 588.02 L555.12 593.19 L538.65 597.69 L522.18 601.20 L505.67 603.67 L489.20 605.34 L472.73 606.38 L456.21 606.96 L439.74 607.37 L423.27 607.54 L406.76 607.68 L390.29 607.77 L373.77 607.82 L357.30 607.82 L340.83 607.82 L324.32 607.86 L307.85 607.86 L291.38 607.86 L274.86 607.86 L258.39 607.86 L241.92 607.86 L225.41 607.86 L208.94 607.86 L192.47 607.86 L175.95 607.86 L159.48 607.86 L142.97 607.86 L126.50 607.86 L110.03 607.86 L93.51 607.86 L93.51 629.64 Z" stroke-linejoin="round" style="fill:#7CAE00;fill-opacity:0.75;stroke:#000000;stroke-width:0.00"/>
	<path d="
M93.51 648.59 L93.51 648.59 L110.03 648.59 L126.50 648.59 L142.97 648.59 L159.48 648.59 L175.95 648.59 L192.47 648.59 L208.94 648.59 L225.41 648.59 L241.92 648.59 L258.39 648.59 L274.86 648.59 L291.38 648.59 L307.85 648.59 L324.32 648.59 L340.83 648.59 L357.30 648.59 L373.77 648.59 L390.29 648.59 L406.76 648.59 L423.27 648.59 L439.74 648.59 L456.21 648.59 L472.73 648.59 L489.20 648.59 L505.67 648.59 L522.18 648.59 L538.65 648.59 L555.12 648.59 L571.64 648.59 L588.11 648.59 L604.58 648.59 L621.09 648.59 L637.56 648.59 L654.08 648.59 L670.55 648.59 L687.02 648.59 L703.53 648.59 L720.00 648.59 L736.47 648.59 L752.99 648.59 L769.46 648.59 L785.93 648.59 L802.44 648.59 L818.91 648.59 L835.43 648.59 L851.90 648.59 L868.37 648.59 L884.88 648.59 L901.35 648.59 L917.82 648.59 L934.34 648.59 L950.81 648.59 L967.28 648.59 L983.79 648.59 L1000.26 648.59 L1016.73 648.59 L1033.24 648.59 L1049.71 648.59 L1049.71 629.64 L1033.24 629.64 L1016.73 629.64 L1000.26 629.64 L983.79 629.64 L967.28 629.64 L950.81 629.64 L934.34 629.64 L917.82 629.64 L901.35 629.64 L884.88 629.64 L868.37 629.64 L851.90 629.64 L835.43 629.64 L818.91 629.64 L802.44 629.64 L785.93 629.64 L769.46 629.64 L752.99 629.64 L736.47 629.64 L720.00 629.64 L703.53 629.64 L687.02 629.64 L670.55 629.64 L654.08 629.64 L637.56 629.64 L621.09 629.64 L604.58 629.64 L588.11 629.64 L571.64 629.64 L555.12 629.64 L538.65 629.64 L522.18 629.64 L505.67 629.64 L489.20 629.64 L472.73 629.64 L456.21 629.64 L439.74 629.64 L423.27 629.64 L406.76 629.64 L390.29 629.64 L373.77 629.64 L357.30 629.64 L340.83 629.64 L324.32 629.64 L307.85 629.64 L291.38 629.64 L274.86 629.64 L258.39 629.64 L241.92 629.64 L225.41 629.64 L208.94 629.64 L192.47 629.64 L175.95 629.64 L159.48 629.64 L142.97 629.64 L126.50 629.64 L110.03 629.64 L93.51 629.64 L93.51 648.59 Z" stroke-linejoin="round" style="fill:#7CAE00;fill-opacity:0.75;stroke:#000000;stroke-width:0.00"/>
	<path d="
M93.51 196.97 L93.51 196.97 L110.03 196.97 L126.50 196.97 L142.97 196.97 L159.48 196.97 L175.95 196.97 L192.47 196.97 L208.94 196.97 L225.41 196.97 L241.92 196.97 L258.39 196.97 L274.86 196.97 L291.38 196.97 L307.85 196.97 L324.32 196.97 L340.83 196.97 L357.30 196.97 L373.77 196.97 L390.29 196.97 L406.76 196.97 L423.27 196.97 L439.74 196.97 L456.21 196.97 L472.73 196.97 L489.20 196.97 L505.67 196.97 L522.18 196.97 L538.65 196.97 L555.12 196.97 L571.64 196.97 L588.11 196.97 L604.58 196.97 L621.09 196.97 L637.56 196.97 L654.08 196.97 L670.55 196.97 L687.02 196.97 L703.53 196.97 L720.00 196.97 L736.47 196.97 L752.99 196.97 L769.46 196.97 L785.93 196.97 L802.44 196.97 L818.91 196.97 L835.43 196.97 L851.90 196.97 L868.37 196.97 L884.88 196.97 L901.35 196.97 L917.82 196.97 L934.34 196.97 L950.81 196.97 L967.28 196.97 L983.79 196.97 L1000.26 196.97 L1016.73 196.97 L1033.24 196.97 L1049.71 196.97 L1049.71 41.04 L1033.24 41.04 L1016.73 41.04 L1000.26 41.04 L983.79 41.04 L967.28 41.04 L950.81 41.04 L934.34 41.04 L917.82 41.04 L901.35 41.04 L884.88 41.04 L868.37 41.04 L851.90 41.04 L835.43 41.04 L818.91 41.04 L802.44 41.04 L785.93 41.04 L769.46 41.04 L752.99 41.04 L736.47 41.04 L720.00 41.04 L703.53 41.04 L687.02 41.04 L670.55 41.04 L654.08 41.04 L637.56 41.04 L621.09 41.04 L604.58 41.04 L588.11 41.04 L571.64 41.04 L555.12 41.04 L538.65 41.04 L522.18 41.04 L505.67 41.04 L489.20 41.04 L472.73 41.04 L456.21 41.04 L439.74 41.04 L423.27 41.04 L406.76 41.04 L390.29 41.04 L373.77 41.04 L357.30 41.04 L340.83 41.04 L324.32 41.04 L307.85 41.04 L291.38 41.04 L274.86 41.04 L258.39 41.04 L241.92 41.04 L225.41 41.04 L208.94 41.04 L192.47 41.04 L175.95 41.04 L159.48 41.04 L142.97 41.04 L126.50 41.04 L110.03 41.04 L93.51 41.04 L93.51 196.97 Z" stroke-linejoin="round" style="fill:#00BFC4;fill-opacity:0.75;stroke:#000000;stroke-width:0.00"/>
	<path d="
M93.51 294.98 L93.51 294.98 L110.03 294.98 L126.50 294.98 L142.97 294.98 L159.48 294.98 L175.95 294.98 L192.47 294.98 L208.94 294.98 L225.41 294.98 L241.92 294.98 L258.39 294.98 L274.86 294.98 L291.38 294.98 L307.85 294.98 L324.32 294.98 L340.83 295.02 L357.30 295.07 L373.77 295.15 L390.29 295.29 L406.76 295.56 L423.27 296.10 L439.74 296.96 L456.21 298.49 L472.73 301.01 L489.20 305.19 L505.67 311.85 L522.18 321.93 L538.65 336.20 L555.12 354.56 L571.64 375.57 L588.11 396.59 L604.58 414.99 L621.09 429.26 L637.56 439.34 L654.08 446.00 L670.55 450.14 L687.02 452.70 L703.53 454.19 L720.00 455.09 L736.47 455.58 L752.99 455.85 L769.46 456.03 L785.93 456.12 L802.44 456.17 L818.91 456.17 L835.43 456.21 L851.90 456.21 L868.37 456.21 L884.88 456.21 L901.35 456.21 L917.82 456.21 L934.34 456.21 L950.81 456.21 L967.28 456.21 L983.79 456.21 L1000.26 456.21 L1016.73 456.21 L1033.24 456.21 L1049.71 456.21 L1049.71 358.25 L1033.24 358.25 L1016.73 358.25 L1000.26 358.25 L983.79 358.25 L967.28 358.25 L950.81 358.25 L934.34 358.25 L917.82 358.25 L901.35 358.25 L884.88 358.25 L868.37 358.25 L851.90 358.25 L835.43 358.20 L818.91 358.20 L802.44 358.20 L785.93 358.16 L769.46 358.07 L752.99 357.89 L736.47 357.62 L720.00 357.12 L703.53 356.22 L687.02 354.74 L670.55 352.17 L654.08 347.99 L637.56 341.37 L621.09 331.25 L604.58 316.98 L588.11 298.62 L571.64 277.61 L555.12 256.59 L538.65 238.23 L522.18 223.96 L505.67 213.84 L489.20 207.23 L472.73 203.04 L456.21 200.48 L439.74 198.99 L423.27 198.09 L406.76 197.60 L390.29 197.33 L373.77 197.15 L357.30 197.05 L340.83 197.01 L324.32 197.01 L307.85 197.01 L291.38 196.97 L274.86 196.97 L258.39 196.97 L241.92 196.97 L225.41 196.97 L208.94 196.97 L192.47 196.97 L175.95 196.97 L159.48 196.97 L142.97 196.97 L126.50 196.97 L110.03 196.97 L93.51 196.97 L93.51 294.98 Z" stroke-linejoin="round" style="fill:#00BFC4;fill-opacity:0.75;stroke:#000000;stroke-width:0.00"/>
	<path d="
M93.51 596.39 L93.51 596.39 L110.03 596.39 L126.50 596.39 L142.97 596.39 L159.48 596.39 L175.95 596.39 L192.47 596.39 L208.94 596.39 L225.41 596.39 L241.92 596.39 L258.39 596.39 L274.86 596.39 L291.38 596.39 L307.85 596.39 L324.32 596.39 L340.83 596.39 L357.30 596.39 L373.77 596.34 L390.29 596.34 L406.76 596.25 L423.27 596.21 L439.74 596.03 L456.21 595.76 L472.73 595.31 L489.20 594.59 L505.67 593.42 L522.18 591.66 L538.65 589.18 L555.12 585.94 L571.64 582.30 L588.11 578.61 L604.58 575.37 L621.09 572.90 L637.56 571.14 L654.08 569.97 L670.55 569.25 L687.02 568.80 L703.53 568.53 L720.00 568.40 L736.47 568.31 L752.99 568.26 L769.46 568.22 L785.93 568.22 L802.44 568.17 L818.91 568.17 L835.43 568.17 L851.90 568.17 L868.37 568.17 L884.88 568.17 L901.35 568.17 L917.82 568.17 L934.34 568.17 L950.81 568.17 L967.28 568.17 L983.79 568.17 L1000.26 568.17 L1016.73 568.17 L1033.24 568.17 L1049.71 568.17 L1049.71 540.77 L1033.24 540.77 L1016.73 540.77 L1000.26 540.77 L983.79 540.77 L967.28 540.77 L950.81 540.77 L934.34 540.77 L917.82 540.77 L901.35 540.77 L884.88 540.77 L868.37 540.77 L851.90 540.77 L835.43 540.77 L818.91 540.77 L802.44 540.77 L785.93 540.81 L769.46 540.81 L752.99 540.86 L736.47 540.90 L720.00 540.99 L703.53 541.13 L687.02 541.40 L670.55 541.85 L654.08 542.57 L637.56 543.74 L621.09 545.49 L604.58 548.01 L588.11 551.21 L571.64 554.90 L555.12 558.54 L538.65 561.78 L522.18 564.26 L505.67 566.01 L489.20 567.18 L472.73 567.90 L456.21 568.35 L439.74 568.62 L423.27 568.80 L406.76 568.89 L390.29 568.93 L373.77 568.93 L357.30 568.98 L340.83 568.98 L324.32 568.98 L307.85 568.98 L291.38 568.98 L274.86 568.98 L258.39 568.98 L241.92 568.98 L225.41 568.98 L208.94 568.98 L192.47 568.98 L175.95 568.98 L159.48 568.98 L142.97 568.98 L126.50 568.98 L110.03 568.98 L93.51 568.98 L93.51 596.39 Z" stroke-linejoin="round" style="fill:#C77CFF;fill-opacity:0.75;stroke:#000000;stroke-width:0.00"/>
	<path d="
M93.51 568.98 L93.51 568.98 L110.03 568.98 L126.50 568.98 L142.97 568.98 L159.48 568.98 L175.95 568.98 L192.47 568.98 L208.94 568.98 L225.41 568.98 L241.92 568.98 L258.39 568.98 L274.86 568.98 L291.38 568.98 L307.85 568.98 L324.32 568.98 L340.83 568.98 L357.30 569.03 L373.77 569.07 L390.29 569.12 L406.76 569.21 L423.27 569.39 L439.74 569.75 L456.21 570.29 L472.73 571.28 L489.20 572.85 L505.67 575.33 L522.18 579.11 L538.65 584.51 L555.12 591.39 L571.64 599.31 L588.11 607.23 L604.58 614.16 L621.09 619.52 L637.56 623.29 L654.08 625.82 L670.55 627.39 L687.02 628.34 L703.53 628.92 L720.00 629.24 L736.47 629.42 L752.99 629.51 L769.46 629.60 L785.93 629.64 L802.44 629.64 L818.91 629.64 L835.43 629.64 L851.90 629.64 L868.37 629.64 L884.88 629.64 L901.35 629.64 L917.82 629.64 L934.34 629.64 L950.81 629.64 L967.28 629.64 L983.79 629.64 L1000.26 629.64 L1016.73 629.64 L1033.24 629.64 L1049.71 629.64 L1049.71 601.47 L1033.24 601.47 L1016.73 601.47 L1000.26 601.47 L983.79 601.47 L967.28 601.47 L950.81 601.47 L934.34 601.47 L917.82 601.47 L901.35 601.47 L884.88 601.47 L868.37 601.47 L851.90 601.47 L835.43 601.47 L818.91 601.42 L802.44 601.42 L785.93 601.42 L769.46 601.38 L752.99 601.34 L736.47 601.20 L720.00 601.02 L703.53 600.71 L687.02 600.12 L670.55 599.17 L654.08 597.60 L637.56 595.08 L621.09 591.30 L604.58 585.94 L588.11 579.02 L571.64 571.10 L555.12 563.22 L538.65 556.29 L522.18 550.93 L505.67 547.11 L489.20 544.64 L472.73 543.06 L456.21 542.12 L439.74 541.53 L423.27 541.22 L406.76 541.04 L390.29 540.90 L373.77 540.86 L357.30 540.81 L340.83 540.81 L324.32 540.77 L307.85 540.77 L291.38 540.77 L274.86 540.77 L258.39 540.77 L241.92 540.77 L225.41 540.77 L208.94 540.77 L192.47 540.77 L175.95 540.77 L159.48 540.77 L142.97 540.77 L126.50 540.77 L110.03 540.77 L93.51 540.77 L93.51 568.98 Z" stroke-linejoin="round" style="fill:#C77CFF;fill-opacity:0.75;stroke:#000000;stroke-width:0.00"/>
	<line x1="1066.23" y1="41.04" x2="1066.23" y2="346.77" style="stroke:#F8766D;stroke-width:23.04"/>
	<line x1="77.04" y1="306.40" x2="77.04" y2="529.34" style="stroke:#F8766D;stroke-width:23.04"/>
	<line x1="77.04" y1="607.86" x2="77.04" y2="648.59" style="stroke:#7CAE00;stroke-width:23.04"/>
	<line x1="1066.23" y1="540.77" x2="1066.23" y2="590.00" style="stroke:#7CAE00;stroke-width:23.04"/>
	<line x1="1066.23" y1="358.25" x2="1066.23" y2="529.34" style="stroke:#00BFC4;stroke-width:23.04"/>
	<line x1="77.04" y1="41.04" x2="77.04" y2="294.98" style="stroke:#00BFC4;stroke-width:23.04"/>
	<line x1="77.04" y1="540.77" x2="77.04" y2="596.39" style="stroke:#C77CFF;stroke-width:23.04"/>
	<line x1="1066.23" y1="601.47" x2="1066.23" y2="648.59" style="stroke:#C77CFF;stroke-width:23.04"/>
	<text x="84.38" y="425.44" style="font-family:'Helvetica';font-size:21.60px;fill:#000000">Acquiescent immobility (6,418)</text>
	<text x="84.38" y="635.77" style="font-family:'Helvetica';font-size:21.60px;fill:#000000">Involuntary immobility (1,173)</text>
	<text x="84.38" y="175.56" style="font-family:'Helvetica';font-size:21.60px;fill:#000000">Voluntary immobility (7,311)</text>
	<text x="84.38" y="576.15" style="font-family:'Helvetica';font-size:21.60px;fill:#000000">Mobility (1,601)</text>
	<text x="1073.57" y="201.48" style="font-family:'Helvetica';font-size:21.60px;fill:#000000">Acquiescent immobility (8,803)</text>
	<text x="1073.57" y="451.36" style="font-family:'Helvetica';font-size:21.60px;fill:#000000">Voluntary immobility (4,926)</text>
	<text x="1073.57" y="572.95" style="font-family:'Helvetica';font-size:21.60px;fill:#000000">Involuntary immobility (1,417)</text>
	<text x="1073.57" y="632.58" style="font-family:'Helvetica';font-size:21.60px;fill:#000000">Mobility (1,357)</text>
	<text x="77.04" y="685.27" style="font-family:'Helvetica';font-weight:bold;font-size:18.00px;fill:#000000" text-anchor="middle">Employment</text>
	<text x="1066.19" y="685.27" style="font-family:'Helvetica';font-weight:bold;font-size:18.00px;fill:#000000" text-anchor="middle">Asset
index</text>
</svg>
